LinguisticsPro-BoldItalic.ufo
<glyph name="numbersign" format="1">
  <advance width="560"/>
  <unicode hex="0023"/>
  <outline>
    <contour>
      <point x="281" y="291" type="line"/>
      <point x="393" y="291" type="line"/>
      <point x="431" y="398" type="line"/>
      <point x="319" y="398" type="line"/>
    </contour>
    <contour>
      <point x="72" y="219" type="line"/>
      <point x="98" y="291" type="line"/>
      <point x="204" y="291" type="line"/>
      <point x="242" y="398" type="line"/>
      <point x="135" y="398" type="line"/>
      <point x="161" y="470" type="line"/>
      <point x="267" y="470" type="line"/>
      <point x="337" y="668" type="line"/>
      <point x="413" y="668" type="line"/>
      <point x="344" y="470" type="line"/>
      <point x="456" y="470" type="line"/>
      <point x="526" y="668" type="line"/>
      <point x="601" y="668" type="line"/>
      <point x="532" y="470" type="line"/>
      <point x="641" y="470" type="line"/>
      <point x="615" y="398" type="line"/>
      <point x="507" y="398" type="line"/>
      <point x="469" y="291" type="line"/>
      <point x="578" y="291" type="line"/>
      <point x="552" y="219" type="line"/>
      <point x="444" y="219" type="line"/>
      <point x="367" y="0" type="line"/>
      <point x="291" y="0" type="line"/>
      <point x="368" y="219" type="line"/>
      <point x="256" y="219" type="line"/>
      <point x="179" y="0" type="line"/>
      <point x="102" y="0" type="line"/>
      <point x="179" y="219" type="line"/>
    </contour>
  </outline>
</glyph>
<glyph name="dollar" format="1">
  <advance width="560"/>
  <unicode hex="0024"/>
  <outline>
    <contour>
      <point x="314" y="46" type="line"/>
      <point x="369" y="41"/>
      <point x="438" y="70"/>
      <point x="440" y="155" type="curve" smooth="yes"/>
      <point x="441" y="207"/>
      <point x="418" y="242"/>
      <point x="364" y="267" type="curve"/>
    </contour>
    <contour>
      <point x="281" y="522" type="curve" smooth="yes"/>
      <point x="281" y="481"/>
      <point x="301" y="453"/>
      <point x="347" y="431" type="curve"/>
      <point x="391" y="622" type="line"/>
      <point x="339" y="622"/>
      <point x="282" y="586"/>
    </contour>
    <contour>
      <point x="67" y="120" type="curve" smooth="yes"/>
      <point x="68" y="164"/>
      <point x="103" y="190"/>
      <point x="140" y="190" type="curve" smooth="yes"/>
      <point x="168" y="190"/>
      <point x="179" y="174"/>
      <point x="184" y="157" type="curve" smooth="yes"/>
      <point x="207" y="77"/>
      <point x="236" y="50"/>
      <point x="260" y="49" type="curve"/>
      <point x="315" y="291" type="line"/>
      <point x="191" y="347"/>
      <point x="157" y="412"/>
      <point x="158" y="473" type="curve" smooth="yes"/>
      <point x="160" y="590"/>
      <point x="259" y="668"/>
      <point x="402" y="668" type="curve"/>
      <point x="421" y="748" type="line"/>
      <point x="475" y="748" type="line"/>
      <point x="456" y="666" type="line"/>
      <point x="528" y="661"/>
      <point x="624" y="621"/>
      <point x="623" y="551" type="curve" smooth="yes"/>
      <point x="622" y="522"/>
      <point x="588" y="499"/>
      <point x="552" y="499" type="curve" smooth="yes"/>
      <point x="529" y="499"/>
      <point x="517" y="521"/>
      <point x="513" y="534" type="curve" smooth="yes"/>
      <point x="497" y="585"/>
      <point x="473" y="615"/>
      <point x="445" y="619" type="curve"/>
      <point x="396" y="405" type="line"/>
      <point x="495" y="362"/>
      <point x="571" y="311"/>
      <point x="569" y="198" type="curve" smooth="yes"/>
      <point x="568" y="108"/>
      <point x="504" y="-1"/>
      <point x="305" y="0" type="curve"/>
      <point x="282" y="-104" type="line"/>
      <point x="227" y="-104" type="line"/>
      <point x="250" y="2" type="line"/>
      <point x="143" y="8"/>
      <point x="66" y="59"/>
    </contour>
  </outline>
</glyph>
<glyph name="parenleft" format="1">
  <advance width="350"/>
  <unicode hex="0028"/>
  <outline>
    <contour>
      <point x="128" y="37" type="curve" smooth="yes"/>
      <point x="114" y="123"/>
      <point x="128" y="225"/>
      <point x="145" y="301" type="curve" smooth="yes"/>
      <point x="161" y="371"/>
      <point x="186" y="471"/>
      <point x="236" y="554" type="curve" smooth="yes"/>
      <point x="293" y="645"/>
      <point x="371" y="704"/>
      <point x="473" y="699" type="curve"/>
      <point x="472" y="665" type="line"/>
      <point x="339" y="642"/>
      <point x="266" y="385"/>
      <point x="244" y="282" type="curve" smooth="yes"/>
      <point x="220" y="179"/>
      <point x="191" y="-65"/>
      <point x="292" y="-101" type="curve"/>
      <point x="280" y="-135" type="line"/>
      <point x="192" y="-125"/>
      <point x="144" y="-59"/>
    </contour>
  </outline>
</glyph>
<glyph name="parenright" format="1">
  <advance width="350"/>
  <unicode hex="0029"/>
  <outline>
    <contour>
      <point x="3" y="-135" type="curve"/>
      <point x="4" y="-101" type="line"/>
      <point x="137" y="-78"/>
      <point x="210" y="179"/>
      <point x="232" y="282" type="curve" smooth="yes"/>
      <point x="256" y="385"/>
      <point x="285" y="629"/>
      <point x="184" y="665" type="curve"/>
      <point x="196" y="699" type="line"/>
      <point x="284" y="689"/>
      <point x="332" y="623"/>
      <point x="348" y="527" type="curve" smooth="yes"/>
      <point x="362" y="441"/>
      <point x="348" y="339"/>
      <point x="331" y="263" type="curve" smooth="yes"/>
      <point x="315" y="193"/>
      <point x="290" y="93"/>
      <point x="240" y="10" type="curve" smooth="yes"/>
      <point x="183" y="-81"/>
      <point x="105" y="-140"/>
    </contour>
  </outline>
</glyph>
<glyph name="asterisk" format="1">
  <advance width="500"/>
  <unicode hex="002A"/>
  <outline>
    <contour>
      <point x="164" y="413" type="curve" smooth="yes"/>
      <point x="150" y="441"/>
      <point x="154" y="468"/>
      <point x="183" y="475" type="curve" smooth="yes"/>
      <point x="299" y="503" type="line" smooth="yes"/>
      <point x="323" y="509"/>
      <point x="324" y="525"/>
      <point x="298" y="532" type="curve" smooth="yes"/>
      <point x="219" y="553" type="line" smooth="yes"/>
      <point x="189" y="561"/>
      <point x="190" y="596"/>
      <point x="206" y="618" type="curve" smooth="yes"/>
      <point x="225" y="644"/>
      <point x="255" y="650"/>
      <point x="270" y="633" type="curve" smooth="yes"/>
      <point x="325" y="569" type="line" smooth="yes"/>
      <point x="341" y="551"/>
      <point x="355" y="562"/>
      <point x="352" y="585" type="curve" smooth="yes"/>
      <point x="344" y="665" type="line" smooth="yes"/>
      <point x="342" y="693"/>
      <point x="359" y="707"/>
      <point x="398" y="707" type="curve" smooth="yes"/>
      <point x="438" y="707"/>
      <point x="455" y="689"/>
      <point x="440" y="662" type="curve" smooth="yes"/>
      <point x="395" y="580" type="line" smooth="yes"/>
      <point x="384" y="559"/>
      <point x="400" y="549"/>
      <point x="419" y="566" type="curve" smooth="yes"/>
      <point x="494" y="631" type="line" smooth="yes"/>
      <point x="515" y="648"/>
      <point x="541" y="640"/>
      <point x="555" y="614" type="curve" smooth="yes"/>
      <point x="571" y="584"/>
      <point x="563" y="556"/>
      <point x="537" y="550" type="curve" smooth="yes"/>
      <point x="425" y="528" type="line" smooth="yes"/>
      <point x="400" y="523"/>
      <point x="395" y="506"/>
      <point x="417" y="500" type="curve" smooth="yes"/>
      <point x="498" y="475" type="line" smooth="yes"/>
      <point x="532" y="465"/>
      <point x="530" y="433"/>
      <point x="509" y="405" type="curve" smooth="yes"/>
      <point x="491" y="381"/>
      <point x="468" y="377"/>
      <point x="445" y="404" type="curve" smooth="yes"/>
      <point x="393" y="466" type="line" smooth="yes"/>
      <point x="380" y="482"/>
      <point x="367" y="472"/>
      <point x="369" y="447" type="curve" smooth="yes"/>
      <point x="376" y="357" type="line" smooth="yes"/>
      <point x="379" y="324"/>
      <point x="356" y="315"/>
      <point x="327" y="315" type="curve" smooth="yes"/>
      <point x="285" y="315"/>
      <point x="266" y="336"/>
      <point x="282" y="366" type="curve" smooth="yes"/>
      <point x="327" y="452" type="line" smooth="yes"/>
      <point x="338" y="472"/>
      <point x="322" y="483"/>
      <point x="303" y="465" type="curve" smooth="yes"/>
      <point x="234" y="398" type="line" smooth="yes"/>
      <point x="206" y="372"/>
      <point x="179" y="383"/>
    </contour>
  </outline>
</glyph>
<glyph name="plus" format="1">
  <advance width="600"/>
  <unicode hex="002B"/>
  <outline>
    <contour>
      <point x="118" y="210" type="line"/>
      <point x="118" y="290" type="line"/>
      <point x="312" y="290" type="line"/>
      <point x="312" y="490" type="line"/>
      <point x="408" y="490" type="line"/>
      <point x="408" y="290" type="line"/>
      <point x="602" y="290" type="line"/>
      <point x="602" y="210" type="line"/>
      <point x="408" y="210" type="line"/>
      <point x="408" y="0" type="line"/>
      <point x="312" y="0" type="line"/>
      <point x="312" y="210" type="line"/>
    </contour>
  </outline>
</glyph>
<glyph name="zero" format="1">
  <advance width="560"/>
  <unicode hex="0030"/>
  <outline>
    <contour>
      <point x="232" y="133" type="curve" smooth="yes"/>
      <point x="232" y="67"/>
      <point x="258" y="34"/>
      <point x="297" y="34" type="curve" smooth="yes"/>
      <point x="360" y="34"/>
      <point x="398" y="135"/>
      <point x="430" y="251" type="curve" smooth="yes"/>
      <point x="463" y="368"/>
      <point x="478" y="491"/>
      <point x="478" y="538" type="curve" smooth="yes"/>
      <point x="478" y="591"/>
      <point x="463" y="634"/>
      <point x="417" y="634" type="curve" smooth="yes"/>
      <point x="369" y="634"/>
      <point x="329" y="568"/>
      <point x="296" y="474" type="curve" smooth="yes"/>
      <point x="263" y="379"/>
      <point x="232" y="248"/>
    </contour>
    <contour>
      <point x="92" y="218" type="curve" smooth="yes"/>
      <point x="92" y="302"/>
      <point x="109" y="401"/>
      <point x="149" y="488" type="curve" smooth="yes"/>
      <point x="201" y="599"/>
      <point x="283" y="680"/>
      <point x="407" y="680" type="curve" smooth="yes"/>
      <point x="590" y="680"/>
      <point x="618" y="543"/>
      <point x="618" y="456" type="curve" smooth="yes"/>
      <point x="618" y="388"/>
      <point x="607" y="294"/>
      <point x="565" y="193" type="curve" smooth="yes"/>
      <point x="516" y="78"/>
      <point x="447" y="-12"/>
      <point x="306" y="-12" type="curve" smooth="yes"/>
      <point x="142" y="-12"/>
      <point x="92" y="104"/>
    </contour>
  </outline>
</glyph>
<glyph name="three" format="1">
  <advance width="560"/>
  <unicode hex="0033"/>
  <outline>
    <contour>
      <point x="56" y="118" type="curve" smooth="yes"/>
      <point x="54" y="165"/>
      <point x="100" y="195"/>
      <point x="133" y="195" type="curve" smooth="yes"/>
      <point x="165" y="195"/>
      <point x="176" y="170"/>
      <point x="182" y="149" type="curve" smooth="yes"/>
      <point x="207" y="60"/>
      <point x="239" y="34"/>
      <point x="286" y="34" type="curve" smooth="yes"/>
      <point x="347" y="34"/>
      <point x="402" y="100"/>
      <point x="402" y="216" type="curve" smooth="yes"/>
      <point x="402" y="305"/>
      <point x="367" y="335"/>
      <point x="323" y="335" type="curve" smooth="yes"/>
      <point x="278" y="335"/>
      <point x="243" y="321"/>
      <point x="224" y="321" type="curve" smooth="yes"/>
      <point x="205" y="321"/>
      <point x="199" y="334"/>
      <point x="199" y="352" type="curve" smooth="yes"/>
      <point x="199" y="377"/>
      <point x="210" y="403"/>
      <point x="230" y="403" type="curve" smooth="yes"/>
      <point x="251" y="403"/>
      <point x="284" y="388"/>
      <point x="327" y="388" type="curve" smooth="yes"/>
      <point x="402" y="388"/>
      <point x="451" y="477"/>
      <point x="451" y="558" type="curve" smooth="yes"/>
      <point x="451" y="602"/>
      <point x="427" y="634"/>
      <point x="388" y="634" type="curve" smooth="yes"/>
      <point x="344" y="634"/>
      <point x="312" y="597"/>
      <point x="280" y="525" type="curve" smooth="yes"/>
      <point x="271" y="505"/>
      <point x="261" y="488"/>
      <point x="233" y="488" type="curve" smooth="yes"/>
      <point x="198" y="488"/>
      <point x="163" y="512"/>
      <point x="161" y="550" type="curve" smooth="yes"/>
      <point x="159" y="601"/>
      <point x="233" y="680"/>
      <point x="383" y="680" type="curve" smooth="yes"/>
      <point x="526" y="680"/>
      <point x="602" y="614"/>
      <point x="602" y="517" type="curve" smooth="yes"/>
      <point x="602" y="426"/>
      <point x="531" y="377"/>
      <point x="427" y="367" type="curve"/>
      <point x="427" y="363" type="line"/>
      <point x="519" y="340"/>
      <point x="562" y="276"/>
      <point x="562" y="200" type="curve" smooth="yes"/>
      <point x="562" y="128"/>
      <point x="528" y="72"/>
      <point x="477" y="37" type="curve" smooth="yes"/>
      <point x="426" y="2"/>
      <point x="357" y="-12"/>
      <point x="288" y="-12" type="curve" smooth="yes"/>
      <point x="135" y="-12"/>
      <point x="58" y="56"/>
    </contour>
  </outline>
</glyph>
<glyph name="five" format="1">
  <advance width="560"/>
  <unicode hex="0035"/>
  <outline>
    <contour>
      <point x="58" y="118" type="curve" smooth="yes"/>
      <point x="56" y="162"/>
      <point x="98" y="195"/>
      <point x="139" y="195" type="curve" smooth="yes"/>
      <point x="168" y="195"/>
      <point x="177" y="174"/>
      <point x="185" y="146" type="curve" smooth="yes"/>
      <point x="210" y="58"/>
      <point x="240" y="34"/>
      <point x="285" y="34" type="curve" smooth="yes"/>
      <point x="347" y="34"/>
      <point x="406" y="110"/>
      <point x="406" y="242" type="curve" smooth="yes"/>
      <point x="406" y="316"/>
      <point x="369" y="368"/>
      <point x="303" y="368" type="curve" smooth="yes"/>
      <point x="256" y="368"/>
      <point x="219" y="348"/>
      <point x="182" y="304" type="curve"/>
      <point x="146" y="329" type="line"/>
      <point x="213" y="657" type="line"/>
      <point x="228" y="668" type="line"/>
      <point x="621" y="668" type="line"/>
      <point x="628" y="656" type="line"/>
      <point x="567" y="552" type="line"/>
      <point x="292" y="552" type="line" smooth="yes"/>
      <point x="270" y="552"/>
      <point x="263" y="548"/>
      <point x="254" y="521" type="curve" smooth="yes"/>
      <point x="209" y="382" type="line"/>
      <point x="211" y="380" type="line"/>
      <point x="250" y="407"/>
      <point x="301" y="431"/>
      <point x="364" y="431" type="curve" smooth="yes"/>
      <point x="502" y="431"/>
      <point x="565" y="350"/>
      <point x="565" y="238" type="curve" smooth="yes"/>
      <point x="565" y="70"/>
      <point x="433" y="-12"/>
      <point x="282" y="-12" type="curve" smooth="yes"/>
      <point x="128" y="-12"/>
      <point x="60" y="57"/>
    </contour>
  </outline>
</glyph>
<glyph name="seven" format="1">
  <advance width="560"/>
  <unicode hex="0037"/>
  <outline>
    <contour>
      <point x="147" y="507" type="line"/>
      <point x="205" y="668" type="line"/>
      <point x="657" y="668" type="line"/>
      <point x="667" y="656" type="line"/>
      <point x="643" y="569"/>
      <point x="560" y="469"/>
      <point x="462" y="358" type="curve" smooth="yes"/>
      <point x="386" y="272"/>
      <point x="351" y="177"/>
      <point x="334" y="47" type="curve" smooth="yes"/>
      <point x="329" y="7"/>
      <point x="307" y="-12"/>
      <point x="257" y="-12" type="curve" smooth="yes"/>
      <point x="205" y="-12"/>
      <point x="176" y="9"/>
      <point x="176" y="47" type="curve" smooth="yes"/>
      <point x="176" y="147"/>
      <point x="280" y="251"/>
      <point x="390" y="364" type="curve" smooth="yes"/>
      <point x="468" y="444"/>
      <point x="519" y="529"/>
      <point x="527" y="552" type="curve"/>
      <point x="275" y="552" type="line" smooth="yes"/>
      <point x="226" y="552"/>
      <point x="208" y="538"/>
      <point x="194" y="515" type="curve" smooth="yes"/>
      <point x="182" y="496" type="line"/>
    </contour>
  </outline>
</glyph>
<glyph name="nine" format="1">
  <advance width="560"/>
  <unicode hex="0039"/>
  <outline>
    <contour>
      <point x="276" y="438" type="curve" smooth="yes"/>
      <point x="276" y="376"/>
      <point x="306" y="328"/>
      <point x="363" y="328" type="curve" smooth="yes"/>
      <point x="399" y="328"/>
      <point x="425" y="348"/>
      <point x="442" y="377" type="curve" smooth="yes"/>
      <point x="458" y="404"/>
      <point x="467" y="464"/>
      <point x="467" y="521" type="curve" smooth="yes"/>
      <point x="467" y="587"/>
      <point x="445" y="638"/>
      <point x="391" y="638" type="curve" smooth="yes"/>
      <point x="324" y="638"/>
      <point x="276" y="544"/>
    </contour>
    <contour>
      <point x="83" y="112" type="curve" smooth="yes"/>
      <point x="82" y="151"/>
      <point x="119" y="181"/>
      <point x="159" y="181" type="curve" smooth="yes"/>
      <point x="187" y="181"/>
      <point x="198" y="159"/>
      <point x="205" y="133" type="curve" smooth="yes"/>
      <point x="223" y="60"/>
      <point x="249" y="36"/>
      <point x="286" y="36" type="curve" smooth="yes"/>
      <point x="329" y="36"/>
      <point x="369" y="83"/>
      <point x="399" y="154" type="curve" smooth="yes"/>
      <point x="423" y="210"/>
      <point x="438" y="285"/>
      <point x="448" y="321" type="curve"/>
      <point x="446" y="322" type="line"/>
      <point x="412" y="285"/>
      <point x="369" y="256"/>
      <point x="310" y="256" type="curve" smooth="yes"/>
      <point x="211" y="256"/>
      <point x="130" y="324"/>
      <point x="130" y="430" type="curve" smooth="yes"/>
      <point x="130" y="495"/>
      <point x="152" y="560"/>
      <point x="196" y="606" type="curve" smooth="yes"/>
      <point x="239" y="649"/>
      <point x="298" y="680"/>
      <point x="381" y="680" type="curve" smooth="yes"/>
      <point x="545" y="680"/>
      <point x="605" y="580"/>
      <point x="605" y="434" type="curve" smooth="yes"/>
      <point x="605" y="355"/>
      <point x="585" y="237"/>
      <point x="535" y="139" type="curve" smooth="yes"/>
      <point x="487" y="44"/>
      <point x="419" y="-12"/>
      <point x="290" y="-12" type="curve" smooth="yes"/>
      <point x="163" y="-12"/>
      <point x="85" y="52"/>
    </contour>
  </outline>
</glyph>
<glyph name="semicolon" format="1">
  <advance width="280"/>
  <unicode hex="003B"/>
  <outline>
    <contour>
      <point x="26" y="-138" type="line"/>
      <point x="65" y="-100"/>
      <point x="105" y="-51"/>
      <point x="105" y="1" type="curve" smooth="yes"/>
      <point x="105" y="20"/>
      <point x="98" y="39"/>
      <point x="93" y="50" type="curve" smooth="yes"/>
      <point x="85" y="67"/>
      <point x="80" y="79"/>
      <point x="80" y="99" type="curve" smooth="yes"/>
      <point x="80" y="145"/>
      <point x="116" y="180"/>
      <point x="162" y="180" type="curve" smooth="yes"/>
      <point x="216" y="181"/>
      <point x="242" y="139"/>
      <point x="242" y="91" type="curve" smooth="yes"/>
      <point x="242" y="-19"/>
      <point x="132" y="-109"/>
      <point x="52" y="-167" type="curve"/>
    </contour>
    <contour>
      <point x="135" y="391" type="curve" smooth="yes"/>
      <point x="135" y="452"/>
      <point x="178" y="490"/>
      <point x="231" y="490" type="curve" smooth="yes"/>
      <point x="289" y="490"/>
      <point x="315" y="453"/>
      <point x="315" y="412" type="curve" smooth="yes"/>
      <point x="315" y="351"/>
      <point x="273" y="312"/>
      <point x="222" y="312" type="curve" smooth="yes"/>
      <point x="162" y="312"/>
      <point x="135" y="348"/>
    </contour>
  </outline>
</glyph>
<glyph name="equal" format="1">
  <advance width="600"/>
  <unicode hex="003D"/>
  <outline>
    <contour>
      <point x="118" y="317" type="line"/>
      <point x="118" y="397" type="line"/>
      <point x="602" y="397" type="line"/>
      <point x="602" y="317" type="line"/>
    </contour>
    <contour>
      <point x="118" y="103" type="line"/>
      <point x="118" y="183" type="line"/>
      <point x="602" y="183" type="line"/>
      <point x="602" y="103" type="line"/>
    </contour>
  </outline>
</glyph>
<glyph name="question" format="1">
  <advance width="454"/>
  <unicode hex="003F"/>
  <outline>
    <contour>
      <point x="150" y="67" type="curve" smooth="yes"/>
      <point x="150" y="128"/>
      <point x="193" y="166"/>
      <point x="246" y="166" type="curve" smooth="yes"/>
      <point x="304" y="166"/>
      <point x="330" y="129"/>
      <point x="330" y="88" type="curve" smooth="yes"/>
      <point x="330" y="27"/>
      <point x="288" y="-12"/>
      <point x="237" y="-12" type="curve" smooth="yes"/>
      <point x="177" y="-12"/>
      <point x="150" y="24"/>
    </contour>
    <contour>
      <point x="153" y="585" type="curve" smooth="yes"/>
      <point x="153" y="634"/>
      <point x="215" y="707"/>
      <point x="355" y="707" type="curve" smooth="yes"/>
      <point x="487" y="707"/>
      <point x="550" y="655"/>
      <point x="550" y="573" type="curve" smooth="yes"/>
      <point x="550" y="496"/>
      <point x="489" y="455"/>
      <point x="412" y="425" type="curve" smooth="yes"/>
      <point x="351" y="402"/>
      <point x="306" y="373"/>
      <point x="306" y="329" type="curve" smooth="yes"/>
      <point x="306" y="299"/>
      <point x="334" y="284"/>
      <point x="355" y="282" type="curve" smooth="yes"/>
      <point x="373" y="280"/>
      <point x="386" y="280"/>
      <point x="398" y="282" type="curve"/>
      <point x="405" y="253" type="line"/>
      <point x="371" y="230"/>
      <point x="318" y="218"/>
      <point x="278" y="218" type="curve" smooth="yes"/>
      <point x="210" y="218"/>
      <point x="162" y="256"/>
      <point x="162" y="313" type="curve" smooth="yes"/>
      <point x="162" y="364"/>
      <point x="202" y="401"/>
      <point x="269" y="437" type="curve" smooth="yes"/>
      <point x="353" y="482"/>
      <point x="401" y="541"/>
      <point x="401" y="615" type="curve" smooth="yes"/>
      <point x="401" y="639"/>
      <point x="391" y="661"/>
      <point x="367" y="661" type="curve" smooth="yes"/>
      <point x="338" y="661"/>
      <point x="309" y="627"/>
      <point x="278" y="556" type="curve" smooth="yes"/>
      <point x="269" y="535"/>
      <point x="255" y="522"/>
      <point x="229" y="522" type="curve" smooth="yes"/>
      <point x="200" y="522"/>
      <point x="153" y="539"/>
    </contour>
  </outline>
</glyph>
<glyph name="F" format="1">
  <advance width="585"/>
  <unicode hex="0046"/>
  <outline>
    <contour>
      <point x="40" y="0" type="line"/>
      <point x="49" y="38" type="line"/>
      <point x="94" y="42" type="line" smooth="yes"/>
      <point x="123" y="44"/>
      <point x="130" y="62"/>
      <point x="138" y="98" type="curve" smooth="yes"/>
      <point x="249" y="594" type="line" smooth="yes"/>
      <point x="257" y="630"/>
      <point x="258" y="647"/>
      <point x="230" y="649" type="curve" smooth="yes"/>
      <point x="179" y="654" type="line"/>
      <point x="189" y="692" type="line"/>
      <point x="718" y="692" type="line"/>
      <point x="678" y="509" type="line"/>
      <point x="640" y="509" type="line"/>
      <point x="635" y="562" type="line" smooth="yes"/>
      <point x="631" y="612"/>
      <point x="609" y="646"/>
      <point x="521" y="646" type="curve" smooth="yes"/>
      <point x="447" y="646" type="line" smooth="yes"/>
      <point x="422" y="646"/>
      <point x="413" y="639"/>
      <point x="408" y="617" type="curve" smooth="yes"/>
      <point x="353" y="368" type="line"/>
      <point x="466" y="368" type="line" smooth="yes"/>
      <point x="529" y="368"/>
      <point x="546" y="386"/>
      <point x="578" y="459" type="curve"/>
      <point x="616" y="459" type="line"/>
      <point x="566" y="229" type="line"/>
      <point x="528" y="229" type="line"/>
      <point x="531" y="292"/>
      <point x="520" y="320"/>
      <point x="456" y="320" type="curve" smooth="yes"/>
      <point x="341" y="320" type="line"/>
      <point x="290" y="95" type="line" smooth="yes"/>
      <point x="282" y="59"/>
      <point x="287" y="45"/>
      <point x="319" y="42" type="curve" smooth="yes"/>
      <point x="374" y="38" type="line"/>
      <point x="366" y="0" type="line"/>
    </contour>
  </outline>
</glyph>
<glyph name="T" format="1">
  <advance width="616"/>
  <unicode hex="0054"/>
  <outline>
    <contour>
      <point x="126" y="501" type="line"/>
      <point x="169" y="692" type="line"/>
      <point x="757" y="692" type="line"/>
      <point x="714" y="501" type="line"/>
      <point x="676" y="501" type="line"/>
      <point x="673" y="562" type="line" smooth="yes"/>
      <point x="670" y="614"/>
      <point x="646" y="646"/>
      <point x="580" y="646" type="curve" smooth="yes"/>
      <point x="532" y="646" type="line"/>
      <point x="408" y="98" type="line" smooth="yes"/>
      <point x="400" y="62"/>
      <point x="399" y="45"/>
      <point x="427" y="43" type="curve" smooth="yes"/>
      <point x="491" y="38" type="line"/>
      <point x="482" y="0" type="line"/>
      <point x="142" y="0" type="line"/>
      <point x="151" y="38" type="line"/>
      <point x="210" y="42" type="line" smooth="yes"/>
      <point x="239" y="44"/>
      <point x="246" y="62"/>
      <point x="254" y="98" type="curve" smooth="yes"/>
      <point x="378" y="646" type="line"/>
      <point x="326" y="646" type="line" smooth="yes"/>
      <point x="260" y="646"/>
      <point x="222" y="615"/>
      <point x="195" y="562" type="curve" smooth="yes"/>
      <point x="164" y="501" type="line"/>
    </contour>
  </outline>
</glyph>
<glyph name="V" format="1">
  <advance width="630"/>
  <unicode hex="0056"/>
  <outline>
    <contour>
      <point x="127" y="654" type="line"/>
      <point x="134" y="692" type="line"/>
      <point x="426" y="692" type="line"/>
      <point x="419" y="654" type="line"/>
      <point x="359" y="648" type="line" smooth="yes"/>
      <point x="340" y="646"/>
      <point x="338" y="633"/>
      <point x="340" y="617" type="curve" smooth="yes"/>
      <point x="342" y="597"/>
      <point x="362" y="399"/>
      <point x="364" y="377" type="curve" smooth="yes"/>
      <point x="390" y="136" type="line"/>
      <point x="392" y="136" type="line"/>
      <point x="424" y="190"/>
      <point x="487" y="309"/>
      <point x="515" y="361" type="curve" smooth="yes"/>
      <point x="571" y="467"/>
      <point x="618" y="557"/>
      <point x="645" y="616" type="curve" smooth="yes"/>
      <point x="654" y="636"/>
      <point x="651" y="648"/>
      <point x="632" y="650" type="curve" smooth="yes"/>
      <point x="576" y="654" type="line"/>
      <point x="584" y="692" type="line"/>
      <point x="818" y="692" type="line"/>
      <point x="811" y="654" type="line"/>
      <point x="774" y="650" type="line" smooth="yes"/>
      <point x="751" y="647"/>
      <point x="737" y="628"/>
      <point x="717" y="598" type="curve" smooth="yes"/>
      <point x="677" y="538"/>
      <point x="622" y="439"/>
      <point x="563" y="333" type="curve" smooth="yes"/>
      <point x="379" y="0" type="line"/>
      <point x="259" y="0" type="line"/>
      <point x="226" y="310" type="line" smooth="yes"/>
      <point x="213" y="438"/>
      <point x="199" y="539"/>
      <point x="191" y="604" type="curve" smooth="yes"/>
      <point x="187" y="634"/>
      <point x="180" y="647"/>
      <point x="161" y="650" type="curve" smooth="yes"/>
    </contour>
  </outline>
</glyph>
<glyph name="asciicircum" format="1">
  <advance width="600"/>
  <unicode hex="005E"/>
  <outline>
    <contour>
      <point x="114" y="215" type="line"/>
      <point x="311" y="668" type="line"/>
      <point x="410" y="668" type="line"/>
      <point x="602" y="215" type="line"/>
      <point x="498" y="215" type="line"/>
      <point x="360" y="556" type="line"/>
      <point x="218" y="215" type="line"/>
    </contour>
  </outline>
</glyph>
<glyph name="grave" format="1">
  <advance width="400"/>
  <unicode hex="0060"/>
  <outline>
    <contour>
      <point x="144" y="680" type="curve" smooth="yes"/>
      <point x="144" y="705"/>
      <point x="173" y="740"/>
      <point x="197" y="740" type="curve" smooth="yes"/>
      <point x="217" y="740"/>
      <point x="234" y="728"/>
      <point x="271" y="690" type="curve" smooth="yes"/>
      <point x="416" y="541" type="line"/>
      <point x="395" y="511" type="line"/>
      <point x="212" y="614" type="line" smooth="yes"/>
      <point x="176" y="634"/>
      <point x="144" y="654"/>
    </contour>
  </outline>
</glyph>
<glyph name="i" format="1">
  <advance width="339"/>
  <unicode hex="0069"/>
  <outline>
    <contour>
      <point x="108" y="107" type="curve" smooth="yes"/>
      <point x="185" y="392" type="line" smooth="yes"/>
      <point x="192" y="419"/>
      <point x="188" y="432"/>
      <point x="168" y="434" type="curve" smooth="yes"/>
      <point x="110" y="440" type="line"/>
      <point x="118" y="473" type="line"/>
      <point x="348" y="502" type="line"/>
      <point x="354" y="496" type="line"/>
      <point x="251" y="115" type="line" smooth="yes"/>
      <point x="244" y="89"/>
      <point x="243" y="68"/>
      <point x="262" y="68" type="curve" smooth="yes"/>
      <point x="285" y="68"/>
      <point x="323" y="121"/>
      <point x="348" y="166" type="curve"/>
      <point x="378" y="149" type="line"/>
      <point x="336" y="65"/>
      <point x="275" y="-12"/>
      <point x="178" y="-12" type="curve" smooth="yes"/>
      <point x="111" y="-12"/>
      <point x="87" y="30"/>
    </contour>
    <contour>
      <point x="225" y="632" type="curve" smooth="yes"/>
      <point x="225" y="675"/>
      <point x="253" y="720"/>
      <point x="312" y="720" type="curve" smooth="yes"/>
      <point x="356" y="720"/>
      <point x="392" y="696"/>
      <point x="392" y="647" type="curve" smooth="yes"/>
      <point x="392" y="592"/>
      <point x="357" y="559"/>
      <point x="306" y="559" type="curve" smooth="yes"/>
      <point x="258" y="559"/>
      <point x="225" y="587"/>
    </contour>
  </outline>
</glyph>
<glyph name="q" format="1">
  <advance width="584"/>
  <unicode hex="0071"/>
  <outline>
    <contour>
      <point x="218" y="122" type="curve" smooth="yes"/>
      <point x="218" y="95"/>
      <point x="224" y="68"/>
      <point x="252" y="68" type="curve" smooth="yes"/>
      <point x="281" y="68"/>
      <point x="311" y="92"/>
      <point x="360" y="161" type="curve" smooth="yes"/>
      <point x="412" y="234"/>
      <point x="458" y="335"/>
      <point x="483" y="442" type="curve"/>
      <point x="469" y="451"/>
      <point x="450" y="456"/>
      <point x="431" y="456" type="curve" smooth="yes"/>
      <point x="295" y="456"/>
      <point x="218" y="217"/>
    </contour>
    <contour>
      <point x="64" y="98" type="curve" smooth="yes"/>
      <point x="60" y="237"/>
      <point x="162" y="502"/>
      <point x="419" y="502" type="curve" smooth="yes"/>
      <point x="474" y="502"/>
      <point x="515" y="491"/>
      <point x="543" y="479" type="curve"/>
      <point x="583" y="513" type="line"/>
      <point x="639" y="513" type="line"/>
      <point x="465" y="-221" type="line"/>
      <point x="320" y="-242" type="line"/>
      <point x="418" y="190" type="line"/>
      <point x="415" y="190" type="line"/>
      <point x="340" y="64"/>
      <point x="259" y="-12"/>
      <point x="171" y="-12" type="curve" smooth="yes"/>
      <point x="115" y="-12"/>
      <point x="67" y="21"/>
    </contour>
  </outline>
</glyph>
<glyph name="s" format="1">
  <advance width="417"/>
  <unicode hex="0073"/>
  <outline>
    <contour>
      <point x="45" y="89" type="curve" smooth="yes"/>
      <point x="45" y="126"/>
      <point x="81" y="158"/>
      <point x="111" y="158" type="curve" smooth="yes"/>
      <point x="134" y="158"/>
      <point x="147" y="144"/>
      <point x="155" y="128" type="curve" smooth="yes"/>
      <point x="192" y="54"/>
      <point x="220" y="34"/>
      <point x="251" y="34" type="curve" smooth="yes"/>
      <point x="281" y="34"/>
      <point x="303" y="55"/>
      <point x="303" y="86" type="curve" smooth="yes"/>
      <point x="300" y="131"/>
      <point x="259" y="168"/>
      <point x="217" y="202" type="curve" smooth="yes"/>
      <point x="175" y="236"/>
      <point x="130" y="281"/>
      <point x="127" y="340" type="curve" smooth="yes"/>
      <point x="123" y="424"/>
      <point x="188" y="502"/>
      <point x="309" y="502" type="curve" smooth="yes"/>
      <point x="422" y="502"/>
      <point x="467" y="448"/>
      <point x="467" y="415" type="curve" smooth="yes"/>
      <point x="467" y="375"/>
      <point x="428" y="356"/>
      <point x="401" y="356" type="curve" smooth="yes"/>
      <point x="383" y="356"/>
      <point x="372" y="362"/>
      <point x="362" y="382" type="curve" smooth="yes"/>
      <point x="334" y="436"/>
      <point x="314" y="456"/>
      <point x="288" y="456" type="curve" smooth="yes"/>
      <point x="262" y="456"/>
      <point x="240" y="435"/>
      <point x="241" y="404" type="curve" smooth="yes"/>
      <point x="243" y="366"/>
      <point x="270" y="337"/>
      <point x="326" y="295" type="curve" smooth="yes"/>
      <point x="371" y="261"/>
      <point x="417" y="211"/>
      <point x="417" y="145" type="curve" smooth="yes"/>
      <point x="417" y="62"/>
      <point x="362" y="-12"/>
      <point x="225" y="-12" type="curve" smooth="yes"/>
      <point x="100" y="-12"/>
      <point x="45" y="45"/>
    </contour>
  </outline>
</glyph>
<glyph name="w" format="1">
  <advance width="795"/>
  <unicode hex="0077"/>
  <outline>
    <contour>
      <point x="105" y="443" type="line"/>
      <point x="112" y="476" type="line"/>
      <point x="339" y="502" type="line"/>
      <point x="344" y="497" type="line"/>
      <point x="259" y="140" type="line" smooth="yes"/>
      <point x="246" y="86"/>
      <point x="261" y="68"/>
      <point x="284" y="68" type="curve" smooth="yes"/>
      <point x="307" y="68"/>
      <point x="336" y="94"/>
      <point x="376" y="159" type="curve" smooth="yes"/>
      <point x="430" y="249"/>
      <point x="462" y="361"/>
      <point x="494" y="487" type="curve"/>
      <point x="630" y="493" type="line"/>
      <point x="561" y="185" type="line" smooth="yes"/>
      <point x="543" y="106"/>
      <point x="550" y="68"/>
      <point x="592" y="68" type="curve" smooth="yes"/>
      <point x="656" y="68"/>
      <point x="735" y="216"/>
      <point x="741" y="355" type="curve" smooth="yes"/>
      <point x="741" y="404"/>
      <point x="737" y="442"/>
      <point x="727" y="481" type="curve"/>
      <point x="764" y="494"/>
      <point x="795" y="502"/>
      <point x="830" y="502" type="curve" smooth="yes"/>
      <point x="838" y="502"/>
      <point x="861" y="466"/>
      <point x="861" y="425" type="curve" smooth="yes"/>
      <point x="860" y="365"/>
      <point x="818" y="256"/>
      <point x="747" y="158" type="curve" smooth="yes"/>
      <point x="680" y="66"/>
      <point x="602" y="-12"/>
      <point x="512" y="-12" type="curve" smooth="yes"/>
      <point x="448" y="-12"/>
      <point x="422" y="29"/>
      <point x="422" y="81" type="curve" smooth="yes"/>
      <point x="422" y="117"/>
      <point x="430" y="156"/>
      <point x="439" y="195" type="curve"/>
      <point x="435" y="195" type="line"/>
      <point x="372" y="74"/>
      <point x="286" y="-12"/>
      <point x="193" y="-12" type="curve" smooth="yes"/>
      <point x="134" y="-12"/>
      <point x="93" y="33"/>
      <point x="116" y="128" type="curve" smooth="yes"/>
      <point x="179" y="391" type="line" smooth="yes"/>
      <point x="186" y="422"/>
      <point x="182" y="435"/>
      <point x="164" y="437" type="curve" smooth="yes"/>
    </contour>
  </outline>
</glyph>
<glyph name="asciitilde" format="1">
  <advance width="600"/>
  <unicode hex="007E"/>
  <outline>
    <contour>
      <point x="105" y="185" type="line"/>
      <point x="129" y="242"/>
      <point x="168" y="323"/>
      <point x="260" y="323" type="curve" smooth="yes"/>
      <point x="296" y="323"/>
      <point x="332" y="309"/>
      <point x="366" y="295" type="curve" smooth="yes"/>
      <point x="400" y="280"/>
      <point x="434" y="266"/>
      <point x="465" y="266" type="curve" smooth="yes"/>
      <point x="500" y="266"/>
      <point x="523" y="284"/>
      <point x="552" y="338" type="curve"/>
      <point x="606" y="310" type="line"/>
      <point x="578" y="244"/>
      <point x="537" y="177"/>
      <point x="450" y="177" type="curve" smooth="yes"/>
      <point x="407" y="177"/>
      <point x="373" y="191"/>
      <point x="342" y="206" type="curve" smooth="yes"/>
      <point x="310" y="220"/>
      <point x="281" y="234"/>
      <point x="244" y="234" type="curve" smooth="yes"/>
      <point x="210" y="234"/>
      <point x="185" y="208"/>
      <point x="161" y="157" type="curve"/>
    </contour>
  </outline>
</glyph>
<glyph name="cent" format="1">
  <advance width="560"/>
  <unicode hex="00A2"/>
  <outline>
    <contour>
      <point x="260" y="269" type="curve" smooth="yes"/>
      <point x="259" y="214"/>
      <point x="272" y="163"/>
      <point x="325" y="149" type="curve"/>
      <point x="418" y="553" type="line"/>
      <point x="322" y="554"/>
      <point x="262" y="366"/>
    </contour>
    <contour>
      <point x="115" y="280" type="curve" smooth="yes"/>
      <point x="115" y="339"/>
      <point x="134" y="418"/>
      <point x="183" y="484" type="curve" smooth="yes"/>
      <point x="233" y="551"/>
      <point x="316" y="598"/>
      <point x="428" y="599" type="curve"/>
      <point x="443" y="668" type="line"/>
      <point x="497" y="668" type="line"/>
      <point x="482" y="597" type="line"/>
      <point x="547" y="597"/>
      <point x="647" y="555"/>
      <point x="646" y="490" type="curve" smooth="yes"/>
      <point x="645" y="450"/>
      <point x="603" y="431"/>
      <point x="572" y="432" type="curve" smooth="yes"/>
      <point x="546" y="432"/>
      <point x="537" y="449"/>
      <point x="532" y="467" type="curve" smooth="yes"/>
      <point x="513" y="530"/>
      <point x="490" y="554"/>
      <point x="471" y="553" type="curve"/>
      <point x="379" y="140" type="line"/>
      <point x="439" y="136"/>
      <point x="503" y="160"/>
      <point x="558" y="234" type="curve"/>
      <point x="586" y="212" type="line"/>
      <point x="536" y="125"/>
      <point x="452" y="88"/>
      <point x="367" y="87" type="curve"/>
      <point x="342" y="-21" type="line"/>
      <point x="287" y="-21" type="line"/>
      <point x="312" y="87" type="line"/>
      <point x="215" y="90"/>
      <point x="115" y="139"/>
    </contour>
  </outline>
</glyph>
<glyph name="sterling" format="1">
  <advance width="560"/>
  <unicode hex="00A3"/>
  <outline>
    <contour>
      <point x="31" y="9" type="line"/>
      <point x="61" y="72" type="line"/>
      <point x="149" y="93"/>
      <point x="228" y="137"/>
      <point x="234" y="207" type="curve" smooth="yes"/>
      <point x="237" y="233"/>
      <point x="235" y="258"/>
      <point x="226" y="290" type="curve"/>
      <point x="104" y="290" type="line"/>
      <point x="115" y="338" type="line"/>
      <point x="215" y="338" type="line"/>
      <point x="203" y="372"/>
      <point x="195" y="419"/>
      <point x="195" y="462" type="curve" smooth="yes"/>
      <point x="195" y="562"/>
      <point x="264" y="679"/>
      <point x="427" y="679" type="curve" smooth="yes"/>
      <point x="581" y="679"/>
      <point x="618" y="598"/>
      <point x="618" y="563" type="curve" smooth="yes"/>
      <point x="617" y="520"/>
      <point x="571" y="504"/>
      <point x="544" y="504" type="curve" smooth="yes"/>
      <point x="517" y="504"/>
      <point x="504" y="517"/>
      <point x="497" y="538" type="curve" smooth="yes"/>
      <point x="473" y="603"/>
      <point x="448" y="633"/>
      <point x="411" y="633" type="curve" smooth="yes"/>
      <point x="370" y="633"/>
      <point x="335" y="596"/>
      <point x="333" y="530" type="curve" smooth="yes"/>
      <point x="333" y="503"/>
      <point x="335" y="473"/>
      <point x="344" y="434" type="curve" smooth="yes"/>
      <point x="351" y="400"/>
      <point x="362" y="366"/>
      <point x="370" y="338" type="curve"/>
      <point x="516" y="338" type="line"/>
      <point x="507" y="290" type="line"/>
      <point x="375" y="290" type="line"/>
      <point x="376" y="270"/>
      <point x="375" y="256"/>
      <point x="371" y="238" type="curve" smooth="yes"/>
      <point x="361" y="187"/>
      <point x="312" y="140"/>
      <point x="258" y="116" type="curve"/>
      <point x="257" y="113" type="line"/>
      <point x="441" y="113" type="line" smooth="yes"/>
      <point x="477" y="113"/>
      <point x="502" y="123"/>
      <point x="519" y="143" type="curve" smooth="yes"/>
      <point x="539" y="168" type="line"/>
      <point x="572" y="151" type="line"/>
      <point x="502" y="0" type="line"/>
      <point x="41" y="0" type="line"/>
    </contour>
  </outline>
</glyph>
<glyph name="currency" format="1">
  <advance width="560"/>
  <unicode hex="00A4"/>
  <outline>
    <contour>
      <point x="222" y="334" type="curve" smooth="yes"/>
      <point x="222" y="251"/>
      <point x="279" y="187"/>
      <point x="354" y="187" type="curve" smooth="yes"/>
      <point x="429" y="187"/>
      <point x="486" y="251"/>
      <point x="486" y="334" type="curve" smooth="yes"/>
      <point x="486" y="417"/>
      <point x="429" y="481"/>
      <point x="354" y="481" type="curve" smooth="yes"/>
      <point x="279" y="481"/>
      <point x="222" y="417"/>
    </contour>
    <contour>
      <point x="114" y="88" type="curve" smooth="yes"/>
      <point x="85" y="116"/>
      <point x="93" y="144"/>
      <point x="114" y="161" type="curve" smooth="yes"/>
      <point x="163" y="200" type="line"/>
      <point x="135" y="232"/>
      <point x="120" y="285"/>
      <point x="120" y="334" type="curve" smooth="yes"/>
      <point x="120" y="383"/>
      <point x="135" y="436"/>
      <point x="163" y="468" type="curve"/>
      <point x="114" y="507" type="line" smooth="yes"/>
      <point x="93" y="524"/>
      <point x="85" y="552"/>
      <point x="114" y="580" type="curve" smooth="yes"/>
      <point x="138" y="604"/>
      <point x="171" y="598"/>
      <point x="186" y="578" type="curve" smooth="yes"/>
      <point x="224" y="529" type="line"/>
      <point x="257" y="557"/>
      <point x="310" y="570"/>
      <point x="354" y="570" type="curve" smooth="yes"/>
      <point x="398" y="570"/>
      <point x="451" y="557"/>
      <point x="484" y="529" type="curve"/>
      <point x="522" y="578" type="line" smooth="yes"/>
      <point x="537" y="598"/>
      <point x="570" y="604"/>
      <point x="594" y="580" type="curve" smooth="yes"/>
      <point x="623" y="552"/>
      <point x="615" y="524"/>
      <point x="594" y="507" type="curve" smooth="yes"/>
      <point x="545" y="468" type="line"/>
      <point x="573" y="436"/>
      <point x="588" y="383"/>
      <point x="588" y="334" type="curve" smooth="yes"/>
      <point x="588" y="285"/>
      <point x="573" y="232"/>
      <point x="545" y="200" type="curve"/>
      <point x="594" y="161" type="line" smooth="yes"/>
      <point x="615" y="144"/>
      <point x="623" y="116"/>
      <point x="594" y="88" type="curve" smooth="yes"/>
      <point x="570" y="64"/>
      <point x="537" y="70"/>
      <point x="522" y="90" type="curve" smooth="yes"/>
      <point x="484" y="139" type="line"/>
      <point x="451" y="111"/>
      <point x="398" y="98"/>
      <point x="354" y="98" type="curve" smooth="yes"/>
      <point x="310" y="98"/>
      <point x="257" y="111"/>
      <point x="224" y="139" type="curve"/>
      <point x="186" y="90" type="line" smooth="yes"/>
      <point x="171" y="70"/>
      <point x="138" y="64"/>
    </contour>
  </outline>
</glyph>
<glyph name="dieresis" format="1">
  <advance width="400"/>
  <unicode hex="00A8"/>
  <outline>
    <contour>
      <point x="141" y="635" type="curve" smooth="yes"/>
      <point x="141" y="673"/>
      <point x="169" y="710"/>
      <point x="220" y="710" type="curve" smooth="yes"/>
      <point x="272" y="710"/>
      <point x="299" y="673"/>
      <point x="299" y="635" type="curve" smooth="yes"/>
      <point x="299" y="597"/>
      <point x="272" y="561"/>
      <point x="220" y="561" type="curve" smooth="yes"/>
      <point x="169" y="561"/>
      <point x="141" y="597"/>
    </contour>
    <contour>
      <point x="381" y="635" type="curve" smooth="yes"/>
      <point x="381" y="673"/>
      <point x="409" y="710"/>
      <point x="460" y="710" type="curve" smooth="yes"/>
      <point x="512" y="710"/>
      <point x="539" y="673"/>
      <point x="539" y="635" type="curve" smooth="yes"/>
      <point x="539" y="597"/>
      <point x="512" y="561"/>
      <point x="460" y="561" type="curve" smooth="yes"/>
      <point x="409" y="561"/>
      <point x="381" y="597"/>
    </contour>
  </outline>
</glyph>
<glyph name="copyright" format="1">
  <advance width="824"/>
  <unicode hex="00A9"/>
  <outline>
    <contour>
      <point x="297" y="348" type="curve" smooth="yes"/>
      <point x="297" y="458"/>
      <point x="360" y="548"/>
      <point x="510" y="548" type="curve" smooth="yes"/>
      <point x="565" y="548"/>
      <point x="616" y="538"/>
      <point x="648" y="519" type="curve"/>
      <point x="648" y="415" type="line"/>
      <point x="621" y="415" type="line"/>
      <point x="606" y="462"/>
      <point x="577" y="516"/>
      <point x="517" y="516" type="curve" smooth="yes"/>
      <point x="448" y="516"/>
      <point x="417" y="443"/>
      <point x="417" y="354" type="curve" smooth="yes"/>
      <point x="417" y="262"/>
      <point x="446" y="183"/>
      <point x="523" y="183" type="curve" smooth="yes"/>
      <point x="580" y="183"/>
      <point x="609" y="238"/>
      <point x="631" y="290" type="curve"/>
      <point x="658" y="290" type="line"/>
      <point x="647" y="182" type="line"/>
      <point x="615" y="162"/>
      <point x="561" y="151"/>
      <point x="509" y="151" type="curve" smooth="yes"/>
      <point x="353" y="151"/>
      <point x="297" y="236"/>
    </contour>
    <contour>
      <point x="209" y="346" type="curve" smooth="yes"/>
      <point x="209" y="178"/>
      <point x="335" y="48"/>
      <point x="490" y="48" type="curve" smooth="yes"/>
      <point x="645" y="48"/>
      <point x="771" y="178"/>
      <point x="771" y="346" type="curve" smooth="yes"/>
      <point x="771" y="514"/>
      <point x="645" y="644"/>
      <point x="490" y="644" type="curve" smooth="yes"/>
      <point x="335" y="644"/>
      <point x="209" y="514"/>
    </contour>
    <contour>
      <point x="126" y="346" type="curve" smooth="yes"/>
      <point x="126" y="546"/>
      <point x="289" y="707"/>
      <point x="490" y="707" type="curve" smooth="yes"/>
      <point x="691" y="707"/>
      <point x="854" y="546"/>
      <point x="854" y="346" type="curve" smooth="yes"/>
      <point x="854" y="146"/>
      <point x="691" y="-15"/>
      <point x="490" y="-15" type="curve" smooth="yes"/>
      <point x="289" y="-15"/>
      <point x="126" y="146"/>
    </contour>
  </outline>
</glyph>
<glyph name="ordfeminine" format="1">
  <advance width="444"/>
  <unicode hex="00AA"/>
  <outline>
    <contour>
      <point x="207" y="350" type="curve" smooth="yes"/>
      <point x="207" y="332"/>
      <point x="214" y="323"/>
      <point x="225" y="323" type="curve" smooth="yes"/>
      <point x="243" y="323"/>
      <point x="265" y="346"/>
      <point x="293" y="381" type="curve" smooth="yes"/>
      <point x="335" y="436"/>
      <point x="354" y="507"/>
      <point x="367" y="547" type="curve"/>
      <point x="358" y="554"/>
      <point x="347" y="556"/>
      <point x="336" y="556" type="curve" smooth="yes"/>
      <point x="269" y="556"/>
      <point x="207" y="412"/>
    </contour>
    <contour>
      <point x="97" y="341" type="curve" smooth="yes"/>
      <point x="97" y="424"/>
      <point x="172" y="590"/>
      <point x="338" y="590" type="curve" smooth="yes"/>
      <point x="357" y="590"/>
      <point x="378" y="586"/>
      <point x="391" y="579" type="curve"/>
      <point x="393" y="585" type="line"/>
      <point x="497" y="585" type="line"/>
      <point x="431" y="353" type="line" smooth="yes"/>
      <point x="427" y="338"/>
      <point x="425" y="323"/>
      <point x="436" y="323" type="curve" smooth="yes"/>
      <point x="451" y="323"/>
      <point x="478" y="358"/>
      <point x="495" y="385" type="curve"/>
      <point x="517" y="373" type="line"/>
      <point x="488" y="317"/>
      <point x="446" y="265"/>
      <point x="372" y="265" type="curve" smooth="yes"/>
      <point x="336" y="265"/>
      <point x="315" y="291"/>
      <point x="332" y="348" type="curve" smooth="yes"/>
      <point x="347" y="397" type="line"/>
      <point x="343" y="398" type="line"/>
      <point x="305" y="343"/>
      <point x="257" y="265"/>
      <point x="168" y="265" type="curve" smooth="yes"/>
      <point x="122" y="265"/>
      <point x="97" y="298"/>
    </contour>
  </outline>
</glyph>
<glyph name="guillemotleft" format="1">
  <advance width="560"/>
  <unicode hex="00AB"/>
  <outline>
    <contour>
      <point x="132" y="231" type="line" smooth="yes"/>
      <point x="121" y="246"/>
      <point x="124" y="256"/>
      <point x="139" y="270" type="curve" smooth="yes"/>
      <point x="344" y="464" type="line"/>
      <point x="368" y="443" type="line"/>
      <point x="258" y="272" type="line" smooth="yes"/>
      <point x="249" y="257"/>
      <point x="246" y="246"/>
      <point x="250" y="232" type="curve" smooth="yes"/>
      <point x="297" y="54" type="line"/>
      <point x="269" y="37" type="line"/>
    </contour>
    <contour>
      <point x="332" y="231" type="line" smooth="yes"/>
      <point x="321" y="246"/>
      <point x="324" y="256"/>
      <point x="339" y="270" type="curve" smooth="yes"/>
      <point x="544" y="464" type="line"/>
      <point x="568" y="443" type="line"/>
      <point x="458" y="272" type="line" smooth="yes"/>
      <point x="449" y="257"/>
      <point x="446" y="246"/>
      <point x="450" y="232" type="curve" smooth="yes"/>
      <point x="497" y="54" type="line"/>
      <point x="469" y="37" type="line"/>
    </contour>
  </outline>
</glyph>
<glyph name="registered" format="1">
  <advance width="824"/>
  <unicode hex="00AE"/>
  <outline>
    <contour>
      <point x="457" y="363" type="line"/>
      <point x="481" y="363" type="line" smooth="yes"/>
      <point x="506" y="363"/>
      <point x="521" y="370"/>
      <point x="531" y="382" type="curve" smooth="yes"/>
      <point x="541" y="395"/>
      <point x="546" y="413"/>
      <point x="546" y="437" type="curve" smooth="yes"/>
      <point x="546" y="488"/>
      <point x="519" y="508"/>
      <point x="488" y="508" type="curve" smooth="yes"/>
      <point x="461" y="508"/>
      <point x="457" y="503"/>
      <point x="457" y="488" type="curve" smooth="yes"/>
    </contour>
    <contour>
      <point x="311" y="159" type="line"/>
      <point x="311" y="185" type="line"/>
      <point x="338" y="189" type="line" smooth="yes"/>
      <point x="354" y="191"/>
      <point x="357" y="201"/>
      <point x="357" y="219" type="curve" smooth="yes"/>
      <point x="357" y="481" type="line" smooth="yes"/>
      <point x="357" y="498"/>
      <point x="354" y="508"/>
      <point x="338" y="510" type="curve" smooth="yes"/>
      <point x="311" y="514" type="line"/>
      <point x="311" y="540" type="line"/>
      <point x="519" y="540" type="line" smooth="yes"/>
      <point x="618" y="540"/>
      <point x="651" y="500"/>
      <point x="651" y="448" type="curve" smooth="yes"/>
      <point x="651" y="396"/>
      <point x="615" y="361"/>
      <point x="562" y="351" type="curve"/>
      <point x="562" y="349" type="line"/>
      <point x="617" y="334"/>
      <point x="623" y="297"/>
      <point x="634" y="253" type="curve" smooth="yes"/>
      <point x="640" y="228"/>
      <point x="649" y="205"/>
      <point x="661" y="196" type="curve" smooth="yes"/>
      <point x="667" y="191"/>
      <point x="675" y="188"/>
      <point x="685" y="185" type="curve"/>
      <point x="685" y="159" type="line"/>
      <point x="630" y="159" type="line" smooth="yes"/>
      <point x="572" y="159"/>
      <point x="554" y="174"/>
      <point x="541" y="204" type="curve" smooth="yes"/>
      <point x="530" y="230"/>
      <point x="523" y="274"/>
      <point x="517" y="295" type="curve" smooth="yes"/>
      <point x="511" y="316"/>
      <point x="502" y="331"/>
      <point x="475" y="331" type="curve" smooth="yes"/>
      <point x="457" y="331" type="line"/>
      <point x="457" y="219" type="line" smooth="yes"/>
      <point x="457" y="201"/>
      <point x="461" y="191"/>
      <point x="477" y="189" type="curve" smooth="yes"/>
      <point x="504" y="185" type="line"/>
      <point x="504" y="159" type="line"/>
    </contour>
    <contour>
      <point x="209" y="346" type="curve" smooth="yes"/>
      <point x="209" y="178"/>
      <point x="335" y="48"/>
      <point x="490" y="48" type="curve" smooth="yes"/>
      <point x="645" y="48"/>
      <point x="771" y="178"/>
      <point x="771" y="346" type="curve" smooth="yes"/>
      <point x="771" y="514"/>
      <point x="645" y="644"/>
      <point x="490" y="644" type="curve" smooth="yes"/>
      <point x="335" y="644"/>
      <point x="209" y="514"/>
    </contour>
    <contour>
      <point x="126" y="346" type="curve" smooth="yes"/>
      <point x="126" y="546"/>
      <point x="289" y="707"/>
      <point x="490" y="707" type="curve" smooth="yes"/>
      <point x="691" y="707"/>
      <point x="854" y="546"/>
      <point x="854" y="346" type="curve" smooth="yes"/>
      <point x="854" y="146"/>
      <point x="691" y="-15"/>
      <point x="490" y="-15" type="curve" smooth="yes"/>
      <point x="289" y="-15"/>
      <point x="126" y="146"/>
    </contour>
  </outline>
</glyph>
<glyph name="uni00B2" format="1">
  <advance width="402"/>
  <unicode hex="00B2"/>
  <outline>
    <contour>
      <point x="94" y="418" type="line"/>
      <point x="97" y="465"/>
      <point x="157" y="523"/>
      <point x="254" y="579" type="curve" smooth="yes"/>
      <point x="329" y="623"/>
      <point x="363" y="685"/>
      <point x="363" y="730" type="curve" smooth="yes"/>
      <point x="363" y="758"/>
      <point x="356" y="778"/>
      <point x="335" y="778" type="curve" smooth="yes"/>
      <point x="312" y="778"/>
      <point x="287" y="752"/>
      <point x="262" y="697" type="curve" smooth="yes"/>
      <point x="256" y="683"/>
      <point x="247" y="667"/>
      <point x="222" y="667" type="curve" smooth="yes"/>
      <point x="196" y="667"/>
      <point x="165" y="687"/>
      <point x="165" y="715" type="curve" smooth="yes"/>
      <point x="165" y="762"/>
      <point x="227" y="816"/>
      <point x="330" y="816" type="curve" smooth="yes"/>
      <point x="449" y="816"/>
      <point x="488" y="760"/>
      <point x="488" y="702" type="curve" smooth="yes"/>
      <point x="488" y="625"/>
      <point x="427" y="592"/>
      <point x="350" y="565" type="curve" smooth="yes"/>
      <point x="284" y="542"/>
      <point x="245" y="517"/>
      <point x="225" y="490" type="curve"/>
      <point x="376" y="490" type="line" smooth="yes"/>
      <point x="403" y="490"/>
      <point x="414" y="495"/>
      <point x="434" y="523" type="curve"/>
      <point x="462" y="515" type="line"/>
      <point x="415" y="408" type="line"/>
      <point x="104" y="408" type="line"/>
    </contour>
  </outline>
</glyph>
<glyph name="mu" format="1">
  <advance width="634"/>
  <unicode hex="00B5"/>
  <outline>
    <contour>
      <point x="35" y="-180" type="curve" smooth="yes"/>
      <point x="183" y="391" type="line" smooth="yes"/>
      <point x="191" y="421"/>
      <point x="187" y="435"/>
      <point x="168" y="437" type="curve" smooth="yes"/>
      <point x="109" y="443" type="line"/>
      <point x="117" y="476" type="line"/>
      <point x="348" y="502" type="line"/>
      <point x="353" y="497" type="line"/>
      <point x="259" y="128" type="line" smooth="yes"/>
      <point x="249" y="91"/>
      <point x="250" y="68"/>
      <point x="278" y="68" type="curve" smooth="yes"/>
      <point x="325" y="68"/>
      <point x="407" y="199"/>
      <point x="443" y="285" type="curve" smooth="yes"/>
      <point x="465" y="335"/>
      <point x="481" y="388"/>
      <point x="510" y="490" type="curve"/>
      <point x="652" y="502" type="line"/>
      <point x="551" y="115" type="line" smooth="yes"/>
      <point x="543" y="89"/>
      <point x="544" y="68"/>
      <point x="563" y="68" type="curve" smooth="yes"/>
      <point x="586" y="68"/>
      <point x="623" y="121"/>
      <point x="649" y="166" type="curve"/>
      <point x="678" y="148" type="line"/>
      <point x="637" y="65"/>
      <point x="576" y="-12"/>
      <point x="479" y="-12" type="curve" smooth="yes"/>
      <point x="425" y="-12"/>
      <point x="397" y="28"/>
      <point x="415" y="96" type="curve" smooth="yes"/>
      <point x="446" y="210" type="line"/>
      <point x="442" y="210" type="line"/>
      <point x="379" y="94"/>
      <point x="296" y="-12"/>
      <point x="196" y="-10" type="curve" smooth="yes"/>
      <point x="188" y="-10"/>
      <point x="173" y="-6"/>
      <point x="160" y="4" type="curve"/>
      <point x="154" y="-19" type="line" smooth="yes"/>
      <point x="150" y="-35"/>
      <point x="149" y="-71"/>
      <point x="156" y="-102" type="curve" smooth="yes"/>
      <point x="162" y="-125"/>
      <point x="166" y="-142"/>
      <point x="166" y="-161" type="curve" smooth="yes"/>
      <point x="166" y="-197"/>
      <point x="110" y="-230"/>
      <point x="63" y="-230" type="curve" smooth="yes"/>
      <point x="40" y="-230"/>
      <point x="26" y="-216"/>
    </contour>
  </outline>
</glyph>
<glyph name="paragraph" format="1">
  <advance width="580"/>
  <unicode hex="00B6"/>
  <outline>
    <contour>
      <point x="231" y="-101" type="line"/>
      <point x="238" y="-68" type="line"/>
      <point x="321" y="-57" type="line" smooth="yes"/>
      <point x="340" y="-55"/>
      <point x="347" y="-36"/>
      <point x="353" y="-7" type="curve" smooth="yes"/>
      <point x="512" y="692" type="line"/>
      <point x="688" y="692" type="line"/>
      <point x="681" y="659" type="line"/>
      <point x="613" y="650" type="line" smooth="yes"/>
      <point x="594" y="648"/>
      <point x="589" y="637"/>
      <point x="583" y="608" type="curve" smooth="yes"/>
      <point x="422" y="-101" type="line"/>
    </contour>
    <contour>
      <point x="145" y="422" type="curve" smooth="yes"/>
      <point x="145" y="576"/>
      <point x="265" y="692"/>
      <point x="445" y="692" type="curve"/>
      <point x="342" y="238" type="line"/>
      <point x="230" y="238"/>
      <point x="145" y="299"/>
    </contour>
  </outline>
</glyph>
<glyph name="guillemotright" format="1">
  <advance width="560"/>
  <unicode hex="00BB"/>
  <outline>
    <contour>
      <point x="93" y="58" type="line"/>
      <point x="203" y="229" type="line" smooth="yes"/>
      <point x="212" y="244"/>
      <point x="215" y="255"/>
      <point x="211" y="269" type="curve" smooth="yes"/>
      <point x="164" y="447" type="line"/>
      <point x="192" y="464" type="line"/>
      <point x="329" y="270" type="line" smooth="yes"/>
      <point x="340" y="255"/>
      <point x="337" y="245"/>
      <point x="322" y="231" type="curve" smooth="yes"/>
      <point x="117" y="37" type="line"/>
    </contour>
    <contour>
      <point x="294" y="58" type="line"/>
      <point x="404" y="229" type="line" smooth="yes"/>
      <point x="413" y="244"/>
      <point x="416" y="255"/>
      <point x="412" y="269" type="curve" smooth="yes"/>
      <point x="365" y="447" type="line"/>
      <point x="393" y="464" type="line"/>
      <point x="530" y="270" type="line" smooth="yes"/>
      <point x="541" y="255"/>
      <point x="538" y="245"/>
      <point x="523" y="231" type="curve" smooth="yes"/>
      <point x="318" y="37" type="line"/>
    </contour>
  </outline>
</glyph>
<glyph name="onehalf" format="1">
  <advance width="940"/>
  <unicode hex="00BD"/>
  <outline>
    <contour>
      <point x="569" y="10" type="line"/>
      <point x="572" y="57"/>
      <point x="632" y="115"/>
      <point x="729" y="171" type="curve" smooth="yes"/>
      <point x="804" y="215"/>
      <point x="838" y="277"/>
      <point x="838" y="322" type="curve" smooth="yes"/>
      <point x="838" y="350"/>
      <point x="831" y="370"/>
      <point x="810" y="370" type="curve" smooth="yes"/>
      <point x="787" y="370"/>
      <point x="762" y="344"/>
      <point x="737" y="289" type="curve" smooth="yes"/>
      <point x="731" y="275"/>
      <point x="722" y="259"/>
      <point x="697" y="259" type="curve" smooth="yes"/>
      <point x="671" y="259"/>
      <point x="640" y="279"/>
      <point x="640" y="307" type="curve" smooth="yes"/>
      <point x="640" y="354"/>
      <point x="702" y="408"/>
      <point x="805" y="408" type="curve" smooth="yes"/>
      <point x="924" y="408"/>
      <point x="963" y="352"/>
      <point x="963" y="294" type="curve" smooth="yes"/>
      <point x="963" y="217"/>
      <point x="902" y="184"/>
      <point x="825" y="157" type="curve" smooth="yes"/>
      <point x="759" y="134"/>
      <point x="720" y="109"/>
      <point x="700" y="82" type="curve"/>
      <point x="851" y="82" type="line" smooth="yes"/>
      <point x="878" y="82"/>
      <point x="889" y="87"/>
      <point x="909" y="115" type="curve"/>
      <point x="937" y="107" type="line"/>
      <point x="890" y="0" type="line"/>
      <point x="579" y="0" type="line"/>
    </contour>
    <contour>
      <point x="147" y="272" type="line"/>
      <point x="153" y="299" type="line"/>
      <point x="192" y="304" type="line" smooth="yes"/>
      <point x="214" y="307"/>
      <point x="224" y="314"/>
      <point x="229" y="340" type="curve" smooth="yes"/>
      <point x="286" y="590" type="line" smooth="yes"/>
      <point x="292" y="614"/>
      <point x="285" y="621"/>
      <point x="270" y="624" type="curve" smooth="yes"/>
      <point x="230" y="630" type="line"/>
      <point x="236" y="656" type="line"/>
      <point x="418" y="680" type="line"/>
      <point x="424" y="673" type="line"/>
      <point x="348" y="340" type="line" smooth="yes"/>
      <point x="343" y="314"/>
      <point x="349" y="307"/>
      <point x="369" y="304" type="curve" smooth="yes"/>
      <point x="406" y="299" type="line"/>
      <point x="400" y="272" type="line"/>
    </contour>
    <contour>
      <point x="238" y="11" type="line"/>
      <point x="740" y="695" type="line"/>
      <point x="784" y="661" type="line"/>
      <point x="279" y="-27" type="line"/>
    </contour>
  </outline>
</glyph>
<glyph name="threequarters" format="1">
  <advance width="940"/>
  <unicode hex="00BE"/>
  <outline>
    <contour>
      <point x="145" y="349" type="curve" smooth="yes"/>
      <point x="145" y="379"/>
      <point x="176" y="403"/>
      <point x="205" y="403" type="curve" smooth="yes"/>
      <point x="224" y="403"/>
      <point x="236" y="390"/>
      <point x="242" y="373" type="curve" smooth="yes"/>
      <point x="258" y="324"/>
      <point x="274" y="303"/>
      <point x="301" y="303" type="curve" smooth="yes"/>
      <point x="325" y="303"/>
      <point x="358" y="332"/>
      <point x="358" y="408" type="curve" smooth="yes"/>
      <point x="358" y="458"/>
      <point x="336" y="468"/>
      <point x="317" y="468" type="curve" smooth="yes"/>
      <point x="295" y="468"/>
      <point x="269" y="457"/>
      <point x="255" y="457" type="curve" smooth="yes"/>
      <point x="242" y="457"/>
      <point x="235" y="466"/>
      <point x="235" y="481" type="curve" smooth="yes"/>
      <point x="235" y="500"/>
      <point x="243" y="517"/>
      <point x="257" y="517" type="curve" smooth="yes"/>
      <point x="273" y="517"/>
      <point x="299" y="503"/>
      <point x="325" y="503" type="curve" smooth="yes"/>
      <point x="364" y="503"/>
      <point x="386" y="562"/>
      <point x="386" y="599" type="curve" smooth="yes"/>
      <point x="386" y="623"/>
      <point x="376" y="642"/>
      <point x="354" y="642" type="curve" smooth="yes"/>
      <point x="335" y="642"/>
      <point x="316" y="623"/>
      <point x="290" y="578" type="curve" smooth="yes"/>
      <point x="280" y="561"/>
      <point x="271" y="548"/>
      <point x="249" y="548" type="curve" smooth="yes"/>
      <point x="228" y="548"/>
      <point x="200" y="565"/>
      <point x="200" y="593" type="curve" smooth="yes"/>
      <point x="200" y="633"/>
      <point x="257" y="680"/>
      <point x="357" y="680" type="curve" smooth="yes"/>
      <point x="437" y="680"/>
      <point x="507" y="641"/>
      <point x="507" y="579" type="curve" smooth="yes"/>
      <point x="507" y="513"/>
      <point x="443" y="493"/>
      <point x="396" y="487" type="curve"/>
      <point x="395" y="485" type="line"/>
      <point x="446" y="474"/>
      <point x="486" y="441"/>
      <point x="486" y="390" type="curve" smooth="yes"/>
      <point x="486" y="312"/>
      <point x="417" y="265"/>
      <point x="301" y="265" type="curve" smooth="yes"/>
      <point x="203" y="265"/>
      <point x="145" y="304"/>
    </contour>
    <contour>
      <point x="302" y="11" type="line"/>
      <point x="804" y="695" type="line"/>
      <point x="848" y="661" type="line"/>
      <point x="343" y="-27" type="line"/>
    </contour>
    <contour>
      <point x="628" y="145" type="curve"/>
      <point x="743" y="145" type="line"/>
      <point x="782" y="313" type="line"/>
      <point x="780" y="313" type="line"/>
      <point x="735" y="263"/>
      <point x="675" y="200"/>
    </contour>
    <contour>
      <point x="550" y="126" type="line"/>
      <point x="643" y="226"/>
      <point x="733" y="324"/>
      <point x="819" y="401" type="curve"/>
      <point x="911" y="401" type="line"/>
      <point x="854" y="145" type="line"/>
      <point x="910" y="145" type="line"/>
      <point x="900" y="102" type="line"/>
      <point x="844" y="102" type="line"/>
      <point x="834" y="54" type="line" smooth="yes"/>
      <point x="831" y="38"/>
      <point x="837" y="31"/>
      <point x="850" y="30" type="curve" smooth="yes"/>
      <point x="874" y="27" type="line"/>
      <point x="869" y="0" type="line"/>
      <point x="648" y="0" type="line"/>
      <point x="653" y="27" type="line"/>
      <point x="693" y="30" type="line" smooth="yes"/>
      <point x="709" y="31"/>
      <point x="719" y="38"/>
      <point x="722" y="54" type="curve" smooth="yes"/>
      <point x="732" y="102" type="line"/>
      <point x="563" y="102" type="line"/>
    </contour>
  </outline>
</glyph>
<glyph name="questiondown" format="1">
  <advance width="454"/>
  <unicode hex="00BF"/>
  <outline>
    <contour>
      <point x="246" y="402" type="curve" smooth="yes"/>
      <point x="246" y="463"/>
      <point x="288" y="502"/>
      <point x="339" y="502" type="curve" smooth="yes"/>
      <point x="399" y="502"/>
      <point x="426" y="466"/>
      <point x="426" y="423" type="curve" smooth="yes"/>
      <point x="426" y="362"/>
      <point x="383" y="324"/>
      <point x="330" y="324" type="curve" smooth="yes"/>
      <point x="272" y="324"/>
      <point x="246" y="361"/>
    </contour>
    <contour>
      <point x="25" y="-83" type="curve" smooth="yes"/>
      <point x="25" y="-6"/>
      <point x="86" y="35"/>
      <point x="163" y="65" type="curve" smooth="yes"/>
      <point x="224" y="88"/>
      <point x="269" y="117"/>
      <point x="269" y="161" type="curve" smooth="yes"/>
      <point x="269" y="191"/>
      <point x="241" y="206"/>
      <point x="220" y="208" type="curve" smooth="yes"/>
      <point x="202" y="210"/>
      <point x="189" y="210"/>
      <point x="177" y="208" type="curve"/>
      <point x="170" y="237" type="line"/>
      <point x="204" y="260"/>
      <point x="257" y="272"/>
      <point x="297" y="272" type="curve" smooth="yes"/>
      <point x="365" y="272"/>
      <point x="413" y="234"/>
      <point x="413" y="177" type="curve" smooth="yes"/>
      <point x="413" y="126"/>
      <point x="373" y="89"/>
      <point x="306" y="53" type="curve" smooth="yes"/>
      <point x="222" y="8"/>
      <point x="174" y="-51"/>
      <point x="174" y="-125" type="curve" smooth="yes"/>
      <point x="174" y="-149"/>
      <point x="184" y="-171"/>
      <point x="208" y="-171" type="curve" smooth="yes"/>
      <point x="237" y="-171"/>
      <point x="266" y="-137"/>
      <point x="297" y="-66" type="curve" smooth="yes"/>
      <point x="306" y="-45"/>
      <point x="320" y="-32"/>
      <point x="346" y="-32" type="curve" smooth="yes"/>
      <point x="375" y="-32"/>
      <point x="422" y="-49"/>
      <point x="422" y="-95" type="curve" smooth="yes"/>
      <point x="422" y="-144"/>
      <point x="360" y="-217"/>
      <point x="220" y="-217" type="curve" smooth="yes"/>
      <point x="88" y="-217"/>
      <point x="25" y="-165"/>
    </contour>
  </outline>
</glyph>
<glyph name="Aring" format="1">
  <advance width="634"/>
  <unicode hex="00C5"/>
  <outline>
    <contour>
      <point x="430" y="741" type="curve" smooth="yes"/>
      <point x="430" y="708"/>
      <point x="452" y="692"/>
      <point x="478" y="692" type="curve" smooth="yes"/>
      <point x="518" y="692"/>
      <point x="549" y="736"/>
      <point x="549" y="789" type="curve" smooth="yes"/>
      <point x="549" y="820"/>
      <point x="531" y="840"/>
      <point x="502" y="840" type="curve" smooth="yes"/>
      <point x="464" y="840"/>
      <point x="430" y="799"/>
    </contour>
    <contour>
      <point x="258" y="294" type="curve"/>
      <point x="429" y="294" type="line"/>
      <point x="405" y="555" type="line"/>
      <point x="401" y="555" type="line"/>
      <point x="384" y="528"/>
      <point x="271" y="319"/>
    </contour>
    <contour>
      <point x="-24" y="0" type="line"/>
      <point x="-17" y="38" type="line"/>
      <point x="10" y="41" type="line" smooth="yes"/>
      <point x="40" y="44"/>
      <point x="55" y="54"/>
      <point x="75" y="87" type="curve" smooth="yes"/>
      <point x="103" y="133"/>
      <point x="166" y="243"/>
      <point x="226" y="349" type="curve" smooth="yes"/>
      <point x="408" y="667" type="line"/>
      <point x="381" y="681"/>
      <point x="364" y="709"/>
      <point x="364" y="743" type="curve" smooth="yes"/>
      <point x="364" y="816"/>
      <point x="407" y="879"/>
      <point x="508" y="879" type="curve" smooth="yes"/>
      <point x="573" y="879"/>
      <point x="615" y="844"/>
      <point x="615" y="782" type="curve" smooth="yes"/>
      <point x="615" y="731"/>
      <point x="588" y="688"/>
      <point x="540" y="667" type="curve"/>
      <point x="572" y="375" type="line" smooth="yes"/>
      <point x="580" y="302"/>
      <point x="594" y="159"/>
      <point x="602" y="86" type="curve" smooth="yes"/>
      <point x="606" y="58"/>
      <point x="610" y="43"/>
      <point x="633" y="41" type="curve" smooth="yes"/>
      <point x="674" y="38" type="line"/>
      <point x="666" y="0" type="line"/>
      <point x="366" y="0" type="line"/>
      <point x="374" y="38" type="line"/>
      <point x="426" y="42" type="line" smooth="yes"/>
      <point x="446" y="43"/>
      <point x="451" y="55"/>
      <point x="449" y="79" type="curve" smooth="yes"/>
      <point x="434" y="246" type="line"/>
      <point x="232" y="246" type="line"/>
      <point x="202" y="188"/>
      <point x="176" y="132"/>
      <point x="148" y="79" type="curve" smooth="yes"/>
      <point x="138" y="59"/>
      <point x="139" y="43"/>
      <point x="161" y="42" type="curve" smooth="yes"/>
      <point x="217" y="38" type="line"/>
      <point x="210" y="0" type="line"/>
    </contour>
  </outline>
</glyph>
<glyph name="Eth" format="1">
  <advance width="780"/>
  <unicode hex="00D0"/>
  <outline>
    <contour>
      <point x="298" y="97" type="line" smooth="yes"/>
      <point x="288" y="54"/>
      <point x="318" y="46"/>
      <point x="366" y="46" type="curve" smooth="yes"/>
      <point x="598" y="46"/>
      <point x="662" y="336"/>
      <point x="662" y="454" type="curve" smooth="yes"/>
      <point x="662" y="549"/>
      <point x="639" y="646"/>
      <point x="496" y="646" type="curve" smooth="yes"/>
      <point x="432" y="646"/>
      <point x="418" y="639"/>
      <point x="411" y="606" type="curve" smooth="yes"/>
      <point x="363" y="387" type="line"/>
      <point x="507" y="387" type="line"/>
      <point x="495" y="339" type="line"/>
      <point x="352" y="339" type="line"/>
    </contour>
    <contour>
      <point x="46" y="0" type="line"/>
      <point x="55" y="38" type="line"/>
      <point x="100" y="42" type="line" smooth="yes"/>
      <point x="129" y="44"/>
      <point x="136" y="62"/>
      <point x="144" y="98" type="curve" smooth="yes"/>
      <point x="198" y="339" type="line"/>
      <point x="103" y="339" type="line"/>
      <point x="115" y="387" type="line"/>
      <point x="209" y="387" type="line"/>
      <point x="255" y="594" type="line" smooth="yes"/>
      <point x="263" y="630"/>
      <point x="264" y="647"/>
      <point x="236" y="649" type="curve" smooth="yes"/>
      <point x="185" y="654" type="line"/>
      <point x="195" y="692" type="line"/>
      <point x="470" y="692" type="line" smooth="yes"/>
      <point x="589" y="691"/>
      <point x="674" y="672"/>
      <point x="733" y="627" type="curve" smooth="yes"/>
      <point x="792" y="582"/>
      <point x="825" y="510"/>
      <point x="825" y="403" type="curve" smooth="yes"/>
      <point x="825" y="362"/>
      <point x="813" y="266"/>
      <point x="759" y="182" type="curve" smooth="yes"/>
      <point x="690" y="73"/>
      <point x="585" y="0"/>
      <point x="367" y="0" type="curve" smooth="yes"/>
    </contour>
  </outline>
</glyph>
<glyph name="multiply" format="1">
  <advance width="600"/>
  <unicode hex="00D7"/>
  <outline>
    <contour>
      <point x="145" y="83" type="line"/>
      <point x="310" y="249" type="line"/>
      <point x="145" y="415" type="line"/>
      <point x="203" y="478" type="line"/>
      <point x="370" y="310" type="line"/>
      <point x="536" y="478" type="line"/>
      <point x="595" y="415" type="line"/>
      <point x="430" y="249" type="line"/>
      <point x="595" y="83" type="line"/>
      <point x="536" y="22" type="line"/>
      <point x="370" y="189" type="line"/>
      <point x="203" y="22" type="line"/>
    </contour>
  </outline>
</glyph>
<glyph name="Thorn" format="1">
  <advance width="629"/>
  <unicode hex="00DE"/>
  <outline>
    <contour>
      <point x="327" y="261" type="line" smooth="yes"/>
      <point x="321" y="233"/>
      <point x="328" y="222"/>
      <point x="364" y="222" type="curve" smooth="yes"/>
      <point x="490" y="222"/>
      <point x="534" y="314"/>
      <point x="536" y="398" type="curve" smooth="yes"/>
      <point x="537" y="463"/>
      <point x="500" y="502"/>
      <point x="437" y="502" type="curve" smooth="yes"/>
      <point x="392" y="502"/>
      <point x="380" y="491"/>
      <point x="374" y="464" type="curve" smooth="yes"/>
    </contour>
    <contour>
      <point x="40" y="0" type="line"/>
      <point x="49" y="38" type="line"/>
      <point x="94" y="42" type="line" smooth="yes"/>
      <point x="123" y="44"/>
      <point x="130" y="62"/>
      <point x="138" y="98" type="curve" smooth="yes"/>
      <point x="250" y="594" type="line" smooth="yes"/>
      <point x="258" y="630"/>
      <point x="259" y="647"/>
      <point x="231" y="649" type="curve" smooth="yes"/>
      <point x="180" y="654" type="line"/>
      <point x="190" y="692" type="line"/>
      <point x="501" y="692" type="line"/>
      <point x="491" y="654" type="line"/>
      <point x="447" y="650" type="line" smooth="yes"/>
      <point x="418" y="648"/>
      <point x="411" y="630"/>
      <point x="403" y="594" type="curve" smooth="yes"/>
      <point x="392" y="548" type="line"/>
      <point x="456" y="548" type="line" smooth="yes"/>
      <point x="591" y="548"/>
      <point x="697" y="501"/>
      <point x="695" y="373" type="curve" smooth="yes"/>
      <point x="693" y="310"/>
      <point x="663" y="260"/>
      <point x="614" y="226" type="curve" smooth="yes"/>
      <point x="565" y="192"/>
      <point x="490" y="176"/>
      <point x="406" y="176" type="curve" smooth="yes"/>
      <point x="310" y="176" type="line"/>
      <point x="292" y="98" type="line" smooth="yes"/>
      <point x="284" y="64"/>
      <point x="283" y="45"/>
      <point x="313" y="43" type="curve" smooth="yes"/>
      <point x="378" y="38" type="line"/>
      <point x="370" y="0" type="line"/>
    </contour>
  </outline>
</glyph>
<glyph name="aacute" format="1">
  <advance width="596"/>
  <unicode hex="00E1"/>
  <outline>
    <contour>
      <point x="215" y="115" type="curve" smooth="yes"/>
      <point x="215" y="87"/>
      <point x="221" y="68"/>
      <point x="244" y="68" type="curve" smooth="yes"/>
      <point x="276" y="68"/>
      <point x="315" y="116"/>
      <point x="364" y="194" type="curve" smooth="yes"/>
      <point x="413" y="274"/>
      <point x="449" y="371"/>
      <point x="467" y="442" type="curve"/>
      <point x="454" y="451"/>
      <point x="437" y="456"/>
      <point x="418" y="456" type="curve" smooth="yes"/>
      <point x="305" y="456"/>
      <point x="215" y="220"/>
    </contour>
    <contour>
      <point x="61" y="108" type="curve" smooth="yes"/>
      <point x="61" y="239"/>
      <point x="171" y="502"/>
      <point x="409" y="502" type="curve" smooth="yes"/>
      <point x="436" y="502"/>
      <point x="462" y="496"/>
      <point x="480" y="485" type="curve"/>
      <point x="484" y="494" type="line"/>
      <point x="621" y="494" type="line"/>
      <point x="520" y="115" type="line" smooth="yes"/>
      <point x="513" y="88"/>
      <point x="513" y="68"/>
      <point x="531" y="68" type="curve" smooth="yes"/>
      <point x="555" y="68"/>
      <point x="593" y="121"/>
      <point x="618" y="165" type="curve"/>
      <point x="647" y="149" type="line"/>
      <point x="605" y="65"/>
      <point x="543" y="-12"/>
      <point x="448" y="-12" type="curve" smooth="yes"/>
      <point x="385" y="-12"/>
      <point x="362" y="29"/>
      <point x="386" y="114" type="curve" smooth="yes"/>
      <point x="411" y="202" type="line"/>
      <point x="405" y="202" type="line"/>
      <point x="352" y="111"/>
      <point x="278" y="-12"/>
      <point x="159" y="-12" type="curve" smooth="yes"/>
      <point x="88" y="-12"/>
      <point x="61" y="47"/>
    </contour>
    <contour>
      <point x="344" y="541" type="line"/>
      <point x="489" y="690" type="line" smooth="yes"/>
      <point x="526" y="728"/>
      <point x="543" y="740"/>
      <point x="563" y="740" type="curve" smooth="yes"/>
      <point x="587" y="740"/>
      <point x="616" y="705"/>
      <point x="616" y="680" type="curve" smooth="yes"/>
      <point x="616" y="654"/>
      <point x="584" y="634"/>
      <point x="548" y="614" type="curve" smooth="yes"/>
      <point x="365" y="511" type="line"/>
    </contour>
  </outline>
</glyph>
<glyph name="edieresis" format="1">
  <advance width="476"/>
  <unicode hex="00EB"/>
  <outline>
    <contour>
      <point x="226" y="232" type="curve"/>
      <point x="342" y="255"/>
      <point x="404" y="334"/>
      <point x="404" y="412" type="curve" smooth="yes"/>
      <point x="404" y="440"/>
      <point x="391" y="456"/>
      <point x="367" y="456" type="curve" smooth="yes"/>
      <point x="308" y="456"/>
      <point x="240" y="347"/>
    </contour>
    <contour>
      <point x="73" y="161" type="curve" smooth="yes"/>
      <point x="73" y="238"/>
      <point x="100" y="320"/>
      <point x="154" y="388" type="curve" smooth="yes"/>
      <point x="208" y="456"/>
      <point x="285" y="502"/>
      <point x="384" y="502" type="curve" smooth="yes"/>
      <point x="469" y="502"/>
      <point x="532" y="457"/>
      <point x="532" y="386" type="curve" smooth="yes"/>
      <point x="532" y="355"/>
      <point x="525" y="322"/>
      <point x="486" y="286" type="curve" smooth="yes"/>
      <point x="443" y="248"/>
      <point x="372" y="216"/>
      <point x="222" y="187" type="curve"/>
      <point x="222" y="163" type="line" smooth="yes"/>
      <point x="222" y="109"/>
      <point x="241" y="54"/>
      <point x="300" y="54" type="curve" smooth="yes"/>
      <point x="360" y="54"/>
      <point x="407" y="100"/>
      <point x="460" y="176" type="curve"/>
      <point x="490" y="152" type="line"/>
      <point x="417" y="20"/>
      <point x="323" y="-12"/>
      <point x="236" y="-12" type="curve" smooth="yes"/>
      <point x="164" y="-12"/>
      <point x="73" y="23"/>
    </contour>
    <contour>
      <point x="179" y="635" type="curve" smooth="yes"/>
      <point x="179" y="673"/>
      <point x="207" y="710"/>
      <point x="258" y="710" type="curve" smooth="yes"/>
      <point x="310" y="710"/>
      <point x="337" y="673"/>
      <point x="337" y="635" type="curve" smooth="yes"/>
      <point x="337" y="597"/>
      <point x="310" y="561"/>
      <point x="258" y="561" type="curve" smooth="yes"/>
      <point x="207" y="561"/>
      <point x="179" y="597"/>
    </contour>
    <contour>
      <point x="419" y="635" type="curve" smooth="yes"/>
      <point x="419" y="673"/>
      <point x="447" y="710"/>
      <point x="498" y="710" type="curve" smooth="yes"/>
      <point x="550" y="710"/>
      <point x="577" y="673"/>
      <point x="577" y="635" type="curve" smooth="yes"/>
      <point x="577" y="597"/>
      <point x="550" y="561"/>
      <point x="498" y="561" type="curve" smooth="yes"/>
      <point x="447" y="561"/>
      <point x="419" y="597"/>
    </contour>
  </outline>
</glyph>
<glyph name="idieresis" format="1">
  <advance width="339"/>
  <unicode hex="00EF"/>
  <outline>
    <contour>
      <point x="81" y="635" type="curve" smooth="yes"/>
      <point x="81" y="673"/>
      <point x="109" y="710"/>
      <point x="160" y="710" type="curve" smooth="yes"/>
      <point x="212" y="710"/>
      <point x="239" y="673"/>
      <point x="239" y="635" type="curve" smooth="yes"/>
      <point x="239" y="597"/>
      <point x="212" y="561"/>
      <point x="160" y="561" type="curve" smooth="yes"/>
      <point x="109" y="561"/>
      <point x="81" y="597"/>
    </contour>
    <contour>
      <point x="321" y="635" type="curve" smooth="yes"/>
      <point x="321" y="673"/>
      <point x="349" y="710"/>
      <point x="400" y="710" type="curve" smooth="yes"/>
      <point x="452" y="710"/>
      <point x="479" y="673"/>
      <point x="479" y="635" type="curve" smooth="yes"/>
      <point x="479" y="597"/>
      <point x="452" y="561"/>
      <point x="400" y="561" type="curve" smooth="yes"/>
      <point x="349" y="561"/>
      <point x="321" y="597"/>
    </contour>
    <contour>
      <point x="108" y="107" type="curve" smooth="yes"/>
      <point x="185" y="392" type="line" smooth="yes"/>
      <point x="192" y="419"/>
      <point x="188" y="432"/>
      <point x="168" y="434" type="curve" smooth="yes"/>
      <point x="110" y="440" type="line"/>
      <point x="118" y="473" type="line"/>
      <point x="348" y="502" type="line"/>
      <point x="354" y="496" type="line"/>
      <point x="251" y="115" type="line" smooth="yes"/>
      <point x="244" y="89"/>
      <point x="243" y="68"/>
      <point x="262" y="68" type="curve" smooth="yes"/>
      <point x="285" y="68"/>
      <point x="323" y="121"/>
      <point x="348" y="166" type="curve"/>
      <point x="378" y="149" type="line"/>
      <point x="336" y="65"/>
      <point x="275" y="-12"/>
      <point x="178" y="-12" type="curve" smooth="yes"/>
      <point x="111" y="-12"/>
      <point x="87" y="30"/>
    </contour>
  </outline>
</glyph>
<glyph name="eth" format="1">
  <advance width="562"/>
  <unicode hex="00F0"/>
  <outline>
    <contour>
      <point x="222" y="107" type="curve" smooth="yes"/>
      <point x="222" y="57"/>
      <point x="245" y="34"/>
      <point x="281" y="34" type="curve" smooth="yes"/>
      <point x="387" y="34"/>
      <point x="446" y="300"/>
      <point x="446" y="374" type="curve" smooth="yes"/>
      <point x="446" y="416"/>
      <point x="436" y="456"/>
      <point x="389" y="456" type="curve" smooth="yes"/>
      <point x="342" y="456"/>
      <point x="304" y="407"/>
      <point x="274" y="339" type="curve" smooth="yes"/>
      <point x="242" y="266"/>
      <point x="222" y="174"/>
    </contour>
    <contour>
      <point x="77" y="174" type="curve" smooth="yes"/>
      <point x="77" y="219"/>
      <point x="90" y="300"/>
      <point x="135" y="371" type="curve" smooth="yes"/>
      <point x="179" y="441"/>
      <point x="252" y="502"/>
      <point x="391" y="502" type="curve" smooth="yes"/>
      <point x="408" y="502"/>
      <point x="417" y="500"/>
      <point x="425" y="497" type="curve"/>
      <point x="425" y="500" type="line"/>
      <point x="415" y="526"/>
      <point x="396" y="557"/>
      <point x="372" y="588" type="curve"/>
      <point x="235" y="532" type="line"/>
      <point x="206" y="572" type="line"/>
      <point x="339" y="626" type="line"/>
      <point x="316" y="655"/>
      <point x="284" y="686"/>
      <point x="247" y="716" type="curve"/>
      <point x="248" y="727" type="line"/>
      <point x="305" y="742" type="line"/>
      <point x="344" y="718"/>
      <point x="386" y="689"/>
      <point x="420" y="659" type="curve"/>
      <point x="566" y="718" type="line"/>
      <point x="593" y="678" type="line"/>
      <point x="458" y="623" type="line"/>
      <point x="534" y="545"/>
      <point x="591" y="452"/>
      <point x="591" y="323" type="curve" smooth="yes"/>
      <point x="591" y="265"/>
      <point x="575" y="188"/>
      <point x="529" y="115" type="curve" smooth="yes"/>
      <point x="482" y="40"/>
      <point x="410" y="-12"/>
      <point x="284" y="-12" type="curve" smooth="yes"/>
      <point x="139" y="-12"/>
      <point x="77" y="64"/>
    </contour>
  </outline>
</glyph>
<glyph name="oslash" format="1">
  <advance width="562"/>
  <unicode hex="00F8"/>
  <outline>
    <contour>
      <point x="234" y="50" type="line"/>
      <point x="245" y="39"/>
      <point x="261" y="34"/>
      <point x="281" y="34" type="curve" smooth="yes"/>
      <point x="397" y="34"/>
      <point x="456" y="300"/>
      <point x="456" y="374" type="curve" smooth="yes"/>
      <point x="456" y="379"/>
      <point x="456" y="384"/>
      <point x="455" y="387" type="curve" smooth="yes"/>
    </contour>
    <contour>
      <point x="212" y="107" type="curve" smooth="yes"/>
      <point x="212" y="102"/>
      <point x="212" y="96"/>
      <point x="214" y="94" type="curve" smooth="yes"/>
      <point x="438" y="437" type="line"/>
      <point x="427" y="449"/>
      <point x="411" y="456"/>
      <point x="388" y="456" type="curve" smooth="yes"/>
      <point x="333" y="456"/>
      <point x="295" y="408"/>
      <point x="264" y="339" type="curve" smooth="yes"/>
      <point x="232" y="266"/>
      <point x="212" y="174"/>
    </contour>
    <contour>
      <point x="77" y="174" type="curve" smooth="yes"/>
      <point x="77" y="219"/>
      <point x="90" y="300"/>
      <point x="135" y="371" type="curve" smooth="yes"/>
      <point x="179" y="441"/>
      <point x="252" y="502"/>
      <point x="381" y="502" type="curve" smooth="yes"/>
      <point x="412" y="502"/>
      <point x="442" y="499"/>
      <point x="471" y="489" type="curve"/>
      <point x="510" y="549" type="line"/>
      <point x="544" y="525" type="line"/>
      <point x="510" y="473" type="line"/>
      <point x="558" y="447"/>
      <point x="591" y="398"/>
      <point x="591" y="312" type="curve" smooth="yes"/>
      <point x="591" y="265"/>
      <point x="575" y="188"/>
      <point x="529" y="115" type="curve" smooth="yes"/>
      <point x="482" y="40"/>
      <point x="410" y="-12"/>
      <point x="284" y="-12" type="curve" smooth="yes"/>
      <point x="252" y="-12"/>
      <point x="224" y="-8"/>
      <point x="200" y="0" type="curve"/>
      <point x="155" y="-69" type="line"/>
      <point x="123" y="-42" type="line"/>
      <point x="161" y="15" type="line"/>
      <point x="103" y="46"/>
      <point x="77" y="103"/>
    </contour>
  </outline>
</glyph>
<glyph name="ugrave" format="1">
  <advance width="634"/>
  <unicode hex="00F9"/>
  <outline>
    <contour>
      <point x="211" y="680" type="curve" smooth="yes"/>
      <point x="211" y="705"/>
      <point x="240" y="740"/>
      <point x="264" y="740" type="curve" smooth="yes"/>
      <point x="284" y="740"/>
      <point x="301" y="728"/>
      <point x="338" y="690" type="curve" smooth="yes"/>
      <point x="483" y="541" type="line"/>
      <point x="462" y="511" type="line"/>
      <point x="279" y="614" type="line" smooth="yes"/>
      <point x="243" y="634"/>
      <point x="211" y="654"/>
    </contour>
    <contour>
      <point x="109" y="443" type="line"/>
      <point x="117" y="476" type="line"/>
      <point x="348" y="502" type="line"/>
      <point x="353" y="497" type="line"/>
      <point x="259" y="128" type="line" smooth="yes"/>
      <point x="249" y="91"/>
      <point x="250" y="68"/>
      <point x="278" y="68" type="curve" smooth="yes"/>
      <point x="325" y="68"/>
      <point x="407" y="199"/>
      <point x="443" y="285" type="curve" smooth="yes"/>
      <point x="465" y="335"/>
      <point x="481" y="388"/>
      <point x="510" y="490" type="curve"/>
      <point x="652" y="502" type="line"/>
      <point x="551" y="115" type="line" smooth="yes"/>
      <point x="543" y="89"/>
      <point x="544" y="68"/>
      <point x="563" y="68" type="curve" smooth="yes"/>
      <point x="586" y="68"/>
      <point x="623" y="121"/>
      <point x="649" y="166" type="curve"/>
      <point x="678" y="148" type="line"/>
      <point x="637" y="65"/>
      <point x="576" y="-12"/>
      <point x="479" y="-12" type="curve" smooth="yes"/>
      <point x="425" y="-12"/>
      <point x="397" y="28"/>
      <point x="415" y="96" type="curve" smooth="yes"/>
      <point x="446" y="210" type="line"/>
      <point x="442" y="210" type="line"/>
      <point x="379" y="94"/>
      <point x="296" y="-12"/>
      <point x="183" y="-12" type="curve" smooth="yes"/>
      <point x="103" y="-12"/>
      <point x="95" y="53"/>
      <point x="116" y="133" type="curve" smooth="yes"/>
      <point x="183" y="391" type="line" smooth="yes"/>
      <point x="191" y="421"/>
      <point x="187" y="435"/>
      <point x="168" y="437" type="curve" smooth="yes"/>
    </contour>
  </outline>
</glyph>
<glyph name="aogonek" format="1">
  <advance width="596"/>
  <unicode hex="0105"/>
  <outline>
    <contour>
      <point x="215" y="115" type="curve" smooth="yes"/>
      <point x="215" y="87"/>
      <point x="221" y="68"/>
      <point x="244" y="68" type="curve" smooth="yes"/>
      <point x="276" y="68"/>
      <point x="315" y="116"/>
      <point x="364" y="194" type="curve" smooth="yes"/>
      <point x="413" y="274"/>
      <point x="449" y="371"/>
      <point x="467" y="442" type="curve"/>
      <point x="454" y="451"/>
      <point x="437" y="456"/>
      <point x="418" y="456" type="curve" smooth="yes"/>
      <point x="305" y="456"/>
      <point x="215" y="220"/>
    </contour>
    <contour>
      <point x="61" y="108" type="curve" smooth="yes"/>
      <point x="61" y="239"/>
      <point x="171" y="502"/>
      <point x="409" y="502" type="curve" smooth="yes"/>
      <point x="436" y="502"/>
      <point x="462" y="496"/>
      <point x="480" y="485" type="curve"/>
      <point x="484" y="494" type="line"/>
      <point x="621" y="494" type="line"/>
      <point x="520" y="115" type="line" smooth="yes"/>
      <point x="513" y="88"/>
      <point x="513" y="68"/>
      <point x="531" y="68" type="curve" smooth="yes"/>
      <point x="555" y="68"/>
      <point x="593" y="121"/>
      <point x="618" y="165" type="curve"/>
      <point x="647" y="149" type="line"/>
      <point x="605" y="65"/>
      <point x="551" y="-3"/>
      <point x="446" y="-17" type="curve" smooth="yes"/>
      <point x="398" y="-23"/>
      <point x="365" y="-103"/>
      <point x="365" y="-133" type="curve" smooth="yes"/>
      <point x="365" y="-164"/>
      <point x="378" y="-188"/>
      <point x="414" y="-188" type="curve" smooth="yes"/>
      <point x="433" y="-188"/>
      <point x="446" y="-184"/>
      <point x="464" y="-175" type="curve"/>
      <point x="478" y="-202" type="line"/>
      <point x="438" y="-229"/>
      <point x="403" y="-242"/>
      <point x="371" y="-242" type="curve" smooth="yes"/>
      <point x="276" y="-242"/>
      <point x="263" y="-193"/>
      <point x="263" y="-151" type="curve" smooth="yes"/>
      <point x="263" y="-96"/>
      <point x="342" y="-24"/>
      <point x="405" y="-1" type="curve"/>
      <point x="375" y="11"/>
      <point x="369" y="55"/>
      <point x="386" y="114" type="curve" smooth="yes"/>
      <point x="411" y="202" type="line"/>
      <point x="405" y="202" type="line"/>
      <point x="352" y="111"/>
      <point x="278" y="-12"/>
      <point x="159" y="-12" type="curve" smooth="yes"/>
      <point x="88" y="-12"/>
      <point x="61" y="47"/>
    </contour>
  </outline>
</glyph>
<glyph name="Cacute" format="1">
  <advance width="672"/>
  <unicode hex="0106"/>
  <outline>
    <contour>
      <point x="111" y="275" type="curve" smooth="yes"/>
      <point x="111" y="345"/>
      <point x="128" y="444"/>
      <point x="180" y="524" type="curve" smooth="yes"/>
      <point x="250" y="631"/>
      <point x="362" y="707"/>
      <point x="555" y="707" type="curve" smooth="yes"/>
      <point x="611" y="707"/>
      <point x="717" y="696"/>
      <point x="777" y="659" type="curve"/>
      <point x="738" y="480" type="line"/>
      <point x="700" y="480" type="line"/>
      <point x="699" y="571"/>
      <point x="674" y="661"/>
      <point x="557" y="661" type="curve" smooth="yes"/>
      <point x="354" y="661"/>
      <point x="280" y="412"/>
      <point x="280" y="235" type="curve" smooth="yes"/>
      <point x="280" y="96"/>
      <point x="344" y="31"/>
      <point x="434" y="31" type="curve" smooth="yes"/>
      <point x="546" y="31"/>
      <point x="601" y="116"/>
      <point x="665" y="220" type="curve"/>
      <point x="703" y="220" type="line"/>
      <point x="648" y="26" type="line"/>
      <point x="584" y="-7"/>
      <point x="503" y="-15"/>
      <point x="434" y="-15" type="curve" smooth="yes"/>
      <point x="142" y="-15"/>
      <point x="111" y="183"/>
    </contour>
    <contour>
      <point x="471" y="751" type="line"/>
      <point x="643" y="874" type="line" smooth="yes"/>
      <point x="674" y="897"/>
      <point x="689" y="904"/>
      <point x="707" y="904" type="curve" smooth="yes"/>
      <point x="739" y="904"/>
      <point x="761" y="860"/>
      <point x="761" y="840" type="curve" smooth="yes"/>
      <point x="761" y="811"/>
      <point x="741" y="800"/>
      <point x="688" y="783" type="curve" smooth="yes"/>
      <point x="485" y="719" type="line"/>
    </contour>
  </outline>
</glyph>
<glyph name="Cdotaccent" format="1">
  <advance width="672"/>
  <unicode hex="010A"/>
  <outline>
    <contour>
      <point x="111" y="275" type="curve" smooth="yes"/>
      <point x="111" y="345"/>
      <point x="128" y="444"/>
      <point x="180" y="524" type="curve" smooth="yes"/>
      <point x="250" y="631"/>
      <point x="362" y="707"/>
      <point x="555" y="707" type="curve" smooth="yes"/>
      <point x="611" y="707"/>
      <point x="717" y="696"/>
      <point x="777" y="659" type="curve"/>
      <point x="738" y="480" type="line"/>
      <point x="700" y="480" type="line"/>
      <point x="699" y="571"/>
      <point x="674" y="661"/>
      <point x="557" y="661" type="curve" smooth="yes"/>
      <point x="354" y="661"/>
      <point x="280" y="412"/>
      <point x="280" y="235" type="curve" smooth="yes"/>
      <point x="280" y="96"/>
      <point x="344" y="31"/>
      <point x="434" y="31" type="curve" smooth="yes"/>
      <point x="546" y="31"/>
      <point x="601" y="116"/>
      <point x="665" y="220" type="curve"/>
      <point x="703" y="220" type="line"/>
      <point x="648" y="26" type="line"/>
      <point x="584" y="-7"/>
      <point x="503" y="-15"/>
      <point x="434" y="-15" type="curve" smooth="yes"/>
      <point x="142" y="-15"/>
      <point x="111" y="183"/>
    </contour>
    <contour>
      <point x="499" y="806" type="curve" smooth="yes"/>
      <point x="499" y="844"/>
      <point x="527" y="881"/>
      <point x="578" y="881" type="curve" smooth="yes"/>
      <point x="630" y="881"/>
      <point x="657" y="844"/>
      <point x="657" y="806" type="curve" smooth="yes"/>
      <point x="657" y="768"/>
      <point x="630" y="732"/>
      <point x="578" y="732" type="curve" smooth="yes"/>
      <point x="527" y="732"/>
      <point x="499" y="768"/>
    </contour>
  </outline>
</glyph>
<glyph name="cdotaccent" format="1">
  <advance width="456"/>
  <unicode hex="010B"/>
  <outline>
    <contour>
      <point x="73" y="155" type="curve" smooth="yes"/>
      <point x="73" y="310"/>
      <point x="179" y="502"/>
      <point x="384" y="502" type="curve" smooth="yes"/>
      <point x="476" y="502"/>
      <point x="533" y="462"/>
      <point x="533" y="405" type="curve" smooth="yes"/>
      <point x="533" y="369"/>
      <point x="481" y="342"/>
      <point x="446" y="342" type="curve" smooth="yes"/>
      <point x="419" y="342"/>
      <point x="411" y="364"/>
      <point x="405" y="389" type="curve" smooth="yes"/>
      <point x="392" y="442"/>
      <point x="381" y="456"/>
      <point x="361" y="456" type="curve" smooth="yes"/>
      <point x="298" y="456"/>
      <point x="226" y="298"/>
      <point x="226" y="162" type="curve" smooth="yes"/>
      <point x="226" y="101"/>
      <point x="244" y="54"/>
      <point x="297" y="54" type="curve" smooth="yes"/>
      <point x="363" y="54"/>
      <point x="410" y="119"/>
      <point x="448" y="180" type="curve"/>
      <point x="478" y="159" type="line"/>
      <point x="406" y="16"/>
      <point x="309" y="-12"/>
      <point x="234" y="-12" type="curve" smooth="yes"/>
      <point x="146" y="-12"/>
      <point x="73" y="34"/>
    </contour>
    <contour>
      <point x="336" y="635" type="curve" smooth="yes"/>
      <point x="336" y="673"/>
      <point x="364" y="710"/>
      <point x="415" y="710" type="curve" smooth="yes"/>
      <point x="467" y="710"/>
      <point x="494" y="673"/>
      <point x="494" y="635" type="curve" smooth="yes"/>
      <point x="494" y="597"/>
      <point x="467" y="561"/>
      <point x="415" y="561" type="curve" smooth="yes"/>
      <point x="364" y="561"/>
      <point x="336" y="597"/>
    </contour>
  </outline>
</glyph>
<glyph name="Ccaron" format="1">
  <advance width="672"/>
  <unicode hex="010C"/>
  <outline>
    <contour>
      <point x="111" y="275" type="curve" smooth="yes"/>
      <point x="111" y="345"/>
      <point x="128" y="444"/>
      <point x="180" y="524" type="curve" smooth="yes"/>
      <point x="250" y="631"/>
      <point x="362" y="707"/>
      <point x="555" y="707" type="curve" smooth="yes"/>
      <point x="611" y="707"/>
      <point x="717" y="696"/>
      <point x="777" y="659" type="curve"/>
      <point x="738" y="480" type="line"/>
      <point x="700" y="480" type="line"/>
      <point x="699" y="571"/>
      <point x="674" y="661"/>
      <point x="557" y="661" type="curve" smooth="yes"/>
      <point x="354" y="661"/>
      <point x="280" y="412"/>
      <point x="280" y="235" type="curve" smooth="yes"/>
      <point x="280" y="96"/>
      <point x="344" y="31"/>
      <point x="434" y="31" type="curve" smooth="yes"/>
      <point x="546" y="31"/>
      <point x="601" y="116"/>
      <point x="665" y="220" type="curve"/>
      <point x="703" y="220" type="line"/>
      <point x="648" y="26" type="line"/>
      <point x="584" y="-7"/>
      <point x="503" y="-15"/>
      <point x="434" y="-15" type="curve" smooth="yes"/>
      <point x="142" y="-15"/>
      <point x="111" y="183"/>
    </contour>
    <contour>
      <point x="406" y="886" type="line"/>
      <point x="430" y="916" type="line"/>
      <point x="536" y="856" type="line" smooth="yes"/>
      <point x="555" y="845"/>
      <point x="565" y="841"/>
      <point x="577" y="841" type="curve" smooth="yes"/>
      <point x="587" y="841"/>
      <point x="600" y="846"/>
      <point x="619" y="854" type="curve" smooth="yes"/>
      <point x="770" y="916" type="line"/>
      <point x="787" y="886" type="line"/>
      <point x="615" y="762" type="line" smooth="yes"/>
      <point x="597" y="749"/>
      <point x="580" y="736"/>
      <point x="563" y="736" type="curve" smooth="yes"/>
      <point x="545" y="736"/>
      <point x="532" y="749"/>
      <point x="518" y="764" type="curve" smooth="yes"/>
    </contour>
  </outline>
</glyph>
<glyph name="Dcaron" format="1">
  <advance width="774"/>
  <unicode hex="010E"/>
  <outline>
    <contour>
      <point x="292" y="97" type="line" smooth="yes"/>
      <point x="282" y="54"/>
      <point x="312" y="46"/>
      <point x="360" y="46" type="curve" smooth="yes"/>
      <point x="592" y="46"/>
      <point x="656" y="336"/>
      <point x="656" y="454" type="curve" smooth="yes"/>
      <point x="656" y="549"/>
      <point x="633" y="646"/>
      <point x="490" y="646" type="curve" smooth="yes"/>
      <point x="426" y="646"/>
      <point x="412" y="639"/>
      <point x="405" y="606" type="curve" smooth="yes"/>
    </contour>
    <contour>
      <point x="40" y="0" type="line"/>
      <point x="49" y="38" type="line"/>
      <point x="94" y="42" type="line" smooth="yes"/>
      <point x="123" y="44"/>
      <point x="130" y="62"/>
      <point x="138" y="98" type="curve" smooth="yes"/>
      <point x="249" y="594" type="line" smooth="yes"/>
      <point x="257" y="630"/>
      <point x="258" y="647"/>
      <point x="230" y="649" type="curve" smooth="yes"/>
      <point x="179" y="654" type="line"/>
      <point x="189" y="692" type="line"/>
      <point x="464" y="692" type="line" smooth="yes"/>
      <point x="583" y="691"/>
      <point x="668" y="672"/>
      <point x="727" y="627" type="curve" smooth="yes"/>
      <point x="786" y="582"/>
      <point x="819" y="510"/>
      <point x="819" y="403" type="curve" smooth="yes"/>
      <point x="819" y="362"/>
      <point x="807" y="266"/>
      <point x="753" y="182" type="curve" smooth="yes"/>
      <point x="684" y="73"/>
      <point x="579" y="0"/>
      <point x="361" y="0" type="curve" smooth="yes"/>
    </contour>
    <contour>
      <point x="382" y="886" type="line"/>
      <point x="406" y="916" type="line"/>
      <point x="512" y="856" type="line" smooth="yes"/>
      <point x="531" y="845"/>
      <point x="541" y="841"/>
      <point x="553" y="841" type="curve" smooth="yes"/>
      <point x="563" y="841"/>
      <point x="576" y="846"/>
      <point x="595" y="854" type="curve" smooth="yes"/>
      <point x="746" y="916" type="line"/>
      <point x="763" y="886" type="line"/>
      <point x="591" y="762" type="line" smooth="yes"/>
      <point x="573" y="749"/>
      <point x="556" y="736"/>
      <point x="539" y="736" type="curve" smooth="yes"/>
      <point x="521" y="736"/>
      <point x="508" y="749"/>
      <point x="494" y="764" type="curve" smooth="yes"/>
    </contour>
  </outline>
</glyph>
<glyph name="hcircumflex" format="1">
  <advance width="629"/>
  <unicode hex="0125"/>
  <outline>
    <contour>
      <point x="79" y="-12" type="line"/>
      <point x="222" y="633" type="line" smooth="yes"/>
      <point x="229" y="662"/>
      <point x="225" y="674"/>
      <point x="206" y="676" type="curve" smooth="yes"/>
      <point x="148" y="683" type="line"/>
      <point x="156" y="715" type="line"/>
      <point x="385" y="742" type="line"/>
      <point x="390" y="737" type="line"/>
      <point x="283" y="295" type="line"/>
      <point x="288" y="295" type="line"/>
      <point x="342" y="397"/>
      <point x="431" y="502"/>
      <point x="536" y="502" type="curve" smooth="yes"/>
      <point x="615" y="502"/>
      <point x="641" y="439"/>
      <point x="612" y="347" type="curve" smooth="yes"/>
      <point x="540" y="115" type="line" smooth="yes"/>
      <point x="532" y="87"/>
      <point x="532" y="68"/>
      <point x="551" y="68" type="curve" smooth="yes"/>
      <point x="574" y="68"/>
      <point x="612" y="121"/>
      <point x="637" y="167" type="curve"/>
      <point x="666" y="152" type="line"/>
      <point x="626" y="65"/>
      <point x="565" y="-12"/>
      <point x="470" y="-12" type="curve" smooth="yes"/>
      <point x="406" y="-12"/>
      <point x="375" y="30"/>
      <point x="399" y="113" type="curve" smooth="yes"/>
      <point x="473" y="364" type="line" smooth="yes"/>
      <point x="485" y="401"/>
      <point x="475" y="422"/>
      <point x="453" y="422" type="curve" smooth="yes"/>
      <point x="404" y="422"/>
      <point x="322" y="314"/>
      <point x="283" y="213" type="curve" smooth="yes"/>
      <point x="260" y="156"/>
      <point x="245" y="102"/>
      <point x="218" y="0" type="curve"/>
    </contour>
    <contour>
      <point x="294" y="787" type="line"/>
      <point x="474" y="960" type="line" smooth="yes"/>
      <point x="490" y="976"/>
      <point x="507" y="987"/>
      <point x="522" y="987" type="curve" smooth="yes"/>
      <point x="539" y="987"/>
      <point x="548" y="974"/>
      <point x="558" y="959" type="curve" smooth="yes"/>
      <point x="672" y="787" type="line"/>
      <point x="643" y="760" type="line"/>
      <point x="530" y="856" type="line" smooth="yes"/>
      <point x="520" y="865"/>
      <point x="510" y="873"/>
      <point x="500" y="873" type="curve" smooth="yes"/>
      <point x="491" y="873"/>
      <point x="476" y="865"/>
      <point x="462" y="856" type="curve" smooth="yes"/>
      <point x="317" y="760" type="line"/>
    </contour>
  </outline>
</glyph>
<glyph name="Itilde" format="1">
  <advance width="386"/>
  <unicode hex="0128"/>
  <outline>
    <contour>
      <point x="162" y="741" type="line"/>
      <point x="180" y="784"/>
      <point x="215" y="863"/>
      <point x="297" y="863" type="curve" smooth="yes"/>
      <point x="325" y="863"/>
      <point x="357" y="853"/>
      <point x="389" y="842" type="curve" smooth="yes"/>
      <point x="422" y="832"/>
      <point x="454" y="821"/>
      <point x="480" y="821" type="curve" smooth="yes"/>
      <point x="517" y="821"/>
      <point x="533" y="837"/>
      <point x="555" y="876" type="curve"/>
      <point x="587" y="858" type="line"/>
      <point x="569" y="815"/>
      <point x="534" y="736"/>
      <point x="452" y="736" type="curve" smooth="yes"/>
      <point x="427" y="736"/>
      <point x="396" y="747"/>
      <point x="364" y="757" type="curve" smooth="yes"/>
      <point x="332" y="768"/>
      <point x="299" y="778"/>
      <point x="269" y="778" type="curve" smooth="yes"/>
      <point x="232" y="778"/>
      <point x="216" y="762"/>
      <point x="194" y="723" type="curve"/>
    </contour>
    <contour>
      <point x="40" y="0" type="line"/>
      <point x="49" y="38" type="line"/>
      <point x="94" y="42" type="line" smooth="yes"/>
      <point x="123" y="44"/>
      <point x="130" y="62"/>
      <point x="138" y="98" type="curve" smooth="yes"/>
      <point x="249" y="594" type="line" smooth="yes"/>
      <point x="257" y="630"/>
      <point x="258" y="647"/>
      <point x="230" y="649" type="curve" smooth="yes"/>
      <point x="179" y="654" type="line"/>
      <point x="189" y="692" type="line"/>
      <point x="501" y="692" type="line"/>
      <point x="491" y="654" type="line"/>
      <point x="447" y="650" type="line" smooth="yes"/>
      <point x="418" y="648"/>
      <point x="411" y="630"/>
      <point x="403" y="594" type="curve" smooth="yes"/>
      <point x="292" y="98" type="line" smooth="yes"/>
      <point x="284" y="62"/>
      <point x="283" y="45"/>
      <point x="311" y="42" type="curve" smooth="yes"/>
      <point x="361" y="38" type="line"/>
      <point x="352" y="0" type="line"/>
    </contour>
  </outline>
</glyph>
<glyph name="Ibreve" format="1">
  <advance width="386"/>
  <unicode hex="012C"/>
  <outline>
    <contour>
      <point x="40" y="0" type="line"/>
      <point x="49" y="38" type="line"/>
      <point x="94" y="42" type="line" smooth="yes"/>
      <point x="123" y="44"/>
      <point x="130" y="62"/>
      <point x="138" y="98" type="curve" smooth="yes"/>
      <point x="249" y="594" type="line" smooth="yes"/>
      <point x="257" y="630"/>
      <point x="258" y="647"/>
      <point x="230" y="649" type="curve" smooth="yes"/>
      <point x="179" y="654" type="line"/>
      <point x="189" y="692" type="line"/>
      <point x="501" y="692" type="line"/>
      <point x="491" y="654" type="line"/>
      <point x="447" y="650" type="line" smooth="yes"/>
      <point x="418" y="648"/>
      <point x="411" y="630"/>
      <point x="403" y="594" type="curve" smooth="yes"/>
      <point x="292" y="98" type="line" smooth="yes"/>
      <point x="284" y="62"/>
      <point x="283" y="45"/>
      <point x="311" y="42" type="curve" smooth="yes"/>
      <point x="361" y="38" type="line"/>
      <point x="352" y="0" type="line"/>
    </contour>
    <contour>
      <point x="231" y="892" type="curve"/>
      <point x="272" y="892" type="line"/>
      <point x="268" y="868"/>
      <point x="285" y="823"/>
      <point x="380" y="823" type="curve" smooth="yes"/>
      <point x="475" y="823"/>
      <point x="512" y="868"/>
      <point x="520" y="892" type="curve"/>
      <point x="561" y="892" type="line"/>
      <point x="544" y="818"/>
      <point x="497" y="746"/>
      <point x="362" y="746" type="curve" smooth="yes"/>
      <point x="227" y="746"/>
      <point x="214" y="818"/>
    </contour>
  </outline>
</glyph>
<glyph name="ibreve" format="1">
  <advance width="339"/>
  <unicode hex="012D"/>
  <outline>
    <contour>
      <point x="108" y="107" type="curve" smooth="yes"/>
      <point x="185" y="392" type="line" smooth="yes"/>
      <point x="192" y="419"/>
      <point x="188" y="432"/>
      <point x="168" y="434" type="curve" smooth="yes"/>
      <point x="110" y="440" type="line"/>
      <point x="118" y="473" type="line"/>
      <point x="348" y="502" type="line"/>
      <point x="354" y="496" type="line"/>
      <point x="251" y="115" type="line" smooth="yes"/>
      <point x="244" y="89"/>
      <point x="243" y="68"/>
      <point x="262" y="68" type="curve" smooth="yes"/>
      <point x="285" y="68"/>
      <point x="323" y="121"/>
      <point x="348" y="166" type="curve"/>
      <point x="378" y="149" type="line"/>
      <point x="336" y="65"/>
      <point x="275" y="-12"/>
      <point x="178" y="-12" type="curve" smooth="yes"/>
      <point x="111" y="-12"/>
      <point x="87" y="30"/>
    </contour>
    <contour>
      <point x="167" y="714" type="curve"/>
      <point x="201" y="714" type="line"/>
      <point x="196" y="688"/>
      <point x="201" y="639"/>
      <point x="301" y="639" type="curve" smooth="yes"/>
      <point x="404" y="639"/>
      <point x="435" y="688"/>
      <point x="445" y="714" type="curve"/>
      <point x="479" y="714" type="line"/>
      <point x="463" y="632"/>
      <point x="424" y="556"/>
      <point x="285" y="556" type="curve" smooth="yes"/>
      <point x="146" y="556"/>
      <point x="144" y="642"/>
    </contour>
  </outline>
</glyph>
<glyph name="Lacute" format="1">
  <advance width="586"/>
  <unicode hex="0139"/>
  <outline>
    <contour>
      <point x="40" y="0" type="line"/>
      <point x="49" y="38" type="line"/>
      <point x="94" y="42" type="line" smooth="yes"/>
      <point x="123" y="45"/>
      <point x="130" y="62"/>
      <point x="138" y="98" type="curve" smooth="yes"/>
      <point x="249" y="594" type="line" smooth="yes"/>
      <point x="257" y="630"/>
      <point x="258" y="648"/>
      <point x="230" y="650" type="curve" smooth="yes"/>
      <point x="179" y="654" type="line"/>
      <point x="189" y="692" type="line"/>
      <point x="501" y="692" type="line"/>
      <point x="491" y="654" type="line"/>
      <point x="447" y="650" type="line" smooth="yes"/>
      <point x="418" y="647"/>
      <point x="411" y="630"/>
      <point x="403" y="594" type="curve" smooth="yes"/>
      <point x="293" y="101" type="line" smooth="yes"/>
      <point x="282" y="52"/>
      <point x="310" y="46"/>
      <point x="384" y="46" type="curve" smooth="yes"/>
      <point x="458" y="46"/>
      <point x="506" y="70"/>
      <point x="558" y="153" type="curve" smooth="yes"/>
      <point x="588" y="201" type="line"/>
      <point x="626" y="201" type="line"/>
      <point x="568" y="0" type="line"/>
    </contour>
    <contour>
      <point x="383" y="751" type="line"/>
      <point x="555" y="874" type="line" smooth="yes"/>
      <point x="586" y="897"/>
      <point x="601" y="904"/>
      <point x="619" y="904" type="curve" smooth="yes"/>
      <point x="651" y="904"/>
      <point x="673" y="860"/>
      <point x="673" y="840" type="curve" smooth="yes"/>
      <point x="673" y="811"/>
      <point x="653" y="800"/>
      <point x="600" y="783" type="curve" smooth="yes"/>
      <point x="397" y="719" type="line"/>
    </contour>
  </outline>
</glyph>
<glyph name="uni013B" format="1">
  <advance width="586"/>
  <unicode hex="013B"/>
  <outline>
    <contour>
      <point x="177" y="-292" type="line"/>
      <point x="208" y="-262"/>
      <point x="231" y="-234"/>
      <point x="231" y="-201" type="curve" smooth="yes"/>
      <point x="231" y="-169"/>
      <point x="211" y="-157"/>
      <point x="211" y="-125" type="curve" smooth="yes"/>
      <point x="211" y="-86"/>
      <point x="238" y="-60"/>
      <point x="279" y="-60" type="curve" smooth="yes"/>
      <point x="322" y="-60"/>
      <point x="343" y="-96"/>
      <point x="343" y="-131" type="curve" smooth="yes"/>
      <point x="343" y="-209"/>
      <point x="268" y="-266"/>
      <point x="197" y="-315" type="curve"/>
    </contour>
    <contour>
      <point x="40" y="0" type="line"/>
      <point x="49" y="38" type="line"/>
      <point x="94" y="42" type="line" smooth="yes"/>
      <point x="123" y="45"/>
      <point x="130" y="62"/>
      <point x="138" y="98" type="curve" smooth="yes"/>
      <point x="249" y="594" type="line" smooth="yes"/>
      <point x="257" y="630"/>
      <point x="258" y="648"/>
      <point x="230" y="650" type="curve" smooth="yes"/>
      <point x="179" y="654" type="line"/>
      <point x="189" y="692" type="line"/>
      <point x="501" y="692" type="line"/>
      <point x="491" y="654" type="line"/>
      <point x="447" y="650" type="line" smooth="yes"/>
      <point x="418" y="647"/>
      <point x="411" y="630"/>
      <point x="403" y="594" type="curve" smooth="yes"/>
      <point x="293" y="101" type="line" smooth="yes"/>
      <point x="282" y="52"/>
      <point x="310" y="46"/>
      <point x="384" y="46" type="curve" smooth="yes"/>
      <point x="458" y="46"/>
      <point x="506" y="70"/>
      <point x="558" y="153" type="curve" smooth="yes"/>
      <point x="588" y="201" type="line"/>
      <point x="626" y="201" type="line"/>
      <point x="568" y="0" type="line"/>
    </contour>
  </outline>
</glyph>
<glyph name="Lslash" format="1">
  <advance width="592"/>
  <unicode hex="0141"/>
  <outline>
    <contour>
      <point x="46" y="0" type="line"/>
      <point x="55" y="38" type="line"/>
      <point x="100" y="42" type="line" smooth="yes"/>
      <point x="129" y="45"/>
      <point x="136" y="62"/>
      <point x="144" y="98" type="curve" smooth="yes"/>
      <point x="177" y="246" type="line"/>
      <point x="70" y="178" type="line"/>
      <point x="85" y="244" type="line"/>
      <point x="192" y="311" type="line"/>
      <point x="255" y="594" type="line" smooth="yes"/>
      <point x="263" y="630"/>
      <point x="264" y="648"/>
      <point x="236" y="650" type="curve" smooth="yes"/>
      <point x="185" y="654" type="line"/>
      <point x="195" y="692" type="line"/>
      <point x="507" y="692" type="line"/>
      <point x="497" y="654" type="line"/>
      <point x="453" y="650" type="line" smooth="yes"/>
      <point x="424" y="647"/>
      <point x="417" y="630"/>
      <point x="409" y="594" type="curve" smooth="yes"/>
      <point x="372" y="425" type="line"/>
      <point x="520" y="519" type="line"/>
      <point x="505" y="453" type="line"/>
      <point x="357" y="359" type="line"/>
      <point x="299" y="101" type="line" smooth="yes"/>
      <point x="288" y="52"/>
      <point x="316" y="46"/>
      <point x="390" y="46" type="curve" smooth="yes"/>
      <point x="464" y="46"/>
      <point x="512" y="70"/>
      <point x="564" y="153" type="curve" smooth="yes"/>
      <point x="594" y="201" type="line"/>
      <point x="632" y="201" type="line"/>
      <point x="574" y="0" type="line"/>
    </contour>
  </outline>
</glyph>
<glyph name="Eng" format="1">
  <advance width="765"/>
  <unicode hex="014A"/>
  <outline>
    <contour>
      <point x="40" y="0" type="line"/>
      <point x="49" y="38" type="line"/>
      <point x="94" y="42" type="line" smooth="yes"/>
      <point x="123" y="44"/>
      <point x="130" y="62"/>
      <point x="138" y="98" type="curve" smooth="yes"/>
      <point x="249" y="594" type="line" smooth="yes"/>
      <point x="257" y="630"/>
      <point x="258" y="647"/>
      <point x="230" y="649" type="curve" smooth="yes"/>
      <point x="179" y="654" type="line"/>
      <point x="189" y="692" type="line"/>
      <point x="425" y="692" type="line"/>
      <point x="401" y="581" type="line"/>
      <point x="403" y="581" type="line"/>
      <point x="485" y="654"/>
      <point x="579" y="707"/>
      <point x="676" y="707" type="curve" smooth="yes"/>
      <point x="795" y="707"/>
      <point x="833" y="629"/>
      <point x="799" y="486" type="curve" smooth="yes"/>
      <point x="690" y="27" type="line" smooth="yes"/>
      <point x="635" y="-206"/>
      <point x="511" y="-242"/>
      <point x="388" y="-242" type="curve" smooth="yes"/>
      <point x="284" y="-242"/>
      <point x="236" y="-181"/>
      <point x="236" y="-140" type="curve" smooth="yes"/>
      <point x="236" y="-98"/>
      <point x="278" y="-78"/>
      <point x="315" y="-78" type="curve" smooth="yes"/>
      <point x="386" y="-78"/>
      <point x="350" y="-196"/>
      <point x="408" y="-196" type="curve" smooth="yes"/>
      <point x="469" y="-196"/>
      <point x="510" y="-91"/>
      <point x="541" y="47" type="curve" smooth="yes"/>
      <point x="648" y="506" type="line" smooth="yes"/>
      <point x="666" y="584"/>
      <point x="652" y="625"/>
      <point x="592" y="625" type="curve" smooth="yes"/>
      <point x="534" y="625"/>
      <point x="469" y="572"/>
      <point x="438" y="543" type="curve" smooth="yes"/>
      <point x="416" y="523"/>
      <point x="378" y="478"/>
      <point x="366" y="425" type="curve" smooth="yes"/>
      <point x="292" y="98" type="line" smooth="yes"/>
      <point x="284" y="62"/>
      <point x="283" y="44"/>
      <point x="311" y="42" type="curve" smooth="yes"/>
      <point x="363" y="38" type="line"/>
      <point x="354" y="0" type="line"/>
    </contour>
  </outline>
</glyph>
<glyph name="Ohungarumlaut" format="1">
  <advance width="761"/>
  <unicode hex="0150"/>
  <outline>
    <contour>
      <point x="600" y="754" type="line"/>
      <point x="703" y="871" type="line" smooth="yes"/>
      <point x="719" y="889"/>
      <point x="735" y="907"/>
      <point x="752" y="907" type="curve" smooth="yes"/>
      <point x="780" y="907"/>
      <point x="811" y="862"/>
      <point x="811" y="839" type="curve" smooth="yes"/>
      <point x="811" y="822"/>
      <point x="796" y="810"/>
      <point x="762" y="793" type="curve" smooth="yes"/>
      <point x="623" y="723" type="line"/>
    </contour>
    <contour>
      <point x="401" y="754" type="line"/>
      <point x="504" y="871" type="line" smooth="yes"/>
      <point x="520" y="889"/>
      <point x="536" y="907"/>
      <point x="553" y="907" type="curve" smooth="yes"/>
      <point x="581" y="907"/>
      <point x="612" y="862"/>
      <point x="612" y="839" type="curve" smooth="yes"/>
      <point x="612" y="822"/>
      <point x="597" y="810"/>
      <point x="563" y="793" type="curve" smooth="yes"/>
      <point x="424" y="723" type="line"/>
    </contour>
    <contour>
      <point x="278" y="190" type="curve" smooth="yes"/>
      <point x="278" y="88"/>
      <point x="319" y="31"/>
      <point x="403" y="31" type="curve" smooth="yes"/>
      <point x="551" y="31"/>
      <point x="638" y="312"/>
      <point x="638" y="506" type="curve" smooth="yes"/>
      <point x="638" y="594"/>
      <point x="611" y="661"/>
      <point x="522" y="661" type="curve" smooth="yes"/>
      <point x="357" y="661"/>
      <point x="278" y="349"/>
    </contour>
    <contour>
      <point x="113" y="264" type="curve" smooth="yes"/>
      <point x="113" y="316"/>
      <point x="117" y="406"/>
      <point x="170" y="508" type="curve" smooth="yes"/>
      <point x="224" y="611"/>
      <point x="326" y="707"/>
      <point x="507" y="707" type="curve" smooth="yes"/>
      <point x="675" y="707"/>
      <point x="803" y="621"/>
      <point x="803" y="419" type="curve" smooth="yes"/>
      <point x="803" y="366"/>
      <point x="795" y="274"/>
      <point x="744" y="176" type="curve" smooth="yes"/>
      <point x="691" y="74"/>
      <point x="600" y="-15"/>
      <point x="420" y="-15" type="curve" smooth="yes"/>
      <point x="219" y="-15"/>
      <point x="113" y="95"/>
    </contour>
  </outline>
</glyph>
<glyph name="oe" format="1">
  <advance width="811"/>
  <unicode hex="0153"/>
  <outline>
    <contour>
      <point x="563" y="232" type="curve"/>
      <point x="675" y="255"/>
      <point x="740" y="334"/>
      <point x="740" y="413" type="curve" smooth="yes"/>
      <point x="740" y="440"/>
      <point x="727" y="456"/>
      <point x="702" y="456" type="curve" smooth="yes"/>
      <point x="643" y="456"/>
      <point x="577" y="347"/>
    </contour>
    <contour>
      <point x="221" y="107" type="curve" smooth="yes"/>
      <point x="221" y="57"/>
      <point x="244" y="34"/>
      <point x="280" y="34" type="curve" smooth="yes"/>
      <point x="386" y="34"/>
      <point x="445" y="300"/>
      <point x="445" y="374" type="curve" smooth="yes"/>
      <point x="445" y="416"/>
      <point x="435" y="456"/>
      <point x="388" y="456" type="curve" smooth="yes"/>
      <point x="341" y="456"/>
      <point x="304" y="408"/>
      <point x="273" y="339" type="curve" smooth="yes"/>
      <point x="241" y="266"/>
      <point x="221" y="174"/>
    </contour>
    <contour>
      <point x="77" y="174" type="curve" smooth="yes"/>
      <point x="77" y="219"/>
      <point x="90" y="300"/>
      <point x="135" y="371" type="curve" smooth="yes"/>
      <point x="179" y="439"/>
      <point x="252" y="502"/>
      <point x="381" y="502" type="curve" smooth="yes"/>
      <point x="437" y="502"/>
      <point x="504" y="479"/>
      <point x="538" y="421" type="curve"/>
      <point x="595" y="473"/>
      <point x="656" y="502"/>
      <point x="717" y="502" type="curve" smooth="yes"/>
      <point x="804" y="502"/>
      <point x="867" y="457"/>
      <point x="867" y="386" type="curve" smooth="yes"/>
      <point x="867" y="355"/>
      <point x="860" y="322"/>
      <point x="821" y="286" type="curve" smooth="yes"/>
      <point x="778" y="248"/>
      <point x="707" y="216"/>
      <point x="559" y="187" type="curve"/>
      <point x="559" y="163" type="line" smooth="yes"/>
      <point x="559" y="107"/>
      <point x="576" y="54"/>
      <point x="637" y="54" type="curve" smooth="yes"/>
      <point x="695" y="54"/>
      <point x="742" y="100"/>
      <point x="795" y="176" type="curve"/>
      <point x="825" y="152" type="line"/>
      <point x="752" y="20"/>
      <point x="658" y="-12"/>
      <point x="581" y="-12" type="curve" smooth="yes"/>
      <point x="533" y="-12"/>
      <point x="482" y="8"/>
      <point x="453" y="65" type="curve"/>
      <point x="410" y="16"/>
      <point x="338" y="-12"/>
      <point x="280" y="-12" type="curve" smooth="yes"/>
      <point x="141" y="-12"/>
      <point x="77" y="66"/>
    </contour>
  </outline>
</glyph>
<glyph name="uni0157" format="1">
  <advance width="440"/>
  <unicode hex="0157"/>
  <outline>
    <contour>
      <point x="-41" y="-304" type="line"/>
      <point x="-10" y="-274"/>
      <point x="13" y="-246"/>
      <point x="13" y="-213" type="curve" smooth="yes"/>
      <point x="13" y="-181"/>
      <point x="-7" y="-169"/>
      <point x="-7" y="-137" type="curve" smooth="yes"/>
      <point x="-7" y="-98"/>
      <point x="20" y="-72"/>
      <point x="61" y="-72" type="curve" smooth="yes"/>
      <point x="104" y="-72"/>
      <point x="125" y="-108"/>
      <point x="125" y="-143" type="curve" smooth="yes"/>
      <point x="125" y="-221"/>
      <point x="50" y="-278"/>
      <point x="-21" y="-327" type="curve"/>
    </contour>
    <contour>
      <point x="86" y="-12" type="line"/>
      <point x="179" y="391" type="line" smooth="yes"/>
      <point x="185" y="418"/>
      <point x="183" y="432"/>
      <point x="164" y="434" type="curve" smooth="yes"/>
      <point x="105" y="440" type="line"/>
      <point x="112" y="473" type="line"/>
      <point x="325" y="502" type="line"/>
      <point x="330" y="497" type="line"/>
      <point x="293" y="352" type="line"/>
      <point x="298" y="352" type="line"/>
      <point x="348" y="443"/>
      <point x="409" y="502"/>
      <point x="470" y="502" type="curve" smooth="yes"/>
      <point x="508" y="502"/>
      <point x="532" y="483"/>
      <point x="532" y="443" type="curve" smooth="yes"/>
      <point x="532" y="404"/>
      <point x="504" y="357"/>
      <point x="464" y="357" type="curve" smooth="yes"/>
      <point x="446" y="357"/>
      <point x="430" y="366"/>
      <point x="416" y="376" type="curve" smooth="yes"/>
      <point x="403" y="385"/>
      <point x="390" y="392"/>
      <point x="378" y="392" type="curve" smooth="yes"/>
      <point x="346" y="392"/>
      <point x="312" y="322"/>
      <point x="281" y="213" type="curve" smooth="yes"/>
      <point x="262" y="146"/>
      <point x="244" y="65"/>
      <point x="226" y="0" type="curve"/>
    </contour>
  </outline>
</glyph>
<glyph name="rcaron" format="1">
  <advance width="440"/>
  <unicode hex="0159"/>
  <outline>
    <contour>
      <point x="86" y="-12" type="line"/>
      <point x="179" y="391" type="line" smooth="yes"/>
      <point x="185" y="418"/>
      <point x="183" y="432"/>
      <point x="164" y="434" type="curve" smooth="yes"/>
      <point x="105" y="440" type="line"/>
      <point x="112" y="473" type="line"/>
      <point x="325" y="502" type="line"/>
      <point x="330" y="497" type="line"/>
      <point x="293" y="352" type="line"/>
      <point x="298" y="352" type="line"/>
      <point x="348" y="443"/>
      <point x="409" y="502"/>
      <point x="470" y="502" type="curve" smooth="yes"/>
      <point x="508" y="502"/>
      <point x="532" y="483"/>
      <point x="532" y="443" type="curve" smooth="yes"/>
      <point x="532" y="404"/>
      <point x="504" y="357"/>
      <point x="464" y="357" type="curve" smooth="yes"/>
      <point x="446" y="357"/>
      <point x="430" y="366"/>
      <point x="416" y="376" type="curve" smooth="yes"/>
      <point x="403" y="385"/>
      <point x="390" y="392"/>
      <point x="378" y="392" type="curve" smooth="yes"/>
      <point x="346" y="392"/>
      <point x="312" y="322"/>
      <point x="281" y="213" type="curve" smooth="yes"/>
      <point x="262" y="146"/>
      <point x="244" y="65"/>
      <point x="226" y="0" type="curve"/>
    </contour>
    <contour>
      <point x="254" y="720" type="line"/>
      <point x="283" y="747" type="line"/>
      <point x="396" y="651" type="line" smooth="yes"/>
      <point x="406" y="642"/>
      <point x="416" y="634"/>
      <point x="426" y="634" type="curve" smooth="yes"/>
      <point x="435" y="634"/>
      <point x="450" y="642"/>
      <point x="464" y="651" type="curve" smooth="yes"/>
      <point x="609" y="747" type="line"/>
      <point x="632" y="720" type="line"/>
      <point x="452" y="547" type="line" smooth="yes"/>
      <point x="436" y="531"/>
      <point x="419" y="520"/>
      <point x="404" y="520" type="curve" smooth="yes"/>
      <point x="387" y="520"/>
      <point x="378" y="533"/>
      <point x="368" y="548" type="curve" smooth="yes"/>
    </contour>
  </outline>
</glyph>
<glyph name="Sacute" format="1">
  <advance width="551"/>
  <unicode hex="015A"/>
  <outline>
    <contour>
      <point x="66" y="70" type="curve"/>
      <point x="89" y="247" type="line"/>
      <point x="126" y="247" type="line"/>
      <point x="140" y="105"/>
      <point x="221" y="31"/>
      <point x="298" y="31" type="curve" smooth="yes"/>
      <point x="378" y="31"/>
      <point x="418" y="85"/>
      <point x="418" y="151" type="curve" smooth="yes"/>
      <point x="418" y="218"/>
      <point x="374" y="265"/>
      <point x="315" y="299" type="curve" smooth="yes"/>
      <point x="225" y="351"/>
      <point x="157" y="406"/>
      <point x="157" y="497" type="curve" smooth="yes"/>
      <point x="157" y="583"/>
      <point x="212" y="707"/>
      <point x="412" y="707" type="curve" smooth="yes"/>
      <point x="467" y="707"/>
      <point x="552" y="695"/>
      <point x="605" y="653" type="curve"/>
      <point x="571" y="492" type="line"/>
      <point x="533" y="492" type="line"/>
      <point x="530" y="608"/>
      <point x="479" y="661"/>
      <point x="408" y="661" type="curve" smooth="yes"/>
      <point x="335" y="661"/>
      <point x="297" y="606"/>
      <point x="297" y="553" type="curve" smooth="yes"/>
      <point x="297" y="494"/>
      <point x="351" y="455"/>
      <point x="412" y="420" type="curve" smooth="yes"/>
      <point x="512" y="364"/>
      <point x="563" y="302"/>
      <point x="563" y="210" type="curve" smooth="yes"/>
      <point x="563" y="85"/>
      <point x="481" y="-13"/>
      <point x="300" y="-15" type="curve" smooth="yes"/>
      <point x="221" y="-15"/>
      <point x="118" y="8"/>
    </contour>
    <contour>
      <point x="328" y="751" type="line"/>
      <point x="500" y="874" type="line" smooth="yes"/>
      <point x="531" y="897"/>
      <point x="546" y="904"/>
      <point x="564" y="904" type="curve" smooth="yes"/>
      <point x="596" y="904"/>
      <point x="618" y="860"/>
      <point x="618" y="840" type="curve" smooth="yes"/>
      <point x="618" y="811"/>
      <point x="598" y="800"/>
      <point x="545" y="783" type="curve" smooth="yes"/>
      <point x="342" y="719" type="line"/>
    </contour>
  </outline>
</glyph>
<glyph name="Scaron" format="1">
  <advance width="551"/>
  <unicode hex="0160"/>
  <outline>
    <contour>
      <point x="66" y="70" type="curve"/>
      <point x="89" y="247" type="line"/>
      <point x="126" y="247" type="line"/>
      <point x="140" y="105"/>
      <point x="221" y="31"/>
      <point x="298" y="31" type="curve" smooth="yes"/>
      <point x="378" y="31"/>
      <point x="418" y="85"/>
      <point x="418" y="151" type="curve" smooth="yes"/>
      <point x="418" y="218"/>
      <point x="374" y="265"/>
      <point x="315" y="299" type="curve" smooth="yes"/>
      <point x="225" y="351"/>
      <point x="157" y="406"/>
      <point x="157" y="497" type="curve" smooth="yes"/>
      <point x="157" y="583"/>
      <point x="212" y="707"/>
      <point x="412" y="707" type="curve" smooth="yes"/>
      <point x="467" y="707"/>
      <point x="552" y="695"/>
      <point x="605" y="653" type="curve"/>
      <point x="571" y="492" type="line"/>
      <point x="533" y="492" type="line"/>
      <point x="530" y="608"/>
      <point x="479" y="661"/>
      <point x="408" y="661" type="curve" smooth="yes"/>
      <point x="335" y="661"/>
      <point x="297" y="606"/>
      <point x="297" y="553" type="curve" smooth="yes"/>
      <point x="297" y="494"/>
      <point x="351" y="455"/>
      <point x="412" y="420" type="curve" smooth="yes"/>
      <point x="512" y="364"/>
      <point x="563" y="302"/>
      <point x="563" y="210" type="curve" smooth="yes"/>
      <point x="563" y="85"/>
      <point x="481" y="-13"/>
      <point x="300" y="-15" type="curve" smooth="yes"/>
      <point x="221" y="-15"/>
      <point x="118" y="8"/>
    </contour>
    <contour>
      <point x="266" y="886" type="line"/>
      <point x="290" y="916" type="line"/>
      <point x="396" y="856" type="line" smooth="yes"/>
      <point x="415" y="845"/>
      <point x="425" y="841"/>
      <point x="437" y="841" type="curve" smooth="yes"/>
      <point x="447" y="841"/>
      <point x="460" y="846"/>
      <point x="479" y="854" type="curve" smooth="yes"/>
      <point x="630" y="916" type="line"/>
      <point x="647" y="886" type="line"/>
      <point x="475" y="762" type="line" smooth="yes"/>
      <point x="457" y="749"/>
      <point x="440" y="736"/>
      <point x="423" y="736" type="curve" smooth="yes"/>
      <point x="405" y="736"/>
      <point x="392" y="749"/>
      <point x="378" y="764" type="curve" smooth="yes"/>
    </contour>
  </outline>
</glyph>
<glyph name="scaron" format="1">
  <advance width="417"/>
  <unicode hex="0161"/>
  <outline>
    <contour>
      <point x="45" y="89" type="curve" smooth="yes"/>
      <point x="45" y="126"/>
      <point x="81" y="158"/>
      <point x="111" y="158" type="curve" smooth="yes"/>
      <point x="134" y="158"/>
      <point x="147" y="144"/>
      <point x="155" y="128" type="curve" smooth="yes"/>
      <point x="192" y="54"/>
      <point x="220" y="34"/>
      <point x="251" y="34" type="curve" smooth="yes"/>
      <point x="281" y="34"/>
      <point x="303" y="55"/>
      <point x="303" y="86" type="curve" smooth="yes"/>
      <point x="300" y="131"/>
      <point x="259" y="168"/>
      <point x="217" y="202" type="curve" smooth="yes"/>
      <point x="175" y="236"/>
      <point x="130" y="281"/>
      <point x="127" y="340" type="curve" smooth="yes"/>
      <point x="123" y="424"/>
      <point x="188" y="502"/>
      <point x="309" y="502" type="curve" smooth="yes"/>
      <point x="422" y="502"/>
      <point x="467" y="448"/>
      <point x="467" y="415" type="curve" smooth="yes"/>
      <point x="467" y="375"/>
      <point x="428" y="356"/>
      <point x="401" y="356" type="curve" smooth="yes"/>
      <point x="383" y="356"/>
      <point x="372" y="362"/>
      <point x="362" y="382" type="curve" smooth="yes"/>
      <point x="334" y="436"/>
      <point x="314" y="456"/>
      <point x="288" y="456" type="curve" smooth="yes"/>
      <point x="262" y="456"/>
      <point x="240" y="435"/>
      <point x="241" y="404" type="curve" smooth="yes"/>
      <point x="243" y="366"/>
      <point x="270" y="337"/>
      <point x="326" y="295" type="curve" smooth="yes"/>
      <point x="371" y="261"/>
      <point x="417" y="211"/>
      <point x="417" y="145" type="curve" smooth="yes"/>
      <point x="417" y="62"/>
      <point x="362" y="-12"/>
      <point x="225" y="-12" type="curve" smooth="yes"/>
      <point x="100" y="-12"/>
      <point x="45" y="45"/>
    </contour>
    <contour>
      <point x="179" y="720" type="line"/>
      <point x="208" y="747" type="line"/>
      <point x="321" y="651" type="line" smooth="yes"/>
      <point x="331" y="642"/>
      <point x="341" y="634"/>
      <point x="351" y="634" type="curve" smooth="yes"/>
      <point x="360" y="634"/>
      <point x="375" y="642"/>
      <point x="389" y="651" type="curve" smooth="yes"/>
      <point x="534" y="747" type="line"/>
      <point x="557" y="720" type="line"/>
      <point x="377" y="547" type="line" smooth="yes"/>
      <point x="361" y="531"/>
      <point x="344" y="520"/>
      <point x="329" y="520" type="curve" smooth="yes"/>
      <point x="312" y="520"/>
      <point x="303" y="533"/>
      <point x="293" y="548" type="curve" smooth="yes"/>
    </contour>
  </outline>
</glyph>
<glyph name="uni0162" format="1">
  <advance width="616"/>
  <unicode hex="0162"/>
  <outline>
    <contour>
      <point x="172" y="-243" type="curve"/>
      <point x="174" y="-211" type="line"/>
      <point x="230" y="-211"/>
      <point x="271" y="-196"/>
      <point x="275" y="-153" type="curve" smooth="yes"/>
      <point x="280" y="-109"/>
      <point x="237" y="-100"/>
      <point x="215" y="-98" type="curve"/>
      <point x="212" y="-90" type="line"/>
      <point x="278" y="0" type="line"/>
      <point x="142" y="0" type="line"/>
      <point x="151" y="38" type="line"/>
      <point x="210" y="42" type="line" smooth="yes"/>
      <point x="239" y="44"/>
      <point x="246" y="62"/>
      <point x="254" y="98" type="curve" smooth="yes"/>
      <point x="378" y="646" type="line"/>
      <point x="326" y="646" type="line" smooth="yes"/>
      <point x="260" y="646"/>
      <point x="222" y="615"/>
      <point x="195" y="562" type="curve" smooth="yes"/>
      <point x="164" y="501" type="line"/>
      <point x="126" y="501" type="line"/>
      <point x="169" y="692" type="line"/>
      <point x="757" y="692" type="line"/>
      <point x="714" y="501" type="line"/>
      <point x="676" y="501" type="line"/>
      <point x="673" y="562" type="line" smooth="yes"/>
      <point x="670" y="614"/>
      <point x="646" y="646"/>
      <point x="580" y="646" type="curve" smooth="yes"/>
      <point x="532" y="646" type="line"/>
      <point x="408" y="98" type="line" smooth="yes"/>
      <point x="400" y="62"/>
      <point x="399" y="45"/>
      <point x="427" y="43" type="curve" smooth="yes"/>
      <point x="491" y="38" type="line"/>
      <point x="482" y="0" type="line"/>
      <point x="336" y="0" type="line"/>
      <point x="292" y="-56" type="line"/>
      <point x="322" y="-60"/>
      <point x="386" y="-79"/>
      <point x="379" y="-151" type="curve" smooth="yes"/>
      <point x="371" y="-232"/>
      <point x="267" y="-246"/>
      <point x="220" y="-246" type="curve" smooth="yes"/>
      <point x="200" y="-246"/>
      <point x="189" y="-245"/>
    </contour>
  </outline>
</glyph>
<glyph name="uni0163" format="1">
  <advance width="359"/>
  <unicode hex="0163"/>
  <outline>
    <contour>
      <point x="35" y="-243" type="curve"/>
      <point x="36" y="-211" type="line"/>
      <point x="92" y="-211"/>
      <point x="133" y="-196"/>
      <point x="137" y="-153" type="curve" smooth="yes"/>
      <point x="142" y="-109"/>
      <point x="99" y="-100"/>
      <point x="77" y="-98" type="curve"/>
      <point x="74" y="-90" type="line"/>
      <point x="138" y="-3" type="line"/>
      <point x="107" y="12"/>
      <point x="93" y="48"/>
      <point x="109" y="111" type="curve" smooth="yes"/>
      <point x="193" y="442" type="line"/>
      <point x="110" y="442" type="line"/>
      <point x="122" y="490" type="line"/>
      <point x="203" y="490" type="line"/>
      <point x="223" y="564" type="line"/>
      <point x="374" y="641" type="line"/>
      <point x="387" y="633" type="line"/>
      <point x="343" y="490" type="line"/>
      <point x="463" y="490" type="line"/>
      <point x="451" y="442" type="line"/>
      <point x="333" y="442" type="line"/>
      <point x="251" y="111" type="line" smooth="yes"/>
      <point x="246" y="89"/>
      <point x="245" y="68"/>
      <point x="265" y="68" type="curve" smooth="yes"/>
      <point x="294" y="68"/>
      <point x="334" y="116"/>
      <point x="364" y="166" type="curve"/>
      <point x="392" y="147" type="line"/>
      <point x="346" y="59"/>
      <point x="279" y="-8"/>
      <point x="190" y="-12" type="curve"/>
      <point x="155" y="-56" type="line"/>
      <point x="185" y="-60"/>
      <point x="249" y="-79"/>
      <point x="242" y="-151" type="curve" smooth="yes"/>
      <point x="234" y="-232"/>
      <point x="130" y="-246"/>
      <point x="83" y="-246" type="curve" smooth="yes"/>
      <point x="63" y="-246"/>
      <point x="52" y="-245"/>
    </contour>
  </outline>
</glyph>
<glyph name="Tcaron" format="1">
  <advance width="616"/>
  <unicode hex="0164"/>
  <outline>
    <contour>
      <point x="126" y="501" type="line"/>
      <point x="169" y="692" type="line"/>
      <point x="757" y="692" type="line"/>
      <point x="714" y="501" type="line"/>
      <point x="676" y="501" type="line"/>
      <point x="673" y="562" type="line" smooth="yes"/>
      <point x="670" y="614"/>
      <point x="646" y="646"/>
      <point x="580" y="646" type="curve" smooth="yes"/>
      <point x="532" y="646" type="line"/>
      <point x="408" y="98" type="line" smooth="yes"/>
      <point x="400" y="62"/>
      <point x="399" y="45"/>
      <point x="427" y="43" type="curve" smooth="yes"/>
      <point x="491" y="38" type="line"/>
      <point x="482" y="0" type="line"/>
      <point x="142" y="0" type="line"/>
      <point x="151" y="38" type="line"/>
      <point x="210" y="42" type="line" smooth="yes"/>
      <point x="239" y="44"/>
      <point x="246" y="62"/>
      <point x="254" y="98" type="curve" smooth="yes"/>
      <point x="378" y="646" type="line"/>
      <point x="326" y="646" type="line" smooth="yes"/>
      <point x="260" y="646"/>
      <point x="222" y="615"/>
      <point x="195" y="562" type="curve" smooth="yes"/>
      <point x="164" y="501" type="line"/>
    </contour>
    <contour>
      <point x="321" y="886" type="line"/>
      <point x="345" y="916" type="line"/>
      <point x="451" y="856" type="line" smooth="yes"/>
      <point x="470" y="845"/>
      <point x="480" y="841"/>
      <point x="492" y="841" type="curve" smooth="yes"/>
      <point x="502" y="841"/>
      <point x="515" y="846"/>
      <point x="534" y="854" type="curve" smooth="yes"/>
      <point x="685" y="916" type="line"/>
      <point x="702" y="886" type="line"/>
      <point x="530" y="762" type="line" smooth="yes"/>
      <point x="512" y="749"/>
      <point x="495" y="736"/>
      <point x="478" y="736" type="curve" smooth="yes"/>
      <point x="460" y="736"/>
      <point x="447" y="749"/>
      <point x="433" y="764" type="curve" smooth="yes"/>
    </contour>
  </outline>
</glyph>
<glyph name="tcaron" format="1">
  <advance width="362"/>
  <unicode hex="0165"/>
  <outline>
    <contour>
      <point x="425" y="742" type="curve" smooth="yes"/>
      <point x="425" y="764"/>
      <point x="440" y="811"/>
      <point x="499" y="811" type="curve" smooth="yes"/>
      <point x="544" y="811"/>
      <point x="566" y="776"/>
      <point x="566" y="731" type="curve" smooth="yes"/>
      <point x="566" y="651"/>
      <point x="504" y="571"/>
      <point x="462" y="532" type="curve"/>
      <point x="434" y="555" type="line"/>
      <point x="455" y="590"/>
      <point x="463" y="641"/>
      <point x="463" y="654" type="curve" smooth="yes"/>
      <point x="463" y="689"/>
      <point x="425" y="706"/>
    </contour>
    <contour>
      <point x="109" y="111" type="curve" smooth="yes"/>
      <point x="193" y="442" type="line"/>
      <point x="110" y="442" type="line"/>
      <point x="122" y="490" type="line"/>
      <point x="203" y="490" type="line"/>
      <point x="223" y="564" type="line"/>
      <point x="374" y="641" type="line"/>
      <point x="387" y="633" type="line"/>
      <point x="343" y="490" type="line"/>
      <point x="463" y="490" type="line"/>
      <point x="451" y="442" type="line"/>
      <point x="333" y="442" type="line"/>
      <point x="251" y="111" type="line" smooth="yes"/>
      <point x="246" y="89"/>
      <point x="245" y="68"/>
      <point x="265" y="68" type="curve" smooth="yes"/>
      <point x="294" y="68"/>
      <point x="334" y="116"/>
      <point x="364" y="166" type="curve"/>
      <point x="392" y="147" type="line"/>
      <point x="344" y="56"/>
      <point x="274" y="-12"/>
      <point x="181" y="-12" type="curve" smooth="yes"/>
      <point x="123" y="-12"/>
      <point x="87" y="24"/>
    </contour>
  </outline>
</glyph>
<glyph name="utilde" format="1">
  <advance width="634"/>
  <unicode hex="0169"/>
  <outline>
    <contour>
      <point x="249" y="567" type="line"/>
      <point x="257" y="609"/>
      <point x="293" y="688"/>
      <point x="374" y="688" type="curve" smooth="yes"/>
      <point x="402" y="688"/>
      <point x="435" y="677"/>
      <point x="468" y="666" type="curve" smooth="yes"/>
      <point x="501" y="656"/>
      <point x="534" y="645"/>
      <point x="560" y="646" type="curve" smooth="yes"/>
      <point x="581" y="648"/>
      <point x="599" y="656"/>
      <point x="635" y="697" type="curve"/>
      <point x="657" y="684" type="line"/>
      <point x="625" y="620"/>
      <point x="603" y="562"/>
      <point x="530" y="562" type="curve" smooth="yes"/>
      <point x="509" y="562"/>
      <point x="478" y="573"/>
      <point x="445" y="583" type="curve" smooth="yes"/>
      <point x="412" y="594"/>
      <point x="376" y="604"/>
      <point x="346" y="604" type="curve" smooth="yes"/>
      <point x="309" y="604"/>
      <point x="293" y="588"/>
      <point x="271" y="549" type="curve"/>
    </contour>
    <contour>
      <point x="109" y="443" type="line"/>
      <point x="117" y="476" type="line"/>
      <point x="348" y="502" type="line"/>
      <point x="353" y="497" type="line"/>
      <point x="259" y="128" type="line" smooth="yes"/>
      <point x="249" y="91"/>
      <point x="250" y="68"/>
      <point x="278" y="68" type="curve" smooth="yes"/>
      <point x="325" y="68"/>
      <point x="407" y="199"/>
      <point x="443" y="285" type="curve" smooth="yes"/>
      <point x="465" y="335"/>
      <point x="481" y="388"/>
      <point x="510" y="490" type="curve"/>
      <point x="652" y="502" type="line"/>
      <point x="551" y="115" type="line" smooth="yes"/>
      <point x="543" y="89"/>
      <point x="544" y="68"/>
      <point x="563" y="68" type="curve" smooth="yes"/>
      <point x="586" y="68"/>
      <point x="623" y="121"/>
      <point x="649" y="166" type="curve"/>
      <point x="678" y="148" type="line"/>
      <point x="637" y="65"/>
      <point x="576" y="-12"/>
      <point x="479" y="-12" type="curve" smooth="yes"/>
      <point x="425" y="-12"/>
      <point x="397" y="28"/>
      <point x="415" y="96" type="curve" smooth="yes"/>
      <point x="446" y="210" type="line"/>
      <point x="442" y="210" type="line"/>
      <point x="379" y="94"/>
      <point x="296" y="-12"/>
      <point x="183" y="-12" type="curve" smooth="yes"/>
      <point x="103" y="-12"/>
      <point x="95" y="53"/>
      <point x="116" y="133" type="curve" smooth="yes"/>
      <point x="183" y="391" type="line" smooth="yes"/>
      <point x="191" y="421"/>
      <point x="187" y="435"/>
      <point x="168" y="437" type="curve" smooth="yes"/>
    </contour>
  </outline>
</glyph>
<glyph name="uring" format="1">
  <advance width="634"/>
  <unicode hex="016F"/>
  <outline>
    <contour>
      <point x="109" y="443" type="line"/>
      <point x="117" y="476" type="line"/>
      <point x="348" y="502" type="line"/>
      <point x="353" y="497" type="line"/>
      <point x="259" y="128" type="line" smooth="yes"/>
      <point x="249" y="91"/>
      <point x="250" y="68"/>
      <point x="278" y="68" type="curve" smooth="yes"/>
      <point x="325" y="68"/>
      <point x="407" y="199"/>
      <point x="443" y="285" type="curve" smooth="yes"/>
      <point x="465" y="335"/>
      <point x="481" y="388"/>
      <point x="510" y="490" type="curve"/>
      <point x="652" y="502" type="line"/>
      <point x="551" y="115" type="line" smooth="yes"/>
      <point x="543" y="89"/>
      <point x="544" y="68"/>
      <point x="563" y="68" type="curve" smooth="yes"/>
      <point x="586" y="68"/>
      <point x="623" y="121"/>
      <point x="649" y="166" type="curve"/>
      <point x="678" y="148" type="line"/>
      <point x="637" y="65"/>
      <point x="576" y="-12"/>
      <point x="479" y="-12" type="curve" smooth="yes"/>
      <point x="425" y="-12"/>
      <point x="397" y="28"/>
      <point x="415" y="96" type="curve" smooth="yes"/>
      <point x="446" y="210" type="line"/>
      <point x="442" y="210" type="line"/>
      <point x="379" y="94"/>
      <point x="296" y="-12"/>
      <point x="183" y="-12" type="curve" smooth="yes"/>
      <point x="103" y="-12"/>
      <point x="95" y="53"/>
      <point x="116" y="133" type="curve" smooth="yes"/>
      <point x="183" y="391" type="line" smooth="yes"/>
      <point x="191" y="421"/>
      <point x="187" y="435"/>
      <point x="168" y="437" type="curve" smooth="yes"/>
    </contour>
    <contour>
      <point x="384" y="624" type="curve" smooth="yes"/>
      <point x="384" y="586"/>
      <point x="409" y="569"/>
      <point x="436" y="569" type="curve" smooth="yes"/>
      <point x="473" y="569"/>
      <point x="505" y="603"/>
      <point x="505" y="667" type="curve" smooth="yes"/>
      <point x="505" y="699"/>
      <point x="485" y="722"/>
      <point x="454" y="722" type="curve" smooth="yes"/>
      <point x="416" y="722"/>
      <point x="384" y="684"/>
    </contour>
    <contour>
      <point x="316" y="627" type="curve" smooth="yes"/>
      <point x="316" y="700"/>
      <point x="359" y="762"/>
      <point x="460" y="762" type="curve" smooth="yes"/>
      <point x="531" y="762"/>
      <point x="573" y="721"/>
      <point x="573" y="660" type="curve" smooth="yes"/>
      <point x="573" y="570"/>
      <point x="508" y="529"/>
      <point x="430" y="529" type="curve" smooth="yes"/>
      <point x="362" y="529"/>
      <point x="316" y="566"/>
    </contour>
  </outline>
</glyph>
<glyph name="uogonek" format="1">
  <advance width="634"/>
  <unicode hex="0173"/>
  <outline>
    <contour>
      <point x="149" y="-153" type="curve" smooth="yes"/>
      <point x="153" y="-102"/>
      <point x="214" y="-39"/>
      <point x="283" y="-4" type="curve"/>
      <point x="340" y="-4" type="line"/>
      <point x="282" y="-48"/>
      <point x="250" y="-94"/>
      <point x="246" y="-132" type="curve" smooth="yes"/>
      <point x="244" y="-172"/>
      <point x="266" y="-196"/>
      <point x="300" y="-196" type="curve" smooth="yes"/>
      <point x="316" y="-196"/>
      <point x="337" y="-191"/>
      <point x="350" y="-183" type="curve"/>
      <point x="364" y="-210" type="line"/>
      <point x="324" y="-241"/>
      <point x="286" y="-250"/>
      <point x="257" y="-250" type="curve" smooth="yes"/>
      <point x="153" y="-250"/>
      <point x="146" y="-186"/>
    </contour>
    <contour>
      <point x="109" y="443" type="line"/>
      <point x="117" y="476" type="line"/>
      <point x="348" y="502" type="line"/>
      <point x="353" y="497" type="line"/>
      <point x="259" y="128" type="line" smooth="yes"/>
      <point x="249" y="91"/>
      <point x="250" y="68"/>
      <point x="278" y="68" type="curve" smooth="yes"/>
      <point x="325" y="68"/>
      <point x="407" y="199"/>
      <point x="443" y="285" type="curve" smooth="yes"/>
      <point x="465" y="335"/>
      <point x="481" y="388"/>
      <point x="510" y="490" type="curve"/>
      <point x="652" y="502" type="line"/>
      <point x="551" y="115" type="line" smooth="yes"/>
      <point x="543" y="89"/>
      <point x="544" y="68"/>
      <point x="563" y="68" type="curve" smooth="yes"/>
      <point x="586" y="68"/>
      <point x="623" y="121"/>
      <point x="649" y="166" type="curve"/>
      <point x="678" y="148" type="line"/>
      <point x="637" y="65"/>
      <point x="576" y="-12"/>
      <point x="479" y="-12" type="curve" smooth="yes"/>
      <point x="425" y="-12"/>
      <point x="397" y="28"/>
      <point x="415" y="96" type="curve" smooth="yes"/>
      <point x="446" y="210" type="line"/>
      <point x="442" y="210" type="line"/>
      <point x="379" y="94"/>
      <point x="296" y="-12"/>
      <point x="183" y="-12" type="curve" smooth="yes"/>
      <point x="103" y="-12"/>
      <point x="95" y="53"/>
      <point x="116" y="133" type="curve" smooth="yes"/>
      <point x="183" y="391" type="line" smooth="yes"/>
      <point x="191" y="421"/>
      <point x="187" y="435"/>
      <point x="168" y="437" type="curve" smooth="yes"/>
    </contour>
  </outline>
</glyph>
<glyph name="zacute" format="1">
  <advance width="466"/>
  <unicode hex="017A"/>
  <outline>
    <contour>
      <point x="18" y="19" type="curve" smooth="yes"/>
      <point x="18" y="39"/>
      <point x="32" y="63"/>
      <point x="45" y="78" type="curve" smooth="yes"/>
      <point x="147" y="189"/>
      <point x="263" y="295"/>
      <point x="370" y="394" type="curve"/>
      <point x="370" y="396" type="line"/>
      <point x="225" y="396" type="line" smooth="yes"/>
      <point x="169" y="396"/>
      <point x="150" y="365"/>
      <point x="118" y="306" type="curve"/>
      <point x="93" y="318" type="line"/>
      <point x="115" y="404"/>
      <point x="147" y="465"/>
      <point x="170" y="490" type="curve"/>
      <point x="533" y="490" type="line"/>
      <point x="541" y="474" type="line"/>
      <point x="417" y="360"/>
      <point x="293" y="249"/>
      <point x="207" y="156" type="curve"/>
      <point x="207" y="150" type="line"/>
      <point x="226" y="147"/>
      <point x="253" y="137"/>
      <point x="278" y="128" type="curve" smooth="yes"/>
      <point x="314" y="116"/>
      <point x="354" y="105"/>
      <point x="380" y="105" type="curve" smooth="yes"/>
      <point x="432" y="105"/>
      <point x="457" y="157"/>
      <point x="486" y="211" type="curve"/>
      <point x="515" y="201" type="line"/>
      <point x="488" y="87"/>
      <point x="457" y="-12"/>
      <point x="382" y="-12" type="curve" smooth="yes"/>
      <point x="339" y="-12"/>
      <point x="288" y="6"/>
      <point x="231" y="28" type="curve" smooth="yes"/>
      <point x="155" y="58"/>
      <point x="138" y="68"/>
      <point x="129" y="68" type="curve" smooth="yes"/>
      <point x="123" y="68"/>
      <point x="119" y="61"/>
      <point x="119" y="50" type="curve" smooth="yes"/>
      <point x="123" y="20" type="line" smooth="yes"/>
      <point x="124" y="-3"/>
      <point x="96" y="-12"/>
      <point x="56" y="-12" type="curve" smooth="yes"/>
      <point x="25" y="-12"/>
      <point x="18" y="4"/>
    </contour>
    <contour>
      <point x="292" y="541" type="line"/>
      <point x="437" y="690" type="line" smooth="yes"/>
      <point x="474" y="728"/>
      <point x="491" y="740"/>
      <point x="511" y="740" type="curve" smooth="yes"/>
      <point x="535" y="740"/>
      <point x="564" y="705"/>
      <point x="564" y="680" type="curve" smooth="yes"/>
      <point x="564" y="654"/>
      <point x="532" y="634"/>
      <point x="496" y="614" type="curve" smooth="yes"/>
      <point x="313" y="511" type="line"/>
    </contour>
  </outline>
</glyph>
<glyph name="Zcaron" format="1">
  <advance width="618"/>
  <unicode hex="017D"/>
  <outline>
    <contour>
      <point x="5" y="20" type="line"/>
      <point x="185" y="228"/>
      <point x="363" y="436"/>
      <point x="540" y="646" type="curve"/>
      <point x="399" y="646" type="line" smooth="yes"/>
      <point x="311" y="646"/>
      <point x="260" y="625"/>
      <point x="227" y="552" type="curve" smooth="yes"/>
      <point x="206" y="505" type="line"/>
      <point x="168" y="505" type="line"/>
      <point x="207" y="692" type="line"/>
      <point x="741" y="692" type="line"/>
      <point x="749" y="673" type="line"/>
      <point x="568" y="465"/>
      <point x="389" y="256"/>
      <point x="211" y="46" type="curve"/>
      <point x="409" y="46" type="line" smooth="yes"/>
      <point x="486" y="46"/>
      <point x="534" y="69"/>
      <point x="585" y="154" type="curve" smooth="yes"/>
      <point x="617" y="208" type="line"/>
      <point x="655" y="208" type="line"/>
      <point x="596" y="0" type="line"/>
      <point x="12" y="0" type="line"/>
    </contour>
    <contour>
      <point x="303" y="886" type="line"/>
      <point x="327" y="916" type="line"/>
      <point x="433" y="856" type="line" smooth="yes"/>
      <point x="452" y="845"/>
      <point x="462" y="841"/>
      <point x="474" y="841" type="curve" smooth="yes"/>
      <point x="484" y="841"/>
      <point x="497" y="846"/>
      <point x="516" y="854" type="curve" smooth="yes"/>
      <point x="667" y="916" type="line"/>
      <point x="684" y="886" type="line"/>
      <point x="512" y="762" type="line" smooth="yes"/>
      <point x="494" y="749"/>
      <point x="477" y="736"/>
      <point x="460" y="736" type="curve" smooth="yes"/>
      <point x="442" y="736"/>
      <point x="429" y="749"/>
      <point x="415" y="764" type="curve" smooth="yes"/>
    </contour>
  </outline>
</glyph>
<glyph name="longs" format="1">
  <advance width="342"/>
  <unicode hex="017F"/>
  <outline>
    <contour>
      <point x="-94" y="-168" type="curve" smooth="yes"/>
      <point x="-94" y="-137"/>
      <point x="-66" y="-109"/>
      <point x="-34" y="-109" type="curve" smooth="yes"/>
      <point x="-12" y="-109"/>
      <point x="-4" y="-125"/>
      <point x="5" y="-140" type="curve" smooth="yes"/>
      <point x="29" y="-182"/>
      <point x="42" y="-196"/>
      <point x="52" y="-196" type="curve" smooth="yes"/>
      <point x="60" y="-196"/>
      <point x="67" y="-187"/>
      <point x="71" y="-169" type="curve" smooth="yes"/>
      <point x="194" y="442" type="line"/>
      <point x="105" y="442" type="line"/>
      <point x="119" y="490" type="line"/>
      <point x="205" y="490" type="line"/>
      <point x="212" y="516" type="line" smooth="yes"/>
      <point x="243" y="631"/>
      <point x="301" y="742"/>
      <point x="447" y="742" type="curve" smooth="yes"/>
      <point x="533" y="742"/>
      <point x="590" y="700"/>
      <point x="590" y="654" type="curve" smooth="yes"/>
      <point x="590" y="618"/>
      <point x="552" y="594"/>
      <point x="521" y="594" type="curve" smooth="yes"/>
      <point x="497" y="594"/>
      <point x="487" y="608"/>
      <point x="479" y="624" type="curve" smooth="yes"/>
      <point x="452" y="682"/>
      <point x="439" y="696"/>
      <point x="424" y="696" type="curve" smooth="yes"/>
      <point x="408" y="696"/>
      <point x="395" y="671"/>
      <point x="383" y="620" type="curve" smooth="yes"/>
      <point x="245" y="28" type="line" smooth="yes"/>
      <point x="203" y="-151"/>
      <point x="143" y="-242"/>
      <point x="26" y="-242" type="curve" smooth="yes"/>
      <point x="-51" y="-242"/>
      <point x="-94" y="-210"/>
    </contour>
  </outline>
</glyph>
<glyph name="uni018F" format="1">
  <advance width="731"/>
  <unicode hex="018F"/>
  <outline>
    <contour>
      <point x="278" y="210" type="curve" smooth="yes"/>
      <point x="278" y="90"/>
      <point x="310" y="31"/>
      <point x="385" y="31" type="curve" smooth="yes"/>
      <point x="482" y="31"/>
      <point x="546" y="168"/>
      <point x="582" y="303" type="curve"/>
      <point x="319" y="303" type="line" smooth="yes"/>
      <point x="292" y="303"/>
      <point x="286" y="289"/>
      <point x="284" y="273" type="curve" smooth="yes"/>
      <point x="279" y="243"/>
      <point x="278" y="228"/>
    </contour>
    <contour>
      <point x="113" y="304" type="curve" smooth="yes"/>
      <point x="113" y="330"/>
      <point x="134" y="351"/>
      <point x="160" y="351" type="curve" smooth="yes"/>
      <point x="592" y="351" type="line"/>
      <point x="603" y="404"/>
      <point x="608" y="458"/>
      <point x="608" y="506" type="curve" smooth="yes"/>
      <point x="608" y="594"/>
      <point x="588" y="661"/>
      <point x="477" y="661" type="curve" smooth="yes"/>
      <point x="369" y="661"/>
      <point x="291" y="576"/>
      <point x="252" y="494" type="curve"/>
      <point x="214" y="494" type="line"/>
      <point x="250" y="645" type="line"/>
      <point x="316" y="687"/>
      <point x="427" y="707"/>
      <point x="477" y="707" type="curve" smooth="yes"/>
      <point x="645" y="707"/>
      <point x="773" y="621"/>
      <point x="773" y="419" type="curve" smooth="yes"/>
      <point x="773" y="268"/>
      <point x="700" y="-15"/>
      <point x="402" y="-15" type="curve" smooth="yes"/>
      <point x="208" y="-15"/>
      <point x="113" y="73"/>
    </contour>
  </outline>
</glyph>
<glyph name="uni0190" format="1">
  <advance width="595"/>
  <unicode hex="0190"/>
  <outline>
    <contour>
      <point x="77" y="170" type="curve" smooth="yes"/>
      <point x="77" y="286"/>
      <point x="196" y="366"/>
      <point x="290" y="378" type="curve"/>
      <point x="290" y="380" type="line"/>
      <point x="228" y="402"/>
      <point x="179" y="446"/>
      <point x="179" y="508" type="curve" smooth="yes"/>
      <point x="179" y="630"/>
      <point x="302" y="707"/>
      <point x="465" y="707" type="curve" smooth="yes"/>
      <point x="514" y="707"/>
      <point x="620" y="698"/>
      <point x="692" y="654" type="curve"/>
      <point x="659" y="502" type="line"/>
      <point x="621" y="502" type="line"/>
      <point x="621" y="602"/>
      <point x="586" y="661"/>
      <point x="473" y="661" type="curve" smooth="yes"/>
      <point x="386" y="661"/>
      <point x="334" y="595"/>
      <point x="334" y="515" type="curve" smooth="yes"/>
      <point x="334" y="449"/>
      <point x="358" y="398"/>
      <point x="445" y="398" type="curve" smooth="yes"/>
      <point x="509" y="398" type="line"/>
      <point x="499" y="350" type="line"/>
      <point x="431" y="350" type="line" smooth="yes"/>
      <point x="328" y="350"/>
      <point x="242" y="256"/>
      <point x="242" y="161" type="curve" smooth="yes"/>
      <point x="242" y="61"/>
      <point x="313" y="31"/>
      <point x="361" y="31" type="curve" smooth="yes"/>
      <point x="482" y="31"/>
      <point x="528" y="96"/>
      <point x="585" y="213" type="curve"/>
      <point x="623" y="213" type="line"/>
      <point x="569" y="26" type="line"/>
      <point x="502" y="-10"/>
      <point x="418" y="-15"/>
      <point x="354" y="-15" type="curve" smooth="yes"/>
      <point x="262" y="-15"/>
      <point x="77" y="0"/>
    </contour>
  </outline>
</glyph>
<glyph name="uni0191" format="1">
  <advance width="585"/>
  <unicode hex="0191"/>
  <outline>
    <contour>
      <point x="-175" y="-140" type="curve" smooth="yes"/>
      <point x="-175" y="-98"/>
      <point x="-133" y="-78"/>
      <point x="-96" y="-78" type="curve" smooth="yes"/>
      <point x="-25" y="-78"/>
      <point x="-60" y="-196"/>
      <point x="-4" y="-196" type="curve" smooth="yes"/>
      <point x="53" y="-196"/>
      <point x="94" y="-91"/>
      <point x="125" y="47" type="curve" smooth="yes"/>
      <point x="249" y="594" type="line" smooth="yes"/>
      <point x="257" y="630"/>
      <point x="258" y="647"/>
      <point x="230" y="649" type="curve" smooth="yes"/>
      <point x="179" y="654" type="line"/>
      <point x="189" y="692" type="line"/>
      <point x="718" y="692" type="line"/>
      <point x="678" y="509" type="line"/>
      <point x="640" y="509" type="line"/>
      <point x="635" y="562" type="line" smooth="yes"/>
      <point x="631" y="612"/>
      <point x="609" y="646"/>
      <point x="521" y="646" type="curve" smooth="yes"/>
      <point x="447" y="646" type="line" smooth="yes"/>
      <point x="422" y="646"/>
      <point x="413" y="639"/>
      <point x="408" y="617" type="curve" smooth="yes"/>
      <point x="353" y="368" type="line"/>
      <point x="466" y="368" type="line" smooth="yes"/>
      <point x="529" y="368"/>
      <point x="546" y="386"/>
      <point x="578" y="459" type="curve"/>
      <point x="616" y="459" type="line"/>
      <point x="566" y="229" type="line"/>
      <point x="528" y="229" type="line"/>
      <point x="531" y="292"/>
      <point x="520" y="320"/>
      <point x="456" y="320" type="curve" smooth="yes"/>
      <point x="341" y="320" type="line"/>
      <point x="274" y="27" type="line" smooth="yes"/>
      <point x="221" y="-206"/>
      <point x="95" y="-242"/>
      <point x="-24" y="-242" type="curve" smooth="yes"/>
      <point x="-126" y="-242"/>
      <point x="-175" y="-181"/>
    </contour>
  </outline>
</glyph>
<glyph name="florin" format="1">
  <advance width="560"/>
  <unicode hex="0192"/>
  <outline>
    <contour>
      <point x="19" y="-64" type="curve" smooth="yes"/>
      <point x="20" y="-33"/>
      <point x="48" y="-9"/>
      <point x="77" y="-9" type="curve" smooth="yes"/>
      <point x="94" y="-9"/>
      <point x="104" y="-20"/>
      <point x="112" y="-36" type="curve" smooth="yes"/>
      <point x="132" y="-72"/>
      <point x="149" y="-89"/>
      <point x="159" y="-89" type="curve" smooth="yes"/>
      <point x="167" y="-89"/>
      <point x="174" y="-81"/>
      <point x="179" y="-58" type="curve" smooth="yes"/>
      <point x="264" y="361" type="line"/>
      <point x="160" y="361" type="line"/>
      <point x="171" y="409" type="line"/>
      <point x="275" y="409" type="line"/>
      <point x="287" y="462" type="line" smooth="yes"/>
      <point x="302" y="525"/>
      <point x="327" y="585"/>
      <point x="368" y="629" type="curve" smooth="yes"/>
      <point x="404" y="667"/>
      <point x="457" y="691"/>
      <point x="516" y="691" type="curve" smooth="yes"/>
      <point x="642" y="691"/>
      <point x="672" y="627"/>
      <point x="670" y="601" type="curve" smooth="yes"/>
      <point x="669" y="566"/>
      <point x="631" y="547"/>
      <point x="600" y="547" type="curve" smooth="yes"/>
      <point x="578" y="547"/>
      <point x="568" y="558"/>
      <point x="558" y="579" type="curve" smooth="yes"/>
      <point x="536" y="628"/>
      <point x="523" y="645"/>
      <point x="507" y="645" type="curve" smooth="yes"/>
      <point x="490" y="645"/>
      <point x="477" y="626"/>
      <point x="466" y="575" type="curve" smooth="yes"/>
      <point x="429" y="409" type="line"/>
      <point x="554" y="409" type="line"/>
      <point x="544" y="361" type="line"/>
      <point x="417" y="361" type="line"/>
      <point x="390" y="245" type="line" smooth="yes"/>
      <point x="351" y="76"/>
      <point x="318" y="-12"/>
      <point x="273" y="-71" type="curve" smooth="yes"/>
      <point x="244" y="-109"/>
      <point x="197" y="-135"/>
      <point x="141" y="-135" type="curve" smooth="yes"/>
      <point x="54" y="-135"/>
      <point x="19" y="-92"/>
    </contour>
  </outline>
</glyph>
<glyph name="uni0194" format="1">
  <advance width="620"/>
  <unicode hex="0194"/>
  <outline>
    <contour>
      <point x="276" y="70" type="curve" smooth="yes"/>
      <point x="276" y="52"/>
      <point x="283" y="31"/>
      <point x="308" y="31" type="curve" smooth="yes"/>
      <point x="325" y="31"/>
      <point x="354" y="48"/>
      <point x="354" y="93" type="curve" smooth="yes"/>
      <point x="354" y="113"/>
      <point x="347" y="142"/>
      <point x="335" y="172" type="curve"/>
      <point x="333" y="172" type="line"/>
      <point x="303" y="138"/>
      <point x="276" y="103"/>
    </contour>
    <contour>
      <point x="131" y="656" type="line"/>
      <point x="139" y="692" type="line"/>
      <point x="436" y="692" type="line"/>
      <point x="428" y="654" type="line"/>
      <point x="377" y="648" type="line" smooth="yes"/>
      <point x="357" y="646"/>
      <point x="356" y="636"/>
      <point x="360" y="619" type="curve" smooth="yes"/>
      <point x="424" y="349" type="line"/>
      <point x="426" y="349" type="line"/>
      <point x="490" y="440"/>
      <point x="571" y="565"/>
      <point x="601" y="615" type="curve" smooth="yes"/>
      <point x="613" y="635"/>
      <point x="610" y="647"/>
      <point x="588" y="649" type="curve" smooth="yes"/>
      <point x="538" y="654" type="line"/>
      <point x="546" y="692" type="line"/>
      <point x="795" y="692" type="line"/>
      <point x="788" y="654" type="line"/>
      <point x="759" y="651" type="line" smooth="yes"/>
      <point x="722" y="647"/>
      <point x="709" y="634"/>
      <point x="683" y="603" type="curve" smooth="yes"/>
      <point x="632" y="543"/>
      <point x="516" y="387"/>
      <point x="442" y="284" type="curve"/>
      <point x="468" y="204"/>
      <point x="474" y="170"/>
      <point x="474" y="129" type="curve" smooth="yes"/>
      <point x="474" y="43"/>
      <point x="416" y="-14"/>
      <point x="320" y="-14" type="curve" smooth="yes"/>
      <point x="258" y="-14"/>
      <point x="215" y="2"/>
      <point x="215" y="82" type="curve" smooth="yes"/>
      <point x="215" y="128"/>
      <point x="266" y="187"/>
      <point x="308" y="230" type="curve"/>
      <point x="283" y="333"/>
      <point x="235" y="516"/>
      <point x="206" y="609" type="curve" smooth="yes"/>
      <point x="196" y="642"/>
      <point x="187" y="651"/>
      <point x="165" y="653" type="curve" smooth="yes"/>
    </contour>
  </outline>
</glyph>
<glyph name="uni0196" format="1">
  <advance width="444"/>
  <unicode hex="0196"/>
  <outline>
    <contour>
      <point x="153" y="220" type="curve" smooth="yes"/>
      <point x="238" y="594" type="line" smooth="yes"/>
      <point x="246" y="630"/>
      <point x="247" y="647"/>
      <point x="219" y="649" type="curve" smooth="yes"/>
      <point x="168" y="654" type="line"/>
      <point x="178" y="692" type="line"/>
      <point x="413" y="692" type="line"/>
      <point x="306" y="206" type="line" smooth="yes"/>
      <point x="281" y="95"/>
      <point x="305" y="64"/>
      <point x="345" y="64" type="curve" smooth="yes"/>
      <point x="364" y="64"/>
      <point x="400" y="77"/>
      <point x="435" y="95" type="curve"/>
      <point x="451" y="61" type="line"/>
      <point x="389" y="17"/>
      <point x="325" y="-15"/>
      <point x="278" y="-15" type="curve" smooth="yes"/>
      <point x="158" y="-15"/>
      <point x="120" y="75"/>
    </contour>
  </outline>
</glyph>
<glyph name="uni01B2" format="1">
  <advance width="704"/>
  <unicode hex="01B2"/>
  <outline>
    <contour>
      <point x="168" y="654" type="line"/>
      <point x="178" y="692" type="line"/>
      <point x="490" y="692" type="line"/>
      <point x="480" y="654" type="line"/>
      <point x="436" y="650" type="line" smooth="yes"/>
      <point x="407" y="648"/>
      <point x="400" y="630"/>
      <point x="392" y="594" type="curve" smooth="yes"/>
      <point x="314" y="246" type="line" smooth="yes"/>
      <point x="277" y="82"/>
      <point x="331" y="31"/>
      <point x="407" y="31" type="curve" smooth="yes"/>
      <point x="550" y="31"/>
      <point x="658" y="218"/>
      <point x="658" y="384" type="curve" smooth="yes"/>
      <point x="658" y="454"/>
      <point x="646" y="499"/>
      <point x="609" y="564" type="curve" smooth="yes"/>
      <point x="596" y="587"/>
      <point x="584" y="611"/>
      <point x="584" y="630" type="curve" smooth="yes"/>
      <point x="584" y="664"/>
      <point x="617" y="707"/>
      <point x="688" y="707" type="curve" smooth="yes"/>
      <point x="741" y="707"/>
      <point x="766" y="617"/>
      <point x="766" y="461" type="curve" smooth="yes"/>
      <point x="766" y="281"/>
      <point x="659" y="-15"/>
      <point x="393" y="-15" type="curve" smooth="yes"/>
      <point x="230" y="-15"/>
      <point x="115" y="52"/>
      <point x="161" y="254" type="curve" smooth="yes"/>
      <point x="238" y="594" type="line" smooth="yes"/>
      <point x="246" y="630"/>
      <point x="247" y="647"/>
      <point x="219" y="649" type="curve" smooth="yes"/>
    </contour>
  </outline>
</glyph>
<glyph name="uni01C8" format="1">
  <advance width="919"/>
  <unicode hex="01C8"/>
  <outline>
    <contour>
      <point x="501" y="-174" type="curve" smooth="yes"/>
      <point x="501" y="-147"/>
      <point x="532" y="-114"/>
      <point x="561" y="-114" type="curve" smooth="yes"/>
      <point x="580" y="-114"/>
      <point x="590" y="-132"/>
      <point x="600" y="-147" type="curve" smooth="yes"/>
      <point x="625" y="-185"/>
      <point x="636" y="-196"/>
      <point x="645" y="-196" type="curve" smooth="yes"/>
      <point x="653" y="-196"/>
      <point x="658" y="-189"/>
      <point x="664" y="-162" type="curve" smooth="yes"/>
      <point x="786" y="391" type="line" smooth="yes"/>
      <point x="792" y="418"/>
      <point x="790" y="432"/>
      <point x="771" y="434" type="curve" smooth="yes"/>
      <point x="707" y="440" type="line"/>
      <point x="714" y="473" type="line"/>
      <point x="946" y="502" type="line"/>
      <point x="953" y="497" type="line"/>
      <point x="838" y="-5" type="line" smooth="yes"/>
      <point x="816" y="-99"/>
      <point x="790" y="-163"/>
      <point x="747" y="-201" type="curve" smooth="yes"/>
      <point x="715" y="-228"/>
      <point x="673" y="-242"/>
      <point x="627" y="-242" type="curve" smooth="yes"/>
      <point x="541" y="-242"/>
      <point x="501" y="-210"/>
    </contour>
    <contour>
      <point x="818" y="632" type="curve" smooth="yes"/>
      <point x="818" y="675"/>
      <point x="846" y="720"/>
      <point x="905" y="720" type="curve" smooth="yes"/>
      <point x="949" y="720"/>
      <point x="985" y="696"/>
      <point x="985" y="647" type="curve" smooth="yes"/>
      <point x="985" y="592"/>
      <point x="950" y="559"/>
      <point x="899" y="559" type="curve" smooth="yes"/>
      <point x="851" y="559"/>
      <point x="818" y="587"/>
    </contour>
    <contour>
      <point x="40" y="0" type="line"/>
      <point x="49" y="38" type="line"/>
      <point x="94" y="42" type="line" smooth="yes"/>
      <point x="123" y="45"/>
      <point x="130" y="62"/>
      <point x="138" y="98" type="curve" smooth="yes"/>
      <point x="249" y="594" type="line" smooth="yes"/>
      <point x="257" y="630"/>
      <point x="258" y="648"/>
      <point x="230" y="650" type="curve" smooth="yes"/>
      <point x="179" y="654" type="line"/>
      <point x="189" y="692" type="line"/>
      <point x="501" y="692" type="line"/>
      <point x="491" y="654" type="line"/>
      <point x="447" y="650" type="line" smooth="yes"/>
      <point x="418" y="647"/>
      <point x="411" y="630"/>
      <point x="403" y="594" type="curve" smooth="yes"/>
      <point x="293" y="101" type="line" smooth="yes"/>
      <point x="282" y="52"/>
      <point x="310" y="46"/>
      <point x="384" y="46" type="curve" smooth="yes"/>
      <point x="458" y="46"/>
      <point x="506" y="70"/>
      <point x="558" y="153" type="curve" smooth="yes"/>
      <point x="588" y="201" type="line"/>
      <point x="626" y="201" type="line"/>
      <point x="568" y="0" type="line"/>
    </contour>
  </outline>
</glyph>
<glyph name="uni01C9" format="1">
  <advance width="660"/>
  <unicode hex="01C9"/>
  <outline>
    <contour>
      <point x="242" y="-174" type="curve" smooth="yes"/>
      <point x="242" y="-147"/>
      <point x="273" y="-114"/>
      <point x="302" y="-114" type="curve" smooth="yes"/>
      <point x="321" y="-114"/>
      <point x="331" y="-132"/>
      <point x="341" y="-147" type="curve" smooth="yes"/>
      <point x="366" y="-185"/>
      <point x="377" y="-196"/>
      <point x="386" y="-196" type="curve" smooth="yes"/>
      <point x="394" y="-196"/>
      <point x="399" y="-189"/>
      <point x="405" y="-162" type="curve" smooth="yes"/>
      <point x="527" y="391" type="line" smooth="yes"/>
      <point x="533" y="418"/>
      <point x="531" y="432"/>
      <point x="512" y="434" type="curve" smooth="yes"/>
      <point x="448" y="440" type="line"/>
      <point x="455" y="473" type="line"/>
      <point x="687" y="502" type="line"/>
      <point x="694" y="497" type="line"/>
      <point x="579" y="-5" type="line" smooth="yes"/>
      <point x="557" y="-99"/>
      <point x="531" y="-163"/>
      <point x="488" y="-201" type="curve" smooth="yes"/>
      <point x="456" y="-228"/>
      <point x="414" y="-242"/>
      <point x="368" y="-242" type="curve" smooth="yes"/>
      <point x="282" y="-242"/>
      <point x="242" y="-210"/>
    </contour>
    <contour>
      <point x="559" y="632" type="curve" smooth="yes"/>
      <point x="559" y="675"/>
      <point x="587" y="720"/>
      <point x="646" y="720" type="curve" smooth="yes"/>
      <point x="690" y="720"/>
      <point x="726" y="696"/>
      <point x="726" y="647" type="curve" smooth="yes"/>
      <point x="726" y="592"/>
      <point x="691" y="559"/>
      <point x="640" y="559" type="curve" smooth="yes"/>
      <point x="592" y="559"/>
      <point x="559" y="587"/>
    </contour>
    <contour>
      <point x="104" y="115" type="curve" smooth="yes"/>
      <point x="229" y="633" type="line" smooth="yes"/>
      <point x="236" y="662"/>
      <point x="232" y="674"/>
      <point x="213" y="676" type="curve" smooth="yes"/>
      <point x="155" y="683" type="line"/>
      <point x="162" y="715" type="line"/>
      <point x="389" y="742" type="line"/>
      <point x="395" y="737" type="line"/>
      <point x="244" y="115" type="line" smooth="yes"/>
      <point x="238" y="88"/>
      <point x="237" y="68"/>
      <point x="255" y="68" type="curve" smooth="yes"/>
      <point x="277" y="68"/>
      <point x="316" y="118"/>
      <point x="342" y="166" type="curve"/>
      <point x="373" y="148" type="line"/>
      <point x="332" y="65"/>
      <point x="271" y="-12"/>
      <point x="176" y="-12" type="curve" smooth="yes"/>
      <point x="108" y="-12"/>
      <point x="84" y="32"/>
    </contour>
  </outline>
</glyph>
<glyph name="uni01CB" format="1">
  <advance width="1074"/>
  <unicode hex="01CB"/>
  <outline>
    <contour>
      <point x="656" y="-174" type="curve" smooth="yes"/>
      <point x="656" y="-147"/>
      <point x="687" y="-114"/>
      <point x="716" y="-114" type="curve" smooth="yes"/>
      <point x="735" y="-114"/>
      <point x="745" y="-132"/>
      <point x="755" y="-147" type="curve" smooth="yes"/>
      <point x="780" y="-185"/>
      <point x="791" y="-196"/>
      <point x="800" y="-196" type="curve" smooth="yes"/>
      <point x="808" y="-196"/>
      <point x="813" y="-189"/>
      <point x="819" y="-162" type="curve" smooth="yes"/>
      <point x="941" y="391" type="line" smooth="yes"/>
      <point x="947" y="418"/>
      <point x="945" y="432"/>
      <point x="926" y="434" type="curve" smooth="yes"/>
      <point x="862" y="440" type="line"/>
      <point x="869" y="473" type="line"/>
      <point x="1101" y="502" type="line"/>
      <point x="1108" y="497" type="line"/>
      <point x="993" y="-5" type="line" smooth="yes"/>
      <point x="971" y="-99"/>
      <point x="945" y="-163"/>
      <point x="902" y="-201" type="curve" smooth="yes"/>
      <point x="870" y="-228"/>
      <point x="828" y="-242"/>
      <point x="782" y="-242" type="curve" smooth="yes"/>
      <point x="696" y="-242"/>
      <point x="656" y="-210"/>
    </contour>
    <contour>
      <point x="973" y="632" type="curve" smooth="yes"/>
      <point x="973" y="675"/>
      <point x="1001" y="720"/>
      <point x="1060" y="720" type="curve" smooth="yes"/>
      <point x="1104" y="720"/>
      <point x="1140" y="696"/>
      <point x="1140" y="647" type="curve" smooth="yes"/>
      <point x="1140" y="592"/>
      <point x="1105" y="559"/>
      <point x="1054" y="559" type="curve" smooth="yes"/>
      <point x="1006" y="559"/>
      <point x="973" y="587"/>
    </contour>
    <contour>
      <point x="30" y="0" type="line"/>
      <point x="38" y="38" type="line"/>
      <point x="75" y="41" type="line" smooth="yes"/>
      <point x="99" y="43"/>
      <point x="114" y="57"/>
      <point x="125" y="91" type="curve" smooth="yes"/>
      <point x="136" y="125"/>
      <point x="146" y="164"/>
      <point x="163" y="239" type="curve" smooth="yes"/>
      <point x="241" y="594" type="line" smooth="yes"/>
      <point x="249" y="630"/>
      <point x="250" y="647"/>
      <point x="222" y="649" type="curve" smooth="yes"/>
      <point x="172" y="654" type="line"/>
      <point x="182" y="692" type="line"/>
      <point x="404" y="692" type="line"/>
      <point x="474" y="522"/>
      <point x="545" y="353"/>
      <point x="617" y="183" type="curve"/>
      <point x="620" y="183" type="line"/>
      <point x="679" y="453" type="line" smooth="yes"/>
      <point x="695" y="527"/>
      <point x="704" y="566"/>
      <point x="707" y="601" type="curve" smooth="yes"/>
      <point x="710" y="634"/>
      <point x="702" y="649"/>
      <point x="673" y="651" type="curve" smooth="yes"/>
      <point x="619" y="654" type="line"/>
      <point x="627" y="692" type="line"/>
      <point x="873" y="692" type="line"/>
      <point x="865" y="654" type="line"/>
      <point x="828" y="651" type="line" smooth="yes"/>
      <point x="804" y="649"/>
      <point x="789" y="635"/>
      <point x="778" y="601" type="curve" smooth="yes"/>
      <point x="767" y="567"/>
      <point x="757" y="528"/>
      <point x="740" y="453" type="curve" smooth="yes"/>
      <point x="640" y="0" type="line"/>
      <point x="536" y="0" type="line"/>
      <point x="458" y="187"/>
      <point x="379" y="374"/>
      <point x="299" y="561" type="curve"/>
      <point x="295" y="561" type="line"/>
      <point x="223" y="239" type="line" smooth="yes"/>
      <point x="208" y="165"/>
      <point x="200" y="126"/>
      <point x="196" y="91" type="curve" smooth="yes"/>
      <point x="193" y="58"/>
      <point x="202" y="43"/>
      <point x="230" y="41" type="curve" smooth="yes"/>
      <point x="284" y="38" type="line"/>
      <point x="276" y="0" type="line"/>
    </contour>
  </outline>
</glyph>
<glyph name="uni01DF" format="1">
  <advance width="596"/>
  <unicode hex="01DF"/>
  <outline>
    <contour>
      <point x="296" y="770" type="line"/>
      <point x="311" y="842" type="line"/>
      <point x="622" y="842" type="line"/>
      <point x="607" y="770" type="line"/>
    </contour>
    <contour>
      <point x="215" y="115" type="curve" smooth="yes"/>
      <point x="215" y="87"/>
      <point x="221" y="68"/>
      <point x="244" y="68" type="curve" smooth="yes"/>
      <point x="276" y="68"/>
      <point x="315" y="116"/>
      <point x="364" y="194" type="curve" smooth="yes"/>
      <point x="413" y="274"/>
      <point x="449" y="371"/>
      <point x="467" y="442" type="curve"/>
      <point x="454" y="451"/>
      <point x="437" y="456"/>
      <point x="418" y="456" type="curve" smooth="yes"/>
      <point x="305" y="456"/>
      <point x="215" y="220"/>
    </contour>
    <contour>
      <point x="61" y="108" type="curve" smooth="yes"/>
      <point x="61" y="239"/>
      <point x="171" y="502"/>
      <point x="409" y="502" type="curve" smooth="yes"/>
      <point x="436" y="502"/>
      <point x="462" y="496"/>
      <point x="480" y="485" type="curve"/>
      <point x="484" y="494" type="line"/>
      <point x="621" y="494" type="line"/>
      <point x="520" y="115" type="line" smooth="yes"/>
      <point x="513" y="88"/>
      <point x="513" y="68"/>
      <point x="531" y="68" type="curve" smooth="yes"/>
      <point x="555" y="68"/>
      <point x="593" y="121"/>
      <point x="618" y="165" type="curve"/>
      <point x="647" y="149" type="line"/>
      <point x="605" y="65"/>
      <point x="543" y="-12"/>
      <point x="448" y="-12" type="curve" smooth="yes"/>
      <point x="385" y="-12"/>
      <point x="362" y="29"/>
      <point x="386" y="114" type="curve" smooth="yes"/>
      <point x="411" y="202" type="line"/>
      <point x="405" y="202" type="line"/>
      <point x="352" y="111"/>
      <point x="278" y="-12"/>
      <point x="159" y="-12" type="curve" smooth="yes"/>
      <point x="88" y="-12"/>
      <point x="61" y="47"/>
    </contour>
    <contour>
      <point x="239" y="635" type="curve" smooth="yes"/>
      <point x="239" y="673"/>
      <point x="267" y="710"/>
      <point x="318" y="710" type="curve" smooth="yes"/>
      <point x="370" y="710"/>
      <point x="397" y="673"/>
      <point x="397" y="635" type="curve" smooth="yes"/>
      <point x="397" y="597"/>
      <point x="370" y="561"/>
      <point x="318" y="561" type="curve" smooth="yes"/>
      <point x="267" y="561"/>
      <point x="239" y="597"/>
    </contour>
    <contour>
      <point x="479" y="635" type="curve" smooth="yes"/>
      <point x="479" y="673"/>
      <point x="507" y="710"/>
      <point x="558" y="710" type="curve" smooth="yes"/>
      <point x="610" y="710"/>
      <point x="637" y="673"/>
      <point x="637" y="635" type="curve" smooth="yes"/>
      <point x="637" y="597"/>
      <point x="610" y="561"/>
      <point x="558" y="561" type="curve" smooth="yes"/>
      <point x="507" y="561"/>
      <point x="479" y="597"/>
    </contour>
  </outline>
</glyph>
<glyph name="uni01E3" format="1">
  <advance width="789"/>
  <unicode hex="01E3"/>
  <outline>
    <contour>
      <point x="538" y="232" type="curve"/>
      <point x="654" y="255"/>
      <point x="717" y="334"/>
      <point x="718" y="413" type="curve" smooth="yes"/>
      <point x="717" y="440"/>
      <point x="704" y="456"/>
      <point x="679" y="456" type="curve" smooth="yes"/>
      <point x="620" y="456"/>
      <point x="552" y="347"/>
    </contour>
    <contour>
      <point x="215" y="115" type="curve" smooth="yes"/>
      <point x="215" y="87"/>
      <point x="221" y="68"/>
      <point x="244" y="68" type="curve" smooth="yes"/>
      <point x="276" y="68"/>
      <point x="315" y="116"/>
      <point x="364" y="194" type="curve" smooth="yes"/>
      <point x="413" y="274"/>
      <point x="449" y="371"/>
      <point x="467" y="442" type="curve"/>
      <point x="454" y="451"/>
      <point x="437" y="456"/>
      <point x="418" y="456" type="curve" smooth="yes"/>
      <point x="305" y="456"/>
      <point x="215" y="220"/>
    </contour>
    <contour>
      <point x="61" y="108" type="curve" smooth="yes"/>
      <point x="61" y="239"/>
      <point x="171" y="502"/>
      <point x="410" y="502" type="curve" smooth="yes"/>
      <point x="436" y="502"/>
      <point x="462" y="496"/>
      <point x="485" y="485" type="curve"/>
      <point x="514" y="509" type="line"/>
      <point x="568" y="509" type="line"/>
      <point x="548" y="443" type="line"/>
      <point x="550" y="441" type="line"/>
      <point x="595" y="483"/>
      <point x="648" y="502"/>
      <point x="695" y="502" type="curve" smooth="yes"/>
      <point x="783" y="502"/>
      <point x="845" y="457"/>
      <point x="845" y="386" type="curve" smooth="yes"/>
      <point x="845" y="355"/>
      <point x="838" y="322"/>
      <point x="799" y="286" type="curve" smooth="yes"/>
      <point x="756" y="248"/>
      <point x="687" y="216"/>
      <point x="534" y="187" type="curve"/>
      <point x="534" y="163" type="line" smooth="yes"/>
      <point x="534" y="107"/>
      <point x="553" y="54"/>
      <point x="614" y="54" type="curve" smooth="yes"/>
      <point x="674" y="54"/>
      <point x="721" y="100"/>
      <point x="774" y="176" type="curve"/>
      <point x="804" y="152" type="line"/>
      <point x="731" y="20"/>
      <point x="637" y="-12"/>
      <point x="552" y="-12" type="curve" smooth="yes"/>
      <point x="482" y="-12"/>
      <point x="398" y="23"/>
      <point x="398" y="161" type="curve" smooth="yes"/>
      <point x="398" y="167"/>
      <point x="399" y="178"/>
      <point x="400" y="187" type="curve"/>
      <point x="398" y="189" type="line"/>
      <point x="346" y="101"/>
      <point x="273" y="-12"/>
      <point x="160" y="-12" type="curve" smooth="yes"/>
      <point x="88" y="-12"/>
      <point x="61" y="47"/>
    </contour>
    <contour>
      <point x="416" y="592" type="line"/>
      <point x="431" y="664" type="line"/>
      <point x="742" y="664" type="line"/>
      <point x="727" y="592" type="line"/>
    </contour>
  </outline>
</glyph>
<glyph name="gcaron" format="1">
  <advance width="522"/>
  <unicode hex="01E7"/>
  <outline>
    <contour>
      <point x="258" y="291" type="curve" smooth="yes"/>
      <point x="258" y="252"/>
      <point x="276" y="223"/>
      <point x="316" y="223" type="curve" smooth="yes"/>
      <point x="344" y="223"/>
      <point x="369" y="240"/>
      <point x="387" y="271" type="curve" smooth="yes"/>
      <point x="406" y="304"/>
      <point x="418" y="349"/>
      <point x="418" y="395" type="curve" smooth="yes"/>
      <point x="416" y="443"/>
      <point x="385" y="456"/>
      <point x="359" y="456" type="curve" smooth="yes"/>
      <point x="294" y="456"/>
      <point x="258" y="361"/>
    </contour>
    <contour>
      <point x="158" y="-93" type="curve" smooth="yes"/>
      <point x="159" y="-162"/>
      <point x="220" y="-196"/>
      <point x="284" y="-196" type="curve" smooth="yes"/>
      <point x="337" y="-196"/>
      <point x="399" y="-169"/>
      <point x="398" y="-105" type="curve" smooth="yes"/>
      <point x="396" y="-27"/>
      <point x="292" y="-9"/>
      <point x="233" y="0" type="curve"/>
      <point x="210" y="-4"/>
      <point x="158" y="-29"/>
    </contour>
    <contour>
      <point x="21" y="-105" type="curve" smooth="yes"/>
      <point x="21" y="-24"/>
      <point x="110" y="9"/>
      <point x="179" y="18" type="curve"/>
      <point x="179" y="20" type="line"/>
      <point x="122" y="38"/>
      <point x="88" y="68"/>
      <point x="88" y="100" type="curve" smooth="yes"/>
      <point x="88" y="134"/>
      <point x="121" y="157"/>
      <point x="162" y="174" type="curve" smooth="yes"/>
      <point x="172" y="178"/>
      <point x="191" y="185"/>
      <point x="202" y="189" type="curve"/>
      <point x="202" y="191" type="line"/>
      <point x="160" y="204"/>
      <point x="107" y="243"/>
      <point x="106" y="313" type="curve" smooth="yes"/>
      <point x="104" y="390"/>
      <point x="160" y="502"/>
      <point x="355" y="502" type="curve" smooth="yes"/>
      <point x="406" y="502"/>
      <point x="461" y="489"/>
      <point x="494" y="472" type="curve"/>
      <point x="638" y="512" type="line"/>
      <point x="644" y="503" type="line"/>
      <point x="613" y="428" type="line"/>
      <point x="537" y="416" type="line"/>
      <point x="547" y="401"/>
      <point x="554" y="379"/>
      <point x="554" y="352" type="curve" smooth="yes"/>
      <point x="554" y="243"/>
      <point x="456" y="178"/>
      <point x="315" y="177" type="curve" smooth="yes"/>
      <point x="295" y="177"/>
      <point x="280" y="177"/>
      <point x="255" y="179" type="curve"/>
      <point x="238" y="173"/>
      <point x="223" y="164"/>
      <point x="223" y="147" type="curve" smooth="yes"/>
      <point x="224" y="124"/>
      <point x="251" y="116"/>
      <point x="345" y="94" type="curve" smooth="yes"/>
      <point x="448" y="70"/>
      <point x="525" y="23"/>
      <point x="525" y="-70" type="curve" smooth="yes"/>
      <point x="525" y="-186"/>
      <point x="421" y="-242"/>
      <point x="260" y="-242" type="curve" smooth="yes"/>
      <point x="116" y="-242"/>
      <point x="23" y="-186"/>
    </contour>
    <contour>
      <point x="232" y="720" type="line"/>
      <point x="261" y="747" type="line"/>
      <point x="374" y="651" type="line" smooth="yes"/>
      <point x="384" y="642"/>
      <point x="394" y="634"/>
      <point x="404" y="634" type="curve" smooth="yes"/>
      <point x="413" y="634"/>
      <point x="428" y="642"/>
      <point x="442" y="651" type="curve" smooth="yes"/>
      <point x="587" y="747" type="line"/>
      <point x="610" y="720" type="line"/>
      <point x="430" y="547" type="line" smooth="yes"/>
      <point x="414" y="531"/>
      <point x="397" y="520"/>
      <point x="382" y="520" type="curve" smooth="yes"/>
      <point x="365" y="520"/>
      <point x="356" y="533"/>
      <point x="346" y="548" type="curve" smooth="yes"/>
    </contour>
  </outline>
</glyph>
<glyph name="uni01EB" format="1">
  <advance width="562"/>
  <unicode hex="01EB"/>
  <outline>
    <contour>
      <point x="73" y="-153" type="curve" smooth="yes"/>
      <point x="77" y="-102"/>
      <point x="138" y="-39"/>
      <point x="207" y="-4" type="curve"/>
      <point x="210" y="-4" type="line"/>
      <point x="118" y="19"/>
      <point x="77" y="87"/>
      <point x="77" y="174" type="curve" smooth="yes"/>
      <point x="77" y="219"/>
      <point x="90" y="300"/>
      <point x="136" y="371" type="curve" smooth="yes"/>
      <point x="181" y="441"/>
      <point x="252" y="502"/>
      <point x="381" y="502" type="curve" smooth="yes"/>
      <point x="484" y="502"/>
      <point x="591" y="462"/>
      <point x="591" y="308" type="curve" smooth="yes"/>
      <point x="591" y="263"/>
      <point x="575" y="188"/>
      <point x="529" y="115" type="curve" smooth="yes"/>
      <point x="482" y="40"/>
      <point x="410" y="-12"/>
      <point x="284" y="-12" type="curve" smooth="yes"/>
      <point x="274" y="-12"/>
      <point x="264" y="-12"/>
      <point x="255" y="-11" type="curve"/>
      <point x="203" y="-53"/>
      <point x="174" y="-96"/>
      <point x="170" y="-132" type="curve" smooth="yes"/>
      <point x="168" y="-172"/>
      <point x="190" y="-196"/>
      <point x="224" y="-196" type="curve" smooth="yes"/>
      <point x="240" y="-196"/>
      <point x="261" y="-191"/>
      <point x="274" y="-183" type="curve"/>
      <point x="288" y="-210" type="line"/>
      <point x="248" y="-241"/>
      <point x="210" y="-250"/>
      <point x="181" y="-250" type="curve" smooth="yes"/>
      <point x="77" y="-250"/>
      <point x="70" y="-186"/>
    </contour>
    <contour>
      <point x="222" y="107" type="curve" smooth="yes"/>
      <point x="222" y="57"/>
      <point x="245" y="34"/>
      <point x="282" y="34" type="curve" smooth="yes"/>
      <point x="387" y="34"/>
      <point x="446" y="300"/>
      <point x="446" y="374" type="curve" smooth="yes"/>
      <point x="446" y="416"/>
      <point x="436" y="456"/>
      <point x="389" y="456" type="curve" smooth="yes"/>
      <point x="342" y="456"/>
      <point x="305" y="408"/>
      <point x="274" y="339" type="curve" smooth="yes"/>
      <point x="242" y="266"/>
      <point x="222" y="174"/>
    </contour>
  </outline>
</glyph>
